<svg width="1440" height="136" viewBox="0 0 1440 136" fill="none" xmlns="http://www.w3.org/2000/svg">
<mask id="path-1-outside-1_1_8314" maskUnits="userSpaceOnUse" x="-72" y="21" width="1026" height="97" fill="black">
<rect fill="white" x="-72" y="21" width="1026" height="97"/>
<path d="M-70.296 115V24.632H-50.2V115H-70.296ZM-14.36 115V24.632H5.86401V115H-14.36ZM-58.264 77.24V59.832H-7.70399V77.24H-58.264ZM51.364 116.408C44.964 116.408 39.1613 115 33.956 112.184C28.836 109.283 24.7827 105.357 21.796 100.408C18.8093 95.4587 17.316 89.912 17.316 83.768C17.316 77.624 18.8093 72.12 21.796 67.256C24.7827 62.392 28.836 58.552 33.956 55.736C39.076 52.8347 44.8787 51.384 51.364 51.384C57.8493 51.384 63.652 52.792 68.772 55.608C73.892 58.424 77.9453 62.3067 80.932 67.256C83.9187 72.12 85.412 77.624 85.412 83.768C85.412 89.912 83.9187 95.4587 80.932 100.408C77.9453 105.357 73.892 109.283 68.772 112.184C63.652 115 57.8493 116.408 51.364 116.408ZM51.364 98.616C54.18 98.616 56.6547 98.0187 58.788 96.824C60.9213 95.544 62.5427 93.7947 63.652 91.576C64.8467 89.272 65.444 86.6693 65.444 83.768C65.444 80.8667 64.8467 78.3493 63.652 76.216C62.4573 73.9973 60.7933 72.2907 58.66 71.096C56.612 69.816 54.18 69.176 51.364 69.176C48.6333 69.176 46.2013 69.816 44.068 71.096C41.9347 72.2907 40.2707 73.9973 39.076 76.216C37.8813 78.4347 37.284 80.9947 37.284 83.896C37.284 86.712 37.8813 89.272 39.076 91.576C40.2707 93.7947 41.9347 95.544 44.068 96.824C46.2013 98.0187 48.6333 98.616 51.364 98.616ZM109.144 115L87.64 52.792H106.84L120.152 97.976L114.52 98.104L129.24 52.792H145.112L159.96 98.104L154.2 97.976L167.64 52.792H186.84L165.336 115H149.336L134.872 71.992H139.736L125.016 115H109.144ZM235.939 115V99.384H257.187C261.112 99.384 264.184 98.232 266.403 95.928C268.622 93.624 269.731 90.808 269.731 87.48C269.731 85.176 269.219 83.128 268.195 81.336C267.171 79.544 265.72 78.136 263.843 77.112C262.051 76.088 259.832 75.576 257.187 75.576H235.939V60.344H255.523C258.851 60.344 261.539 59.5333 263.587 57.912C265.635 56.2053 266.659 53.6453 266.659 50.232C266.659 46.904 265.635 44.4293 263.587 42.808C261.539 41.1013 258.851 40.248 255.523 40.248H235.939V24.632H259.363C265.166 24.632 270.072 25.6987 274.083 27.832C278.179 29.9653 281.294 32.824 283.427 36.408C285.56 39.992 286.627 43.96 286.627 48.312C286.627 53.8587 284.835 58.552 281.251 62.392C277.667 66.232 272.376 68.8773 265.379 70.328L265.891 63.544C273.486 64.9947 279.331 67.9387 283.427 72.376C287.608 76.8133 289.699 82.2747 289.699 88.76C289.699 93.7093 288.462 98.1893 285.987 102.2C283.598 106.125 280.099 109.24 275.491 111.544C270.968 113.848 265.507 115 259.107 115H235.939ZM220.579 115V24.632H240.419V115H220.579ZM328.435 116.408C322.718 116.408 317.64 115.256 313.203 112.952C308.851 110.563 305.438 107.32 302.963 103.224C300.488 99.0427 299.251 94.264 299.251 88.888V52.792H318.835V88.632C318.835 90.7653 319.176 92.6 319.859 94.136C320.627 95.672 321.736 96.8667 323.187 97.72C324.638 98.5733 326.387 99 328.435 99C331.336 99 333.64 98.104 335.347 96.312C337.054 94.4347 337.907 91.8747 337.907 88.632V52.792H357.491V88.76C357.491 94.2213 356.254 99.0427 353.779 103.224C351.304 107.32 347.891 110.563 343.539 112.952C339.187 115.256 334.152 116.408 328.435 116.408ZM396.283 116.28C390.395 116.28 385.147 114.872 380.539 112.056C376.016 109.24 372.432 105.4 369.787 100.536C367.227 95.672 365.947 90.1253 365.947 83.896C365.947 77.6667 367.227 72.12 369.787 67.256C372.432 62.392 376.016 58.552 380.539 55.736C385.147 52.92 390.395 51.512 396.283 51.512C400.55 51.512 404.39 52.3227 407.803 53.944C411.302 55.5653 414.16 57.8267 416.379 60.728C418.683 63.544 419.963 66.7867 420.219 70.456V96.696C419.963 100.365 418.726 103.693 416.507 106.68C414.288 109.581 411.43 111.928 407.931 113.72C404.432 115.427 400.55 116.28 396.283 116.28ZM399.739 98.616C402.555 98.616 404.987 98.0187 407.035 96.824C409.083 95.544 410.704 93.7947 411.899 91.576C413.094 89.3573 413.691 86.7973 413.691 83.896C413.691 80.9947 413.094 78.4773 411.899 76.344C410.79 74.1253 409.168 72.376 407.035 71.096C404.987 69.816 402.598 69.176 399.867 69.176C397.136 69.176 394.704 69.816 392.571 71.096C390.523 72.376 388.859 74.1253 387.579 76.344C386.384 78.5627 385.787 81.08 385.787 83.896C385.787 86.712 386.384 89.2293 387.579 91.448C388.774 93.6667 390.438 95.416 392.571 96.696C394.704 97.976 397.094 98.616 399.739 98.616ZM432.123 115H412.923V98.232L415.867 83.128L412.539 68.024V22.072H432.123V115ZM468.568 116.536C464.899 116.536 461.272 116.067 457.688 115.128C454.189 114.189 450.904 112.867 447.832 111.16C444.845 109.368 442.285 107.32 440.152 105.016L451.288 93.752C453.336 95.9707 455.768 97.72 458.584 99C461.4 100.195 464.472 100.792 467.8 100.792C470.104 100.792 471.853 100.451 473.048 99.768C474.328 99.0853 474.968 98.1467 474.968 96.952C474.968 95.416 474.2 94.264 472.664 93.496C471.213 92.6427 469.336 91.9173 467.032 91.32C464.728 90.6373 462.296 89.912 459.736 89.144C457.176 88.376 454.744 87.3093 452.44 85.944C450.136 84.5787 448.259 82.7013 446.808 80.312C445.357 77.8373 444.632 74.7227 444.632 70.968C444.632 66.9573 445.656 63.5013 447.704 60.6C449.752 57.6133 452.653 55.2667 456.408 53.56C460.163 51.8533 464.557 51 469.592 51C474.883 51 479.747 51.9387 484.184 53.816C488.707 55.608 492.376 58.296 495.192 61.88L484.056 73.144C482.093 70.84 479.875 69.2187 477.4 68.28C475.011 67.3413 472.664 66.872 470.36 66.872C468.141 66.872 466.477 67.2133 465.368 67.896C464.259 68.4933 463.704 69.3893 463.704 70.584C463.704 71.864 464.429 72.888 465.88 73.656C467.331 74.424 469.208 75.1067 471.512 75.704C473.816 76.3013 476.248 77.0267 478.808 77.88C481.368 78.7333 483.8 79.8853 486.104 81.336C488.408 82.7867 490.285 84.7493 491.736 87.224C493.187 89.6133 493.912 92.7707 493.912 96.696C493.912 102.755 491.608 107.576 487 111.16C482.477 114.744 476.333 116.536 468.568 116.536ZM527.193 116.536C523.524 116.536 519.897 116.067 516.313 115.128C512.814 114.189 509.529 112.867 506.457 111.16C503.47 109.368 500.91 107.32 498.777 105.016L509.913 93.752C511.961 95.9707 514.393 97.72 517.209 99C520.025 100.195 523.097 100.792 526.425 100.792C528.729 100.792 530.478 100.451 531.673 99.768C532.953 99.0853 533.593 98.1467 533.593 96.952C533.593 95.416 532.825 94.264 531.289 93.496C529.838 92.6427 527.961 91.9173 525.657 91.32C523.353 90.6373 520.921 89.912 518.361 89.144C515.801 88.376 513.369 87.3093 511.065 85.944C508.761 84.5787 506.884 82.7013 505.433 80.312C503.982 77.8373 503.257 74.7227 503.257 70.968C503.257 66.9573 504.281 63.5013 506.329 60.6C508.377 57.6133 511.278 55.2667 515.033 53.56C518.788 51.8533 523.182 51 528.217 51C533.508 51 538.372 51.9387 542.809 53.816C547.332 55.608 551.001 58.296 553.817 61.88L542.681 73.144C540.718 70.84 538.5 69.2187 536.025 68.28C533.636 67.3413 531.289 66.872 528.985 66.872C526.766 66.872 525.102 67.2133 523.993 67.896C522.884 68.4933 522.329 69.3893 522.329 70.584C522.329 71.864 523.054 72.888 524.505 73.656C525.956 74.424 527.833 75.1067 530.137 75.704C532.441 76.3013 534.873 77.0267 537.433 77.88C539.993 78.7333 542.425 79.8853 544.729 81.336C547.033 82.7867 548.91 84.7493 550.361 87.224C551.812 89.6133 552.537 92.7707 552.537 96.696C552.537 102.755 550.233 107.576 545.625 111.16C541.102 114.744 534.958 116.536 527.193 116.536ZM611.857 115L582.801 24.632H602.769L624.017 94.136H616.209L636.945 24.632H652.689L673.425 94.136H665.745L686.865 24.632H706.705L677.649 115H661.905L641.041 45.496H648.465L627.601 115H611.857ZM737.739 116.408C731.339 116.408 725.536 115 720.331 112.184C715.211 109.283 711.158 105.357 708.171 100.408C705.184 95.4587 703.691 89.912 703.691 83.768C703.691 77.624 705.184 72.12 708.171 67.256C711.158 62.392 715.211 58.552 720.331 55.736C725.451 52.8347 731.254 51.384 737.739 51.384C744.224 51.384 750.027 52.792 755.147 55.608C760.267 58.424 764.32 62.3067 767.307 67.256C770.294 72.12 771.787 77.624 771.787 83.768C771.787 89.912 770.294 95.4587 767.307 100.408C764.32 105.357 760.267 109.283 755.147 112.184C750.027 115 744.224 116.408 737.739 116.408ZM737.739 98.616C740.555 98.616 743.03 98.0187 745.163 96.824C747.296 95.544 748.918 93.7947 750.027 91.576C751.222 89.272 751.819 86.6693 751.819 83.768C751.819 80.8667 751.222 78.3493 750.027 76.216C748.832 73.9973 747.168 72.2907 745.035 71.096C742.987 69.816 740.555 69.176 737.739 69.176C735.008 69.176 732.576 69.816 730.443 71.096C728.31 72.2907 726.646 73.9973 725.451 76.216C724.256 78.4347 723.659 80.9947 723.659 83.896C723.659 86.712 724.256 89.272 725.451 91.576C726.646 93.7947 728.31 95.544 730.443 96.824C732.576 98.0187 735.008 98.616 737.739 98.616ZM781.537 115V52.792H801.121V115H781.537ZM801.121 80.824L792.929 74.424C794.55 67.1707 797.281 61.5387 801.121 57.528C804.961 53.5173 810.294 51.512 817.121 51.512C820.108 51.512 822.71 51.9813 824.929 52.92C827.233 53.7733 829.238 55.1387 830.945 57.016L819.297 71.736C818.444 70.7973 817.377 70.072 816.097 69.56C814.817 69.048 813.366 68.792 811.745 68.792C808.502 68.792 805.9 69.816 803.937 71.864C802.06 73.8267 801.121 76.8133 801.121 80.824ZM875.97 115L854.21 82.744L875.842 52.792H897.73L871.618 86.456L872.258 78.392L899.01 115H875.97ZM836.162 115V22.072H855.746V115H836.162ZM925.068 116.536C921.399 116.536 917.772 116.067 914.188 115.128C910.689 114.189 907.404 112.867 904.332 111.16C901.345 109.368 898.785 107.32 896.652 105.016L907.788 93.752C909.836 95.9707 912.268 97.72 915.084 99C917.9 100.195 920.972 100.792 924.3 100.792C926.604 100.792 928.353 100.451 929.548 99.768C930.828 99.0853 931.468 98.1467 931.468 96.952C931.468 95.416 930.7 94.264 929.164 93.496C927.713 92.6427 925.836 91.9173 923.532 91.32C921.228 90.6373 918.796 89.912 916.236 89.144C913.676 88.376 911.244 87.3093 908.94 85.944C906.636 84.5787 904.759 82.7013 903.308 80.312C901.857 77.8373 901.132 74.7227 901.132 70.968C901.132 66.9573 902.156 63.5013 904.204 60.6C906.252 57.6133 909.153 55.2667 912.908 53.56C916.663 51.8533 921.057 51 926.092 51C931.383 51 936.247 51.9387 940.684 53.816C945.207 55.608 948.876 58.296 951.692 61.88L940.556 73.144C938.593 70.84 936.375 69.2187 933.9 68.28C931.511 67.3413 929.164 66.872 926.86 66.872C924.641 66.872 922.977 67.2133 921.868 67.896C920.759 68.4933 920.204 69.3893 920.204 70.584C920.204 71.864 920.929 72.888 922.38 73.656C923.831 74.424 925.708 75.1067 928.012 75.704C930.316 76.3013 932.748 77.0267 935.308 77.88C937.868 78.7333 940.3 79.8853 942.604 81.336C944.908 82.7867 946.785 84.7493 948.236 87.224C949.687 89.6133 950.412 92.7707 950.412 96.696C950.412 102.755 948.108 107.576 943.5 111.16C938.977 114.744 932.833 116.536 925.068 116.536Z"/>
</mask>
<path d="M-70.296 115H-71.296V116H-70.296V115ZM-70.296 24.632V23.632H-71.296V24.632H-70.296ZM-50.2 24.632H-49.2V23.632H-50.2V24.632ZM-50.2 115V116H-49.2V115H-50.2ZM-14.36 115H-15.36V116H-14.36V115ZM-14.36 24.632V23.632H-15.36V24.632H-14.36ZM5.86401 24.632H6.86401V23.632H5.86401V24.632ZM5.86401 115V116H6.86401V115H5.86401ZM-58.264 77.24H-59.264V78.24H-58.264V77.24ZM-58.264 59.832V58.832H-59.264V59.832H-58.264ZM-7.70399 59.832H-6.70399V58.832H-7.70399V59.832ZM-7.70399 77.24V78.24H-6.70399V77.24H-7.70399ZM-69.296 115V24.632H-71.296V115H-69.296ZM-70.296 25.632H-50.2V23.632H-70.296V25.632ZM-51.2 24.632V115H-49.2V24.632H-51.2ZM-50.2 114H-70.296V116H-50.2V114ZM-13.36 115V24.632H-15.36V115H-13.36ZM-14.36 25.632H5.86401V23.632H-14.36V25.632ZM4.86401 24.632V115H6.86401V24.632H4.86401ZM5.86401 114H-14.36V116H5.86401V114ZM-57.264 77.24V59.832H-59.264V77.24H-57.264ZM-58.264 60.832H-7.70399V58.832H-58.264V60.832ZM-8.70399 59.832V77.24H-6.70399V59.832H-8.70399ZM-7.70399 76.24H-58.264V78.24H-7.70399V76.24ZM33.956 112.184L33.463 113.054L33.4715 113.059L33.4802 113.064L33.956 112.184ZM21.796 100.408L22.6522 99.8913L21.796 100.408ZM21.796 67.256L20.9438 66.7327L21.796 67.256ZM33.956 55.736L34.438 56.6123L34.449 56.606L33.956 55.736ZM80.932 67.256L80.0758 67.7727L80.0798 67.7793L80.932 67.256ZM80.932 100.408L81.7882 100.925L80.932 100.408ZM68.772 112.184L69.254 113.06L69.265 113.054L68.772 112.184ZM58.788 96.824L59.2766 97.6965L59.2897 97.6892L59.3025 97.6815L58.788 96.824ZM63.652 91.576L62.7643 91.1157L62.7609 91.1222L62.7576 91.1288L63.652 91.576ZM63.652 76.216L62.7715 76.6901L62.7755 76.6974L62.7795 76.7046L63.652 76.216ZM58.66 71.096L58.13 71.944L58.1504 71.9567L58.1714 71.9685L58.66 71.096ZM44.068 71.096L44.5566 71.9685L44.5697 71.9612L44.5825 71.9535L44.068 71.096ZM39.076 76.216L39.9565 76.6901L39.076 76.216ZM39.076 91.576L38.1882 92.0363L38.1918 92.0432L38.1955 92.0501L39.076 91.576ZM44.068 96.824L43.5535 97.6815L43.5663 97.6892L43.5794 97.6965L44.068 96.824ZM51.364 115.408C45.1163 115.408 39.4793 114.035 34.4318 111.304L33.4802 113.064C38.8434 115.965 44.8117 117.408 51.364 117.408V115.408ZM34.449 111.314C29.4756 108.496 25.5485 104.691 22.6522 99.8913L20.9398 100.925C24.0169 106.024 28.1964 110.07 33.463 113.054L34.449 111.314ZM22.6522 99.8913C19.7656 95.1078 18.316 89.7418 18.316 83.768H16.316C16.316 90.0822 17.8531 95.8095 20.9398 100.925L22.6522 99.8913ZM18.316 83.768C18.316 77.7941 19.7656 72.4738 22.6482 67.7793L20.9438 66.7327C17.8531 71.7662 16.316 77.4539 16.316 83.768H18.316ZM22.6482 67.7793C25.5419 63.0667 29.4661 59.3467 34.4379 56.6122L33.4741 54.8598C28.2059 57.7573 24.0235 61.7173 20.9438 66.7327L22.6482 67.7793ZM34.449 56.606C39.4037 53.7984 45.0334 52.384 51.364 52.384V50.384C44.7239 50.384 38.7483 51.871 33.463 54.866L34.449 56.606ZM51.364 52.384C57.6997 52.384 63.3334 53.7581 68.2901 56.4842L69.2539 54.7318C63.9706 51.8259 57.9989 50.384 51.364 50.384V52.384ZM68.2901 56.4842C73.2576 59.2164 77.1811 62.9757 80.0758 67.7727L81.7882 66.7393C78.7095 61.6376 74.5264 57.6316 69.2539 54.7318L68.2901 56.4842ZM80.0798 67.7793C82.9624 72.4738 84.412 77.7941 84.412 83.768H86.412C86.412 77.4539 84.8749 71.7662 81.7842 66.7327L80.0798 67.7793ZM84.412 83.768C84.412 89.7418 82.9624 95.1078 80.0758 99.8913L81.7882 100.925C84.8749 95.8095 86.412 90.0822 86.412 83.768H84.412ZM80.0758 99.8913C77.1795 104.691 73.2524 108.496 68.279 111.314L69.265 113.054C74.5316 110.07 78.7112 106.024 81.7882 100.925L80.0758 99.8913ZM68.2901 111.308C63.3334 114.034 57.6997 115.408 51.364 115.408V117.408C57.9989 117.408 63.9706 115.966 69.2539 113.06L68.2901 111.308ZM51.364 99.616C54.3249 99.616 56.9727 98.9867 59.2766 97.6965L58.2994 95.9515C56.3367 97.0506 54.0352 97.616 51.364 97.616V99.616ZM59.3025 97.6815C61.5984 96.3039 63.3518 94.4125 64.5464 92.0232L62.7576 91.1288C61.7336 93.1768 60.2443 94.784 58.2735 95.9665L59.3025 97.6815ZM64.5397 92.0363C65.8165 89.574 66.444 86.8104 66.444 83.768H64.444C64.444 86.5283 63.8768 88.97 62.7643 91.1157L64.5397 92.0363ZM66.444 83.768C66.444 80.7276 65.8171 78.0356 64.5245 75.7274L62.7795 76.7046C63.8762 78.663 64.444 81.0058 64.444 83.768H66.444ZM64.5325 75.7419C63.2506 73.3613 61.453 71.514 59.1486 70.2235L58.1714 71.9685C60.1336 73.0674 61.6641 74.6334 62.7715 76.6901L64.5325 75.7419ZM59.19 70.248C56.9582 68.8531 54.3358 68.176 51.364 68.176V70.176C54.0242 70.176 56.2658 70.7789 58.13 71.944L59.19 70.248ZM51.364 68.176C48.4703 68.176 45.8572 68.8563 43.5535 70.2385L44.5825 71.9535C46.5455 70.7757 48.7963 70.176 51.364 70.176V68.176ZM43.5794 70.2235C41.275 71.514 39.4774 73.3613 38.1955 75.7419L39.9565 76.6901C41.0639 74.6334 42.5944 73.0674 44.5566 71.9685L43.5794 70.2235ZM38.1955 75.7419C36.9112 78.127 36.284 80.8544 36.284 83.896H38.284C38.284 81.1349 38.8514 78.7423 39.9565 76.6901L38.1955 75.7419ZM36.284 83.896C36.284 86.8583 36.9137 89.5782 38.1882 92.0363L39.9638 91.1157C38.849 88.9658 38.284 86.5657 38.284 83.896H36.284ZM38.1955 92.0501C39.4743 94.425 41.2638 96.3077 43.5535 97.6815L44.5825 95.9665C42.6055 94.7803 41.067 93.1643 39.9565 91.1019L38.1955 92.0501ZM43.5794 97.6965C45.8788 98.9842 48.4826 99.616 51.364 99.616V97.616C48.784 97.616 46.5238 97.0531 44.5566 95.9515L43.5794 97.6965ZM109.144 115L108.199 115.327L108.432 116H109.144V115ZM87.64 52.792V51.792H86.2363L86.6949 53.1187L87.64 52.792ZM106.84 52.792L107.799 52.5094L107.588 51.792H106.84V52.792ZM120.152 97.976L120.175 98.9757L121.48 98.9461L121.111 97.6934L120.152 97.976ZM114.52 98.104L113.569 97.795L113.133 99.1358L114.543 99.1037L114.52 98.104ZM129.24 52.792V51.792H128.513L128.289 52.483L129.24 52.792ZM145.112 52.792L146.062 52.4806L145.837 51.792H145.112V52.792ZM159.96 98.104L159.938 99.1038L161.35 99.1351L160.91 97.7926L159.96 98.104ZM154.2 97.976L153.242 97.6909L152.868 98.9466L154.178 98.9758L154.2 97.976ZM167.64 52.792V51.792H166.894L166.682 52.5069L167.64 52.792ZM186.84 52.792L187.785 53.1187L188.244 51.792H186.84V52.792ZM165.336 115V116H166.048L166.281 115.327L165.336 115ZM149.336 115L148.388 115.319L148.617 116H149.336V115ZM134.872 71.992V70.992H133.481L133.924 72.3108L134.872 71.992ZM139.736 71.992L140.682 72.3158L141.135 70.992H139.736V71.992ZM125.016 115V116H125.731L125.962 115.324L125.016 115ZM110.089 114.673L88.5851 52.4653L86.6949 53.1187L108.199 115.327L110.089 114.673ZM87.64 53.792H106.84V51.792H87.64V53.792ZM105.881 53.0746L119.193 98.2586L121.111 97.6934L107.799 52.5094L105.881 53.0746ZM120.129 96.9763L114.497 97.1043L114.543 99.1037L120.175 98.9757L120.129 96.9763ZM115.471 98.413L130.191 53.101L128.289 52.483L113.569 97.795L115.471 98.413ZM129.24 53.792H145.112V51.792H129.24V53.792ZM144.162 53.1034L159.01 98.4154L160.91 97.7926L146.062 52.4806L144.162 53.1034ZM159.982 97.1042L154.222 96.9762L154.178 98.9758L159.938 99.1038L159.982 97.1042ZM155.159 98.2611L168.599 53.0771L166.682 52.5069L153.242 97.6909L155.159 98.2611ZM167.64 53.792H186.84V51.792H167.64V53.792ZM185.895 52.4653L164.391 114.673L166.281 115.327L187.785 53.1187L185.895 52.4653ZM165.336 114H149.336V116H165.336V114ZM150.284 114.681L135.82 71.6732L133.924 72.3108L148.388 115.319L150.284 114.681ZM134.872 72.992H139.736V70.992H134.872V72.992ZM138.79 71.6682L124.07 114.676L125.962 115.324L140.682 72.3158L138.79 71.6682ZM125.016 114H109.144V116H125.016V114ZM235.939 115H234.939V116H235.939V115ZM235.939 99.384V98.384H234.939V99.384H235.939ZM266.403 95.928L267.123 96.6216L266.403 95.928ZM263.843 77.112L263.347 77.9802L263.355 77.9852L263.364 77.9899L263.843 77.112ZM235.939 75.576H234.939V76.576H235.939V75.576ZM235.939 60.344V59.344H234.939V60.344H235.939ZM263.587 57.912L264.208 58.696L264.218 58.6883L264.227 58.6802L263.587 57.912ZM263.587 42.808L262.947 43.5762L262.956 43.5843L262.966 43.592L263.587 42.808ZM235.939 40.248H234.939V41.248H235.939V40.248ZM235.939 24.632V23.632H234.939V24.632H235.939ZM274.083 27.832L273.613 28.7149L273.621 28.7189L274.083 27.832ZM283.427 36.408L282.568 36.9195V36.9195L283.427 36.408ZM281.251 62.392L281.982 63.0743L281.251 62.392ZM265.379 70.328L264.382 70.2527L264.282 71.5767L265.582 71.3072L265.379 70.328ZM265.891 63.544L266.079 62.5618L264.978 62.3516L264.894 63.4687L265.891 63.544ZM283.427 72.376L282.692 73.0543L282.699 73.0618L283.427 72.376ZM285.987 102.2L285.136 101.675L285.133 101.68L285.987 102.2ZM275.491 111.544L275.044 110.65L275.037 110.653L275.491 111.544ZM220.579 115H219.579V116H220.579V115ZM220.579 24.632V23.632H219.579V24.632H220.579ZM240.419 24.632H241.419V23.632H240.419V24.632ZM240.419 115V116H241.419V115H240.419ZM236.939 115V99.384H234.939V115H236.939ZM235.939 100.384H257.187V98.384H235.939V100.384ZM257.187 100.384C261.318 100.384 264.675 99.1643 267.123 96.6216L265.683 95.2344C263.694 97.2997 260.907 98.384 257.187 98.384V100.384ZM267.123 96.6216C269.529 94.1231 270.731 91.0551 270.731 87.48H268.731C268.731 90.5609 267.714 93.1249 265.683 95.2344L267.123 96.6216ZM270.731 87.48C270.731 85.0227 270.183 82.8 269.063 80.8399L267.327 81.8321C268.255 83.456 268.731 85.3293 268.731 87.48H270.731ZM269.063 80.8399C267.944 78.881 266.356 77.3435 264.322 76.2341L263.364 77.9899C265.085 78.9285 266.398 80.207 267.327 81.8321L269.063 80.8399ZM264.339 76.2438C262.359 75.1124 259.958 74.576 257.187 74.576V76.576C259.706 76.576 261.743 77.0636 263.347 77.9802L264.339 76.2438ZM257.187 74.576H235.939V76.576H257.187V74.576ZM236.939 75.576V60.344H234.939V75.576H236.939ZM235.939 61.344H255.523V59.344H235.939V61.344ZM255.523 61.344C259.014 61.344 261.939 60.4917 264.208 58.696L262.966 57.128C261.139 58.5749 258.688 59.344 255.523 59.344V61.344ZM264.227 58.6802C266.564 56.7327 267.659 53.8523 267.659 50.232H265.659C265.659 53.4384 264.706 55.678 262.947 57.1438L264.227 58.6802ZM267.659 50.232C267.659 46.6898 266.559 43.8852 264.208 42.024L262.966 43.592C264.711 44.9734 265.659 47.1182 265.659 50.232H267.659ZM264.227 42.0398C261.958 40.1491 259.025 39.248 255.523 39.248V41.248C258.677 41.248 261.12 42.0536 262.947 43.5762L264.227 42.0398ZM255.523 39.248H235.939V41.248H255.523V39.248ZM236.939 40.248V24.632H234.939V40.248H236.939ZM235.939 25.632H259.363V23.632H235.939V25.632ZM259.363 25.632C265.046 25.632 269.782 26.6768 273.613 28.7149L274.553 26.9491C270.363 24.7205 265.285 23.632 259.363 23.632V25.632ZM273.621 28.7189C277.571 30.7759 280.539 33.5119 282.568 36.9195L284.286 35.8965C282.048 32.1361 278.787 29.1547 274.545 26.9451L273.621 28.7189ZM282.568 36.9195C284.605 40.3419 285.627 44.1319 285.627 48.312H287.627C287.627 43.7881 286.516 39.6421 284.286 35.8965L282.568 36.9195ZM285.627 48.312C285.627 53.621 283.921 58.0659 280.52 61.7097L281.982 63.0743C285.749 59.0381 287.627 54.0964 287.627 48.312H285.627ZM280.52 61.7097C277.12 65.3527 272.042 67.9253 265.176 69.3488L265.582 71.3072C272.71 69.8294 278.214 67.1113 281.982 63.0743L280.52 61.7097ZM266.376 70.4033L266.888 63.6193L264.894 63.4687L264.382 70.2527L266.376 70.4033ZM265.703 64.5262C273.147 65.9481 278.778 68.8134 282.692 73.0543L284.162 71.6977C279.884 67.0639 273.824 64.0413 266.079 62.5618L265.703 64.5262ZM282.699 73.0618C286.694 77.301 288.699 82.5118 288.699 88.76H290.699C290.699 82.0376 288.523 76.3257 284.155 71.6902L282.699 73.0618ZM288.699 88.76C288.699 93.5336 287.508 97.8302 285.136 101.675L286.838 102.725C289.415 98.5485 290.699 93.885 290.699 88.76H288.699ZM285.133 101.68C282.853 105.426 279.505 108.419 275.044 110.65L275.938 112.438C280.693 110.061 284.343 106.825 286.841 102.72L285.133 101.68ZM275.037 110.653C270.687 112.869 265.389 114 259.107 114V116C265.625 116 271.25 114.827 275.945 112.435L275.037 110.653ZM259.107 114H235.939V116H259.107V114ZM221.579 115V24.632H219.579V115H221.579ZM220.579 25.632H240.419V23.632H220.579V25.632ZM239.419 24.632V115H241.419V24.632H239.419ZM240.419 114H220.579V116H240.419V114ZM313.203 112.952L312.722 113.829L312.732 113.834L312.742 113.839L313.203 112.952ZM302.963 103.224L302.102 103.733L302.107 103.741L302.963 103.224ZM299.251 52.792V51.792H298.251V52.792H299.251ZM318.835 52.792H319.835V51.792H318.835V52.792ZM319.859 94.136L318.945 94.5421L318.954 94.5629L318.965 94.5832L319.859 94.136ZM323.187 97.72L323.694 96.8581L323.187 97.72ZM335.347 96.312L336.071 97.0017L336.079 96.9933L336.087 96.9847L335.347 96.312ZM337.907 52.792V51.792H336.907V52.792H337.907ZM357.491 52.792H358.491V51.792H357.491V52.792ZM353.779 103.224L354.635 103.741L354.64 103.733L353.779 103.224ZM343.539 112.952L344.007 113.836L344.014 113.832L344.02 113.829L343.539 112.952ZM328.435 115.408C322.855 115.408 317.94 114.285 313.664 112.065L312.742 113.839C317.341 116.227 322.58 117.408 328.435 117.408V115.408ZM313.684 112.075C309.481 109.768 306.199 106.646 303.819 102.707L302.107 103.741C304.676 107.994 308.221 111.358 312.722 113.829L313.684 112.075ZM303.824 102.715C301.45 98.7036 300.251 94.1044 300.251 88.888H298.251C298.251 94.4236 299.527 99.3817 302.102 103.733L303.824 102.715ZM300.251 88.888V52.792H298.251V88.888H300.251ZM299.251 53.792H318.835V51.792H299.251V53.792ZM317.835 52.792V88.632H319.835V52.792H317.835ZM317.835 88.632C317.835 90.8689 318.193 92.8488 318.945 94.5421L320.773 93.7299C320.16 92.3512 319.835 90.6618 319.835 88.632H317.835ZM318.965 94.5832C319.817 96.2882 321.059 97.6286 322.68 98.5819L323.694 96.8581C322.413 96.1048 321.437 95.0558 320.753 93.6888L318.965 94.5832ZM322.68 98.5819C324.314 99.5434 326.247 100 328.435 100V98C326.527 98 324.961 97.6033 323.694 96.8581L322.68 98.5819ZM328.435 100C331.559 100 334.143 99.0261 336.071 97.0017L334.623 95.6223C333.138 97.1819 331.114 98 328.435 98V100ZM336.087 96.9847C338.004 94.8764 338.907 92.0519 338.907 88.632H336.907C336.907 91.6974 336.104 93.9929 334.607 95.6393L336.087 96.9847ZM338.907 88.632V52.792H336.907V88.632H338.907ZM337.907 53.792H357.491V51.792H337.907V53.792ZM356.491 52.792V88.76H358.491V52.792H356.491ZM356.491 88.76C356.491 94.0649 355.291 98.706 352.918 102.715L354.64 103.733C357.216 99.3793 358.491 94.3778 358.491 88.76H356.491ZM352.923 102.707C350.543 106.646 347.261 109.768 343.058 112.075L344.02 113.829C348.521 111.358 352.066 107.994 354.635 103.741L352.923 102.707ZM343.071 112.068C338.885 114.284 334.016 115.408 328.435 115.408V117.408C334.289 117.408 339.489 116.228 344.007 113.836L343.071 112.068ZM380.539 112.056L380.01 112.905L380.018 112.909L380.539 112.056ZM369.787 100.536L368.902 101.002L368.909 101.014L369.787 100.536ZM369.787 67.256L368.908 66.7782L368.902 66.7903L369.787 67.256ZM380.539 55.736L380.018 54.8827L380.01 54.8871L380.539 55.736ZM407.803 53.944L407.374 54.8473L407.383 54.8513L407.803 53.944ZM416.379 60.728L415.585 61.3354L415.595 61.3485L415.605 61.3612L416.379 60.728ZM420.219 70.456H421.219V70.4212L421.217 70.3864L420.219 70.456ZM420.219 96.696L421.217 96.7656L421.219 96.7308V96.696H420.219ZM416.507 106.68L417.301 107.288L417.31 107.276L416.507 106.68ZM407.931 113.72L408.369 114.619L408.378 114.614L408.387 114.61L407.931 113.72ZM407.035 96.824L407.539 97.6878L407.552 97.6801L407.565 97.672L407.035 96.824ZM411.899 91.576L411.019 91.1019L411.899 91.576ZM411.899 76.344L411.005 76.7912L411.015 76.8122L411.026 76.8326L411.899 76.344ZM407.035 71.096L406.505 71.944L406.513 71.9488L406.521 71.9535L407.035 71.096ZM392.571 71.096L392.057 70.2385L392.049 70.2432L392.041 70.248L392.571 71.096ZM387.579 76.344L386.713 75.8443L386.705 75.857L386.699 75.8699L387.579 76.344ZM387.579 91.448L386.699 91.9221L387.579 91.448ZM432.123 115V116H433.123V115H432.123ZM412.923 115H411.923V116H412.923V115ZM412.923 98.232L411.941 98.0407L411.923 98.1355V98.232H412.923ZM415.867 83.128L416.849 83.3193L416.888 83.1156L416.844 82.9128L415.867 83.128ZM412.539 68.024H411.539V68.1329L411.562 68.2392L412.539 68.024ZM412.539 22.072V21.072H411.539V22.072H412.539ZM432.123 22.072H433.123V21.072H432.123V22.072ZM396.283 115.28C390.562 115.28 385.497 113.914 381.06 111.203L380.018 112.909C384.797 115.83 390.228 117.28 396.283 117.28V115.28ZM381.068 111.207C376.698 108.486 373.232 104.777 370.665 100.058L368.909 101.014C371.633 106.023 375.335 109.994 380.01 112.905L381.068 111.207ZM370.672 100.07C368.197 95.368 366.947 89.9849 366.947 83.896H364.947C364.947 90.2658 366.257 95.976 368.902 101.002L370.672 100.07ZM366.947 83.896C366.947 77.8071 368.197 72.424 370.672 67.7217L368.902 66.7903C366.257 71.816 364.947 77.5262 364.947 83.896H366.947ZM370.665 67.7338C373.232 63.0154 376.698 59.3059 381.068 56.5849L380.01 54.8871C375.335 57.7981 371.633 61.7686 368.909 66.7782L370.665 67.7338ZM381.06 56.5893C385.497 53.8778 390.562 52.512 396.283 52.512V50.512C390.228 50.512 384.797 51.9622 380.018 54.8827L381.06 56.5893ZM396.283 52.512C400.421 52.512 404.111 53.2974 407.374 54.8473L408.232 53.0407C404.668 51.3479 400.679 50.512 396.283 50.512V52.512ZM407.383 54.8513C410.743 56.4084 413.47 58.5701 415.585 61.3354L417.173 60.1205C414.851 57.0832 411.861 54.7223 408.223 53.0367L407.383 54.8513ZM415.605 61.3612C417.776 64.0152 418.98 67.0603 419.221 70.5256L421.217 70.3864C420.946 66.513 419.59 63.0728 417.153 60.0948L415.605 61.3612ZM419.219 70.456V96.696H421.219V70.456H419.219ZM419.221 96.6264C418.979 100.103 417.81 103.248 415.704 106.084L417.31 107.276C419.641 104.138 420.947 100.628 421.217 96.7656L419.221 96.6264ZM415.713 106.073C413.591 108.847 410.852 111.101 407.475 112.83L408.387 114.61C412.008 112.755 414.986 110.316 417.301 107.287L415.713 106.073ZM407.493 112.821C404.143 114.455 400.413 115.28 396.283 115.28V117.28C400.687 117.28 404.721 116.398 408.369 114.619L407.493 112.821ZM399.739 99.616C402.699 99.616 405.311 98.9871 407.539 97.6878L406.531 95.9602C404.663 97.0502 402.411 97.616 399.739 97.616V99.616ZM407.565 97.672C409.767 96.2959 411.506 94.4148 412.779 92.0501L411.019 91.1019C409.902 93.1745 408.399 94.7921 406.505 95.976L407.565 97.672ZM412.779 92.0501C414.064 89.665 414.691 86.9376 414.691 83.896H412.691C412.691 86.6571 412.124 89.0497 411.019 91.1019L412.779 92.0501ZM414.691 83.896C414.691 80.8556 414.064 78.1636 412.772 75.8554L411.026 76.8326C412.123 78.791 412.691 81.1338 412.691 83.896H414.691ZM412.793 75.8968C411.599 73.5075 409.845 71.6161 407.549 70.2385L406.521 71.9535C408.491 73.1359 409.981 74.7432 411.005 76.7912L412.793 75.8968ZM407.565 70.248C405.338 68.8561 402.76 68.176 399.867 68.176V70.176C402.435 70.176 404.636 70.7759 406.505 71.944L407.565 70.248ZM399.867 68.176C396.973 68.176 394.36 68.8563 392.057 70.2385L393.086 71.9535C395.048 70.7757 397.299 70.176 399.867 70.176V68.176ZM392.041 70.248C389.846 71.6201 388.07 73.4926 386.713 75.8443L388.445 76.8437C389.648 74.7581 391.2 73.1319 393.101 71.944L392.041 70.248ZM386.699 75.8699C385.417 78.2507 384.787 80.9343 384.787 83.896H386.787C386.787 81.2257 387.352 78.8746 388.459 76.8181L386.699 75.8699ZM384.787 83.896C384.787 86.8577 385.417 89.5413 386.699 91.9221L388.459 90.9739C387.352 88.9174 386.787 86.5663 386.787 83.896H384.787ZM386.699 91.9221C387.977 94.297 389.767 96.1797 392.057 97.5535L393.086 95.8385C391.108 94.6523 389.57 93.0363 388.459 90.9739L386.699 91.9221ZM392.057 97.5535C394.355 98.9327 396.924 99.616 399.739 99.616V97.616C397.263 97.616 395.053 97.0193 393.086 95.8385L392.057 97.5535ZM432.123 114H412.923V116H432.123V114ZM413.923 115V98.232H411.923V115H413.923ZM413.905 98.4233L416.849 83.3193L414.885 82.9367L411.941 98.0407L413.905 98.4233ZM416.844 82.9128L413.516 67.8088L411.562 68.2392L414.89 83.3432L416.844 82.9128ZM413.539 68.024V22.072H411.539V68.024H413.539ZM412.539 23.072H432.123V21.072H412.539V23.072ZM431.123 22.072V115H433.123V22.072H431.123ZM457.688 115.128L457.429 116.094L457.435 116.095L457.688 115.128ZM447.832 111.16L447.318 112.017L447.332 112.026L447.346 112.034L447.832 111.16ZM440.152 105.016L439.441 104.313L438.768 104.993L439.418 105.695L440.152 105.016ZM451.288 93.752L452.023 93.0737L451.313 92.3046L450.577 93.0489L451.288 93.752ZM458.584 99L458.17 99.9104L458.182 99.9156L458.193 99.9206L458.584 99ZM473.048 99.768L472.577 98.8856L472.565 98.8925L472.552 98.8998L473.048 99.768ZM472.664 93.496L472.157 94.3579L472.186 94.3752L472.217 94.3904L472.664 93.496ZM467.032 91.32L466.748 92.2788L466.764 92.2837L466.781 92.288L467.032 91.32ZM452.44 85.944L452.95 85.0837L452.44 85.944ZM446.808 80.312L445.945 80.8177L445.949 80.8244L445.953 80.831L446.808 80.312ZM447.704 60.6L448.521 61.1767L448.529 61.1655L447.704 60.6ZM456.408 53.56L455.994 52.6496L456.408 53.56ZM484.184 53.816L483.794 54.737L483.805 54.7414L483.816 54.7457L484.184 53.816ZM495.192 61.88L495.903 62.5831L496.523 61.9558L495.978 61.2622L495.192 61.88ZM484.056 73.144L483.295 73.7925L484.001 74.6218L484.767 73.8471L484.056 73.144ZM477.4 68.28L477.034 69.2108L477.045 69.215L477.4 68.28ZM465.368 67.896L465.842 68.7765L465.867 68.7628L465.892 68.7477L465.368 67.896ZM471.512 75.704L471.261 76.672L471.512 75.704ZM478.808 77.88L479.124 76.9313L478.808 77.88ZM486.104 81.336L486.637 80.4898L486.104 81.336ZM491.736 87.224L490.873 87.7297L490.877 87.7364L490.881 87.743L491.736 87.224ZM487 111.16L486.386 110.371L486.379 110.376L487 111.16ZM468.568 115.536C464.985 115.536 461.443 115.078 457.941 114.161L457.435 116.095C461.101 117.055 464.812 117.536 468.568 117.536V115.536ZM457.947 114.162C454.525 113.244 451.316 111.952 448.318 110.286L447.346 112.034C450.492 113.782 453.854 115.135 457.429 116.094L457.947 114.162ZM448.346 110.303C445.432 108.554 442.948 106.564 440.886 104.337L439.418 105.695C441.622 108.076 444.258 110.182 447.318 112.017L448.346 110.303ZM440.863 105.719L451.999 94.4551L450.577 93.0489L439.441 104.313L440.863 105.719ZM450.553 94.4303C452.694 96.7494 455.236 98.5766 458.17 99.9104L458.998 98.0896C456.3 96.8634 453.978 95.192 452.023 93.0737L450.553 94.4303ZM458.193 99.9206C461.143 101.172 464.35 101.792 467.8 101.792V99.792C464.594 99.792 461.656 99.2172 458.975 98.0794L458.193 99.9206ZM467.8 101.792C470.174 101.792 472.128 101.445 473.544 100.636L472.552 98.8998C471.578 99.4561 470.034 99.792 467.8 99.792V101.792ZM473.519 100.65C475.041 99.8384 475.968 98.6018 475.968 96.952H473.968C473.968 97.6916 473.615 98.3323 472.577 98.8856L473.519 100.65ZM475.968 96.952C475.968 96.009 475.729 95.1393 475.224 94.3813C474.723 93.6296 473.998 93.0449 473.111 92.6016L472.217 94.3904C472.866 94.7151 473.293 95.0904 473.56 95.4907C473.823 95.8847 473.968 96.359 473.968 96.952H475.968ZM473.171 92.6341C471.615 91.7187 469.643 90.9638 467.283 90.352L466.781 92.288C469.029 92.8708 470.812 93.5666 472.157 94.3579L473.171 92.6341ZM467.316 90.3612C465.013 89.6789 462.582 88.9539 460.023 88.1862L459.449 90.1018C462.01 90.8701 464.443 91.5958 466.748 92.2788L467.316 90.3612ZM460.023 88.1862C457.541 87.4416 455.184 86.4077 452.95 85.0837L451.93 86.8043C454.304 88.211 456.811 89.3104 459.449 90.1018L460.023 88.1862ZM452.95 85.0837C450.793 83.8058 449.032 82.0483 447.663 79.793L445.953 80.831C447.485 83.3543 449.479 85.3515 451.93 86.8043L452.95 85.0837ZM447.671 79.8063C446.334 77.5254 445.632 74.5984 445.632 70.968H443.632C443.632 74.8469 444.381 78.1493 445.945 80.8177L447.671 79.8063ZM445.632 70.968C445.632 67.1361 446.607 63.8879 448.521 61.1767L446.887 60.0233C444.705 63.1147 443.632 66.7786 443.632 70.968H445.632ZM448.529 61.1655C450.46 58.349 453.209 56.1123 456.822 54.4704L455.994 52.6496C452.097 54.421 449.044 56.8776 446.879 60.0345L448.529 61.1655ZM456.822 54.4704C460.421 52.8343 464.669 52 469.592 52V50C464.445 50 459.904 50.8723 455.994 52.6496L456.822 54.4704ZM469.592 52C474.762 52 479.492 52.9167 483.794 54.737L484.574 52.895C480.001 50.9606 475.003 50 469.592 50V52ZM483.816 54.7457C488.185 56.4771 491.706 59.0623 494.406 62.4978L495.978 61.2622C493.046 57.5297 489.228 54.7389 484.552 52.8863L483.816 54.7457ZM494.481 61.1769L483.345 72.4409L484.767 73.8471L495.903 62.5831L494.481 61.1769ZM484.817 72.4955C482.761 70.0819 480.408 68.3515 477.755 67.345L477.045 69.215C479.341 70.0858 481.425 71.5981 483.295 73.7925L484.817 72.4955ZM477.766 67.3493C475.273 66.37 472.803 65.872 470.36 65.872V67.872C472.525 67.872 474.748 68.3126 477.034 69.2107L477.766 67.3493ZM470.36 65.872C468.071 65.872 466.186 66.2183 464.844 67.0443L465.892 68.7477C466.768 68.2084 468.211 67.872 470.36 67.872V65.872ZM464.894 67.0155C464.215 67.381 463.656 67.866 463.27 68.4896C462.882 69.1161 462.704 69.8262 462.704 70.584H464.704C464.704 70.1471 464.803 69.8119 464.97 69.5424C465.139 69.27 465.411 69.0084 465.842 68.7765L464.894 67.0155ZM462.704 70.584C462.704 72.3429 463.743 73.6559 465.412 74.5398L466.348 72.7722C465.116 72.1201 464.704 71.3851 464.704 70.584H462.704ZM465.412 74.5398C466.955 75.3565 468.912 76.063 471.261 76.672L471.763 74.736C469.504 74.1503 467.707 73.4915 466.348 72.7722L465.412 74.5398ZM471.261 76.672C473.54 77.2629 475.951 77.9816 478.492 78.8287L479.124 76.9313C476.545 76.0717 474.092 75.3397 471.763 74.736L471.261 76.672ZM478.492 78.8287C480.975 79.6564 483.334 80.7739 485.571 82.1822L486.637 80.4898C484.266 78.9968 481.761 77.8102 479.124 76.9313L478.492 78.8287ZM485.571 82.1822C487.732 83.5429 489.499 85.3857 490.873 87.7297L492.599 86.7183C491.071 84.1129 489.084 82.0304 486.637 80.4898L485.571 82.1822ZM490.881 87.743C492.206 89.9249 492.912 92.8831 492.912 96.696H494.912C494.912 92.6582 494.167 89.3018 492.591 86.705L490.881 87.743ZM492.912 96.696C492.912 102.46 490.74 106.984 486.386 110.371L487.614 111.949C492.476 108.168 494.912 103.05 494.912 96.696H492.912ZM486.379 110.376C482.086 113.779 476.186 115.536 468.568 115.536V117.536C476.481 117.536 482.869 115.709 487.621 111.944L486.379 110.376ZM516.313 115.128L516.054 116.094L516.06 116.095L516.313 115.128ZM506.457 111.16L505.943 112.017L505.957 112.026L505.971 112.034L506.457 111.16ZM498.777 105.016L498.066 104.313L497.393 104.993L498.043 105.695L498.777 105.016ZM509.913 93.752L510.648 93.0737L509.938 92.3046L509.202 93.0489L509.913 93.752ZM517.209 99L516.795 99.9104L516.807 99.9156L516.818 99.9206L517.209 99ZM531.673 99.768L531.202 98.8856L531.19 98.8925L531.177 98.8998L531.673 99.768ZM531.289 93.496L530.782 94.3579L530.811 94.3752L530.842 94.3904L531.289 93.496ZM525.657 91.32L525.373 92.2788L525.389 92.2837L525.406 92.288L525.657 91.32ZM511.065 85.944L511.575 85.0837L511.065 85.944ZM505.433 80.312L504.57 80.8177L504.574 80.8244L504.578 80.831L505.433 80.312ZM506.329 60.6L507.146 61.1767L507.154 61.1655L506.329 60.6ZM515.033 53.56L514.619 52.6496L515.033 53.56ZM542.809 53.816L542.419 54.737L542.43 54.7414L542.441 54.7457L542.809 53.816ZM553.817 61.88L554.528 62.5831L555.148 61.9558L554.603 61.2622L553.817 61.88ZM542.681 73.144L541.92 73.7925L542.626 74.6218L543.392 73.8471L542.681 73.144ZM536.025 68.28L535.659 69.2108L535.67 69.215L536.025 68.28ZM523.993 67.896L524.467 68.7765L524.492 68.7628L524.517 68.7477L523.993 67.896ZM530.137 75.704L529.886 76.672L530.137 75.704ZM537.433 77.88L537.749 76.9313L537.433 77.88ZM544.729 81.336L545.262 80.4898L544.729 81.336ZM550.361 87.224L549.498 87.7297L549.502 87.7364L549.506 87.743L550.361 87.224ZM545.625 111.16L545.011 110.371L545.004 110.376L545.625 111.16ZM527.193 115.536C523.61 115.536 520.068 115.078 516.566 114.161L516.06 116.095C519.726 117.055 523.437 117.536 527.193 117.536V115.536ZM516.572 114.162C513.15 113.244 509.941 111.952 506.943 110.286L505.971 112.034C509.117 113.782 512.479 115.135 516.054 116.094L516.572 114.162ZM506.971 110.303C504.057 108.554 501.573 106.564 499.511 104.337L498.043 105.695C500.247 108.076 502.883 110.182 505.943 112.017L506.971 110.303ZM499.488 105.719L510.624 94.4551L509.202 93.0489L498.066 104.313L499.488 105.719ZM509.178 94.4303C511.319 96.7494 513.861 98.5766 516.795 99.9104L517.623 98.0896C514.925 96.8634 512.603 95.192 510.648 93.0737L509.178 94.4303ZM516.818 99.9206C519.768 101.172 522.975 101.792 526.425 101.792V99.792C523.219 99.792 520.281 99.2172 517.6 98.0794L516.818 99.9206ZM526.425 101.792C528.799 101.792 530.753 101.445 532.169 100.636L531.177 98.8998C530.203 99.4561 528.659 99.792 526.425 99.792V101.792ZM532.144 100.65C533.666 99.8384 534.593 98.6018 534.593 96.952H532.593C532.593 97.6916 532.24 98.3323 531.202 98.8856L532.144 100.65ZM534.593 96.952C534.593 96.009 534.354 95.1393 533.849 94.3813C533.348 93.6296 532.623 93.0449 531.736 92.6016L530.842 94.3904C531.491 94.7151 531.918 95.0904 532.185 95.4907C532.448 95.8847 532.593 96.359 532.593 96.952H534.593ZM531.796 92.6341C530.24 91.7187 528.268 90.9638 525.908 90.352L525.406 92.288C527.654 92.8708 529.437 93.5666 530.782 94.3579L531.796 92.6341ZM525.941 90.3612C523.638 89.6789 521.207 88.9539 518.648 88.1862L518.074 90.1018C520.635 90.8701 523.068 91.5958 525.373 92.2788L525.941 90.3612ZM518.648 88.1862C516.166 87.4416 513.809 86.4077 511.575 85.0837L510.555 86.8043C512.929 88.211 515.436 89.3104 518.074 90.1018L518.648 88.1862ZM511.575 85.0837C509.418 83.8058 507.657 82.0483 506.288 79.793L504.578 80.831C506.11 83.3543 508.104 85.3515 510.555 86.8043L511.575 85.0837ZM506.296 79.8063C504.959 77.5254 504.257 74.5984 504.257 70.968H502.257C502.257 74.8469 503.006 78.1493 504.57 80.8177L506.296 79.8063ZM504.257 70.968C504.257 67.1361 505.232 63.8879 507.146 61.1767L505.512 60.0233C503.33 63.1147 502.257 66.7786 502.257 70.968H504.257ZM507.154 61.1655C509.085 58.349 511.834 56.1123 515.447 54.4704L514.619 52.6496C510.722 54.421 507.669 56.8776 505.504 60.0345L507.154 61.1655ZM515.447 54.4704C519.046 52.8343 523.294 52 528.217 52V50C523.07 50 518.529 50.8723 514.619 52.6496L515.447 54.4704ZM528.217 52C533.387 52 538.117 52.9167 542.419 54.737L543.199 52.895C538.626 50.9606 533.628 50 528.217 50V52ZM542.441 54.7457C546.81 56.4771 550.331 59.0623 553.031 62.4978L554.603 61.2622C551.671 57.5297 547.853 54.7389 543.177 52.8863L542.441 54.7457ZM553.106 61.1769L541.97 72.4409L543.392 73.8471L554.528 62.5831L553.106 61.1769ZM543.442 72.4955C541.386 70.0819 539.033 68.3515 536.38 67.345L535.67 69.215C537.966 70.0858 540.05 71.5981 541.92 73.7925L543.442 72.4955ZM536.391 67.3493C533.898 66.37 531.428 65.872 528.985 65.872V67.872C531.15 67.872 533.373 68.3126 535.659 69.2107L536.391 67.3493ZM528.985 65.872C526.696 65.872 524.811 66.2183 523.469 67.0443L524.517 68.7477C525.393 68.2084 526.836 67.872 528.985 67.872V65.872ZM523.519 67.0155C522.84 67.381 522.281 67.866 521.895 68.4896C521.507 69.1161 521.329 69.8262 521.329 70.584H523.329C523.329 70.1471 523.428 69.8119 523.595 69.5424C523.764 69.27 524.036 69.0084 524.467 68.7765L523.519 67.0155ZM521.329 70.584C521.329 72.3429 522.368 73.6559 524.037 74.5398L524.973 72.7722C523.741 72.1201 523.329 71.3851 523.329 70.584H521.329ZM524.037 74.5398C525.58 75.3565 527.537 76.063 529.886 76.672L530.388 74.736C528.129 74.1503 526.332 73.4915 524.973 72.7722L524.037 74.5398ZM529.886 76.672C532.165 77.2629 534.576 77.9816 537.117 78.8287L537.749 76.9313C535.17 76.0717 532.717 75.3397 530.388 74.736L529.886 76.672ZM537.117 78.8287C539.6 79.6564 541.959 80.7739 544.196 82.1822L545.262 80.4898C542.891 78.9968 540.386 77.8102 537.749 76.9313L537.117 78.8287ZM544.196 82.1822C546.357 83.5429 548.124 85.3857 549.498 87.7297L551.224 86.7183C549.696 84.1129 547.709 82.0304 545.262 80.4898L544.196 82.1822ZM549.506 87.743C550.831 89.9249 551.537 92.8831 551.537 96.696H553.537C553.537 92.6582 552.792 89.3018 551.216 86.705L549.506 87.743ZM551.537 96.696C551.537 102.46 549.365 106.984 545.011 110.371L546.239 111.949C551.101 108.168 553.537 103.05 553.537 96.696H551.537ZM545.004 110.376C540.711 113.779 534.811 115.536 527.193 115.536V117.536C535.106 117.536 541.494 115.709 546.246 111.944L545.004 110.376ZM611.857 115L610.905 115.306L611.128 116H611.857V115ZM582.801 24.632V23.632H581.429L581.849 24.9381L582.801 24.632ZM602.769 24.632L603.725 24.3396L603.509 23.632H602.769V24.632ZM624.017 94.136V95.136H625.368L624.973 93.8436L624.017 94.136ZM616.209 94.136L615.251 93.8501L614.867 95.136H616.209V94.136ZM636.945 24.632V23.632H636.2L635.987 24.3461L636.945 24.632ZM652.689 24.632L653.647 24.3461L653.434 23.632H652.689V24.632ZM673.425 94.136V95.136H674.767L674.383 93.8501L673.425 94.136ZM665.745 94.136L664.788 93.8453L664.396 95.136H665.745V94.136ZM686.865 24.632V23.632H686.124L685.908 24.3413L686.865 24.632ZM706.705 24.632L707.657 24.9381L708.077 23.632H706.705V24.632ZM677.649 115V116H678.378L678.601 115.306L677.649 115ZM661.905 115L660.947 115.288L661.161 116H661.905V115ZM641.041 45.496V44.496H639.697L640.083 45.7835L641.041 45.496ZM648.465 45.496L649.423 45.7835L649.809 44.496H648.465V45.496ZM627.601 115V116H628.345L628.559 115.288L627.601 115ZM612.809 114.694L583.753 24.3259L581.849 24.9381L610.905 115.306L612.809 114.694ZM582.801 25.632H602.769V23.632H582.801V25.632ZM601.813 24.9243L623.061 94.4284L624.973 93.8436L603.725 24.3396L601.813 24.9243ZM624.017 93.136H616.209V95.136H624.017V93.136ZM617.167 94.4219L637.903 24.9179L635.987 24.3461L615.251 93.8501L617.167 94.4219ZM636.945 25.632H652.689V23.632H636.945V25.632ZM651.731 24.9179L672.467 94.4219L674.383 93.8501L653.647 24.3461L651.731 24.9179ZM673.425 93.136H665.745V95.136H673.425V93.136ZM666.702 94.4267L687.822 24.9227L685.908 24.3413L664.788 93.8453L666.702 94.4267ZM686.865 25.632H706.705V23.632H686.865V25.632ZM705.753 24.3259L676.697 114.694L678.601 115.306L707.657 24.9381L705.753 24.3259ZM677.649 114H661.905V116H677.649V114ZM662.863 114.712L641.999 45.2085L640.083 45.7835L660.947 115.288L662.863 114.712ZM641.041 46.496H648.465V44.496H641.041V46.496ZM647.507 45.2085L626.643 114.712L628.559 115.288L649.423 45.7835L647.507 45.2085ZM627.601 114H611.857V116H627.601V114ZM720.331 112.184L719.838 113.054L719.847 113.059L719.855 113.064L720.331 112.184ZM708.171 100.408L709.027 99.8913L708.171 100.408ZM708.171 67.256L707.319 66.7327L708.171 67.256ZM720.331 55.736L720.813 56.6123L720.824 56.606L720.331 55.736ZM767.307 67.256L766.451 67.7727L766.455 67.7793L767.307 67.256ZM767.307 100.408L768.163 100.925L767.307 100.408ZM755.147 112.184L755.629 113.06L755.64 113.054L755.147 112.184ZM745.163 96.824L745.652 97.6965L745.665 97.6892L745.677 97.6815L745.163 96.824ZM750.027 91.576L749.139 91.1157L749.136 91.1222L749.133 91.1288L750.027 91.576ZM750.027 76.216L749.147 76.6901L749.15 76.6974L749.154 76.7046L750.027 76.216ZM745.035 71.096L744.505 71.944L744.525 71.9567L744.546 71.9685L745.035 71.096ZM730.443 71.096L730.932 71.9685L730.945 71.9612L730.958 71.9535L730.443 71.096ZM725.451 76.216L726.331 76.6901L725.451 76.216ZM725.451 91.576L724.563 92.0363L724.567 92.0432L724.571 92.0501L725.451 91.576ZM730.443 96.824L729.929 97.6815L729.941 97.6892L729.954 97.6965L730.443 96.824ZM737.739 115.408C731.491 115.408 725.854 114.035 720.807 111.304L719.855 113.064C725.218 115.965 731.187 117.408 737.739 117.408V115.408ZM720.824 111.314C715.851 108.496 711.923 104.691 709.027 99.8913L707.315 100.925C710.392 106.024 714.571 110.07 719.838 113.054L720.824 111.314ZM709.027 99.8913C706.141 95.1078 704.691 89.7418 704.691 83.768H702.691C702.691 90.0822 704.228 95.8095 707.315 100.925L709.027 99.8913ZM704.691 83.768C704.691 77.7941 706.141 72.4738 709.023 67.7793L707.319 66.7327C704.228 71.7662 702.691 77.4539 702.691 83.768H704.691ZM709.023 67.7793C711.917 63.0667 715.841 59.3467 720.813 56.6122L719.849 54.8598C714.581 57.7573 710.398 61.7173 707.319 66.7327L709.023 67.7793ZM720.824 56.606C725.779 53.7984 731.408 52.384 737.739 52.384V50.384C731.099 50.384 725.123 51.871 719.838 54.866L720.824 56.606ZM737.739 52.384C744.075 52.384 749.708 53.7581 754.665 56.4842L755.629 54.7318C750.346 51.8259 744.374 50.384 737.739 50.384V52.384ZM754.665 56.4842C759.633 59.2164 763.556 62.9757 766.451 67.7727L768.163 66.7393C765.085 61.6376 760.901 57.6316 755.629 54.7318L754.665 56.4842ZM766.455 67.7793C769.337 72.4738 770.787 77.7941 770.787 83.768H772.787C772.787 77.4539 771.25 71.7662 768.159 66.7327L766.455 67.7793ZM770.787 83.768C770.787 89.7418 769.337 95.1078 766.451 99.8913L768.163 100.925C771.25 95.8095 772.787 90.0822 772.787 83.768H770.787ZM766.451 99.8913C763.555 104.691 759.627 108.496 754.654 111.314L755.64 113.054C760.907 110.07 765.086 106.024 768.163 100.925L766.451 99.8913ZM754.665 111.308C749.708 114.034 744.075 115.408 737.739 115.408V117.408C744.374 117.408 750.346 115.966 755.629 113.06L754.665 111.308ZM737.739 99.616C740.7 99.616 743.348 98.9867 745.652 97.6965L744.674 95.9515C742.712 97.0506 740.41 97.616 737.739 97.616V99.616ZM745.677 97.6815C747.973 96.3039 749.727 94.4125 750.921 92.0232L749.133 91.1288C748.109 93.1768 746.619 94.784 744.648 95.9665L745.677 97.6815ZM750.915 92.0363C752.192 89.574 752.819 86.8104 752.819 83.768H750.819C750.819 86.5283 750.252 88.97 749.139 91.1157L750.915 92.0363ZM752.819 83.768C752.819 80.7276 752.192 78.0356 750.9 75.7274L749.154 76.7046C750.251 78.663 750.819 81.0058 750.819 83.768H752.819ZM750.907 75.7419C749.626 73.3613 747.828 71.514 745.524 70.2235L744.546 71.9685C746.509 73.0674 748.039 74.6334 749.147 76.6901L750.907 75.7419ZM745.565 70.248C743.333 68.8531 740.711 68.176 737.739 68.176V70.176C740.399 70.176 742.641 70.7789 744.505 71.944L745.565 70.248ZM737.739 68.176C734.845 68.176 732.232 68.8563 729.929 70.2385L730.958 71.9535C732.92 70.7757 735.171 70.176 737.739 70.176V68.176ZM729.954 70.2235C727.65 71.514 725.852 73.3613 724.571 75.7419L726.331 76.6901C727.439 74.6334 728.969 73.0674 730.932 71.9685L729.954 70.2235ZM724.571 75.7419C723.286 78.127 722.659 80.8544 722.659 83.896H724.659C724.659 81.1349 725.226 78.7423 726.331 76.6901L724.571 75.7419ZM722.659 83.896C722.659 86.8583 723.289 89.5782 724.563 92.0363L726.339 91.1157C725.224 88.9658 724.659 86.5657 724.659 83.896H722.659ZM724.571 92.0501C725.849 94.425 727.639 96.3077 729.929 97.6815L730.958 95.9665C728.98 94.7803 727.442 93.1643 726.331 91.1019L724.571 92.0501ZM729.954 97.6965C732.254 98.9842 734.858 99.616 737.739 99.616V97.616C735.159 97.616 732.899 97.0531 730.932 95.9515L729.954 97.6965ZM781.537 115H780.537V116H781.537V115ZM781.537 52.792V51.792H780.537V52.792H781.537ZM801.121 52.792H802.121V51.792H801.121V52.792ZM801.121 115V116H802.121V115H801.121ZM801.121 80.824L800.505 81.612L802.121 82.8742V80.824H801.121ZM792.929 74.424L791.953 74.2059L791.815 74.8228L792.313 75.212L792.929 74.424ZM801.121 57.528L801.843 58.2196L801.121 57.528ZM824.929 52.92L824.539 53.841L824.56 53.8498L824.582 53.8577L824.929 52.92ZM830.945 57.016L831.729 57.6365L832.256 56.9712L831.685 56.3433L830.945 57.016ZM819.297 71.736L818.557 72.4087L819.35 73.2807L820.081 72.3565L819.297 71.736ZM816.097 69.56L815.726 70.4885L816.097 69.56ZM803.937 71.864L803.215 71.1721L803.214 71.1728L803.937 71.864ZM782.537 115V52.792H780.537V115H782.537ZM781.537 53.792H801.121V51.792H781.537V53.792ZM800.121 52.792V115H802.121V52.792H800.121ZM801.121 114H781.537V116H801.121V114ZM801.737 80.036L793.545 73.636L792.313 75.212L800.505 81.612L801.737 80.036ZM793.905 74.6421C795.5 67.5084 798.165 62.0611 801.843 58.2196L800.399 56.8364C796.397 61.0162 793.601 66.833 791.953 74.2059L793.905 74.6421ZM801.843 58.2196C805.453 54.4495 810.5 52.512 817.121 52.512V50.512C810.089 50.512 804.469 52.5851 800.399 56.8364L801.843 58.2196ZM817.121 52.512C820.005 52.512 822.47 52.9653 824.539 53.841L825.319 51.999C822.951 50.9973 820.21 50.512 817.121 50.512V52.512ZM824.582 53.8577C826.73 54.6536 828.602 55.9259 830.205 57.6887L831.685 56.3433C829.874 54.3515 827.736 52.8931 825.276 51.9823L824.582 53.8577ZM830.161 56.3955L818.513 71.1155L820.081 72.3565L831.729 57.6365L830.161 56.3955ZM820.037 71.0633C819.073 70.0031 817.877 69.1948 816.468 68.6315L815.726 70.4885C816.877 70.9492 817.814 71.5916 818.557 72.4087L820.037 71.0633ZM816.468 68.6315C815.051 68.0647 813.472 67.792 811.745 67.792V69.792C813.261 69.792 814.583 70.0313 815.726 70.4885L816.468 68.6315ZM811.745 67.792C808.272 67.792 805.394 68.8985 803.215 71.1721L804.659 72.5559C806.405 70.7335 808.732 69.792 811.745 69.792V67.792ZM803.214 71.1728C801.09 73.3938 800.121 76.6771 800.121 80.824H802.121C802.121 76.9496 803.029 74.2595 804.66 72.5552L803.214 71.1728ZM875.97 115L875.141 115.559L875.438 116H875.97V115ZM854.21 82.744L853.399 82.1585L852.991 82.7245L853.381 83.3032L854.21 82.744ZM875.842 52.792V51.792H875.331L875.031 52.2065L875.842 52.792ZM897.73 52.792L898.52 53.4049L899.771 51.792H897.73V52.792ZM871.618 86.456L870.621 86.3769L870.356 89.7142L872.408 87.0689L871.618 86.456ZM872.258 78.392L873.065 77.802L871.474 75.6249L871.261 78.3129L872.258 78.392ZM899.01 115V116H900.979L899.817 114.41L899.01 115ZM836.162 115H835.162V116H836.162V115ZM836.162 22.072V21.072H835.162V22.072H836.162ZM855.746 22.072H856.746V21.072H855.746V22.072ZM855.746 115V116H856.746V115H855.746ZM876.799 114.441L855.039 82.1848L853.381 83.3032L875.141 115.559L876.799 114.441ZM855.021 83.3295L876.653 53.3775L875.031 52.2065L853.399 82.1585L855.021 83.3295ZM875.842 53.792H897.73V51.792H875.842V53.792ZM896.94 52.1791L870.828 85.8431L872.408 87.0689L898.52 53.4049L896.94 52.1791ZM872.615 86.5351L873.255 78.4711L871.261 78.3129L870.621 86.3769L872.615 86.5351ZM871.451 78.982L898.203 115.59L899.817 114.41L873.065 77.802L871.451 78.982ZM899.01 114H875.97V116H899.01V114ZM837.162 115V22.072H835.162V115H837.162ZM836.162 23.072H855.746V21.072H836.162V23.072ZM854.746 22.072V115H856.746V22.072H854.746ZM855.746 114H836.162V116H855.746V114ZM914.188 115.128L913.929 116.094L913.935 116.095L914.188 115.128ZM904.332 111.16L903.818 112.017L903.832 112.026L903.846 112.034L904.332 111.16ZM896.652 105.016L895.941 104.313L895.268 104.993L895.918 105.695L896.652 105.016ZM907.788 93.752L908.523 93.0737L907.813 92.3046L907.077 93.0489L907.788 93.752ZM915.084 99L914.67 99.9104L914.682 99.9156L914.693 99.9206L915.084 99ZM929.548 99.768L929.077 98.8856L929.065 98.8925L929.052 98.8998L929.548 99.768ZM929.164 93.496L928.657 94.3579L928.686 94.3752L928.717 94.3904L929.164 93.496ZM923.532 91.32L923.248 92.2788L923.264 92.2837L923.281 92.288L923.532 91.32ZM908.94 85.944L909.45 85.0837L908.94 85.944ZM903.308 80.312L902.445 80.8177L902.449 80.8244L902.453 80.831L903.308 80.312ZM904.204 60.6L905.021 61.1767L905.029 61.1655L904.204 60.6ZM912.908 53.56L912.494 52.6496L912.908 53.56ZM940.684 53.816L940.294 54.737L940.305 54.7414L940.316 54.7457L940.684 53.816ZM951.692 61.88L952.403 62.5831L953.023 61.9558L952.478 61.2622L951.692 61.88ZM940.556 73.144L939.795 73.7925L940.501 74.6218L941.267 73.8471L940.556 73.144ZM933.9 68.28L933.534 69.2108L933.545 69.215L933.9 68.28ZM921.868 67.896L922.342 68.7765L922.367 68.7628L922.392 68.7477L921.868 67.896ZM928.012 75.704L927.761 76.672L928.012 75.704ZM935.308 77.88L935.624 76.9313L935.308 77.88ZM942.604 81.336L943.137 80.4898L942.604 81.336ZM948.236 87.224L947.373 87.7297L947.377 87.7364L947.381 87.743L948.236 87.224ZM943.5 111.16L942.886 110.371L942.879 110.376L943.5 111.16ZM925.068 115.536C921.485 115.536 917.943 115.078 914.441 114.161L913.935 116.095C917.601 117.055 921.312 117.536 925.068 117.536V115.536ZM914.447 114.162C911.025 113.244 907.816 111.952 904.818 110.286L903.846 112.034C906.992 113.782 910.354 115.135 913.929 116.094L914.447 114.162ZM904.846 110.303C901.932 108.554 899.448 106.564 897.386 104.337L895.918 105.695C898.122 108.076 900.758 110.182 903.818 112.017L904.846 110.303ZM897.363 105.719L908.499 94.4551L907.077 93.0489L895.941 104.313L897.363 105.719ZM907.053 94.4303C909.194 96.7494 911.736 98.5766 914.67 99.9104L915.498 98.0896C912.8 96.8634 910.478 95.192 908.523 93.0737L907.053 94.4303ZM914.693 99.9206C917.643 101.172 920.85 101.792 924.3 101.792V99.792C921.094 99.792 918.156 99.2172 915.475 98.0794L914.693 99.9206ZM924.3 101.792C926.674 101.792 928.628 101.445 930.044 100.636L929.052 98.8998C928.078 99.4561 926.534 99.792 924.3 99.792V101.792ZM930.019 100.65C931.541 99.8384 932.468 98.6018 932.468 96.952H930.468C930.468 97.6916 930.115 98.3323 929.077 98.8856L930.019 100.65ZM932.468 96.952C932.468 96.009 932.229 95.1393 931.724 94.3813C931.223 93.6296 930.498 93.0449 929.611 92.6016L928.717 94.3904C929.366 94.7151 929.793 95.0904 930.06 95.4907C930.323 95.8847 930.468 96.359 930.468 96.952H932.468ZM929.671 92.6341C928.115 91.7187 926.143 90.9638 923.783 90.352L923.281 92.288C925.529 92.8708 927.312 93.5666 928.657 94.3579L929.671 92.6341ZM923.816 90.3612C921.513 89.6789 919.082 88.9539 916.523 88.1862L915.949 90.1018C918.51 90.8701 920.943 91.5958 923.248 92.2788L923.816 90.3612ZM916.523 88.1862C914.041 87.4416 911.684 86.4077 909.45 85.0837L908.43 86.8043C910.804 88.211 913.311 89.3104 915.949 90.1018L916.523 88.1862ZM909.45 85.0837C907.293 83.8058 905.532 82.0483 904.163 79.793L902.453 80.831C903.985 83.3543 905.979 85.3515 908.43 86.8043L909.45 85.0837ZM904.171 79.8063C902.834 77.5254 902.132 74.5984 902.132 70.968H900.132C900.132 74.8469 900.881 78.1493 902.445 80.8177L904.171 79.8063ZM902.132 70.968C902.132 67.1361 903.107 63.8879 905.021 61.1767L903.387 60.0233C901.205 63.1147 900.132 66.7786 900.132 70.968H902.132ZM905.029 61.1655C906.96 58.349 909.709 56.1123 913.322 54.4704L912.494 52.6496C908.597 54.421 905.544 56.8776 903.379 60.0345L905.029 61.1655ZM913.322 54.4704C916.921 52.8343 921.169 52 926.092 52V50C920.945 50 916.404 50.8723 912.494 52.6496L913.322 54.4704ZM926.092 52C931.262 52 935.992 52.9167 940.294 54.737L941.074 52.895C936.501 50.9606 931.503 50 926.092 50V52ZM940.316 54.7457C944.685 56.4771 948.206 59.0623 950.906 62.4978L952.478 61.2622C949.546 57.5297 945.728 54.7389 941.052 52.8863L940.316 54.7457ZM950.981 61.1769L939.845 72.4409L941.267 73.8471L952.403 62.5831L950.981 61.1769ZM941.317 72.4955C939.261 70.0819 936.908 68.3515 934.255 67.345L933.545 69.215C935.841 70.0858 937.925 71.5981 939.795 73.7925L941.317 72.4955ZM934.266 67.3493C931.773 66.37 929.303 65.872 926.86 65.872V67.872C929.025 67.872 931.248 68.3126 933.534 69.2107L934.266 67.3493ZM926.86 65.872C924.571 65.872 922.686 66.2183 921.344 67.0443L922.392 68.7477C923.268 68.2084 924.711 67.872 926.86 67.872V65.872ZM921.394 67.0155C920.715 67.381 920.156 67.866 919.77 68.4896C919.382 69.1161 919.204 69.8262 919.204 70.584H921.204C921.204 70.1471 921.303 69.8119 921.47 69.5424C921.639 69.27 921.911 69.0084 922.342 68.7765L921.394 67.0155ZM919.204 70.584C919.204 72.3429 920.243 73.6559 921.912 74.5398L922.848 72.7722C921.616 72.1201 921.204 71.3851 921.204 70.584H919.204ZM921.912 74.5398C923.455 75.3565 925.412 76.063 927.761 76.672L928.263 74.736C926.004 74.1503 924.207 73.4915 922.848 72.7722L921.912 74.5398ZM927.761 76.672C930.04 77.2629 932.451 77.9816 934.992 78.8287L935.624 76.9313C933.045 76.0717 930.592 75.3397 928.263 74.736L927.761 76.672ZM934.992 78.8287C937.475 79.6564 939.834 80.7739 942.071 82.1822L943.137 80.4898C940.766 78.9968 938.261 77.8102 935.624 76.9313L934.992 78.8287ZM942.071 82.1822C944.232 83.5429 945.999 85.3857 947.373 87.7297L949.099 86.7183C947.571 84.1129 945.584 82.0304 943.137 80.4898L942.071 82.1822ZM947.381 87.743C948.706 89.9249 949.412 92.8831 949.412 96.696H951.412C951.412 92.6582 950.667 89.3018 949.091 86.705L947.381 87.743ZM949.412 96.696C949.412 102.46 947.24 106.984 942.886 110.371L944.114 111.949C948.976 108.168 951.412 103.05 951.412 96.696H949.412ZM942.879 110.376C938.586 113.779 932.686 115.536 925.068 115.536V117.536C932.981 117.536 939.369 115.709 944.121 111.944L942.879 110.376Z" fill="#444444" mask="url(#path-1-outside-1_1_8314)"/>
<path d="M983.704 115V24.632H1003.8V115H983.704ZM1039.64 115V24.632H1059.86V115H1039.64ZM995.736 77.24V59.832H1046.3V77.24H995.736ZM1105.36 116.408C1098.96 116.408 1093.16 115 1087.96 112.184C1082.84 109.283 1078.78 105.357 1075.8 100.408C1072.81 95.4587 1071.32 89.912 1071.32 83.768C1071.32 77.624 1072.81 72.12 1075.8 67.256C1078.78 62.392 1082.84 58.552 1087.96 55.736C1093.08 52.8347 1098.88 51.384 1105.36 51.384C1111.85 51.384 1117.65 52.792 1122.77 55.608C1127.89 58.424 1131.95 62.3067 1134.93 67.256C1137.92 72.12 1139.41 77.624 1139.41 83.768C1139.41 89.912 1137.92 95.4587 1134.93 100.408C1131.95 105.357 1127.89 109.283 1122.77 112.184C1117.65 115 1111.85 116.408 1105.36 116.408ZM1105.36 98.616C1108.18 98.616 1110.65 98.0187 1112.79 96.824C1114.92 95.544 1116.54 93.7947 1117.65 91.576C1118.85 89.272 1119.44 86.6693 1119.44 83.768C1119.44 80.8667 1118.85 78.3493 1117.65 76.216C1116.46 73.9973 1114.79 72.2907 1112.66 71.096C1110.61 69.816 1108.18 69.176 1105.36 69.176C1102.63 69.176 1100.2 69.816 1098.07 71.096C1095.93 72.2907 1094.27 73.9973 1093.08 76.216C1091.88 78.4347 1091.28 80.9947 1091.28 83.896C1091.28 86.712 1091.88 89.272 1093.08 91.576C1094.27 93.7947 1095.93 95.544 1098.07 96.824C1100.2 98.0187 1102.63 98.616 1105.36 98.616ZM1163.14 115L1141.64 52.792H1160.84L1174.15 97.976L1168.52 98.104L1183.24 52.792H1199.11L1213.96 98.104L1208.2 97.976L1221.64 52.792H1240.84L1219.34 115H1203.34L1188.87 71.992H1193.74L1179.02 115H1163.14ZM1289.94 115V99.384H1311.19C1315.11 99.384 1318.18 98.232 1320.4 95.928C1322.62 93.624 1323.73 90.808 1323.73 87.48C1323.73 85.176 1323.22 83.128 1322.2 81.336C1321.17 79.544 1319.72 78.136 1317.84 77.112C1316.05 76.088 1313.83 75.576 1311.19 75.576H1289.94V60.344H1309.52C1312.85 60.344 1315.54 59.5333 1317.59 57.912C1319.64 56.2053 1320.66 53.6453 1320.66 50.232C1320.66 46.904 1319.64 44.4293 1317.59 42.808C1315.54 41.1013 1312.85 40.248 1309.52 40.248H1289.94V24.632H1313.36C1319.17 24.632 1324.07 25.6987 1328.08 27.832C1332.18 29.9653 1335.29 32.824 1337.43 36.408C1339.56 39.992 1340.63 43.96 1340.63 48.312C1340.63 53.8587 1338.84 58.552 1335.25 62.392C1331.67 66.232 1326.38 68.8773 1319.38 70.328L1319.89 63.544C1327.49 64.9947 1333.33 67.9387 1337.43 72.376C1341.61 76.8133 1343.7 82.2747 1343.7 88.76C1343.7 93.7093 1342.46 98.1893 1339.99 102.2C1337.6 106.125 1334.1 109.24 1329.49 111.544C1324.97 113.848 1319.51 115 1313.11 115H1289.94ZM1274.58 115V24.632H1294.42V115H1274.58ZM1382.44 116.408C1376.72 116.408 1371.64 115.256 1367.2 112.952C1362.85 110.563 1359.44 107.32 1356.96 103.224C1354.49 99.0427 1353.25 94.264 1353.25 88.888V52.792H1372.84V88.632C1372.84 90.7653 1373.18 92.6 1373.86 94.136C1374.63 95.672 1375.74 96.8667 1377.19 97.72C1378.64 98.5733 1380.39 99 1382.44 99C1385.34 99 1387.64 98.104 1389.35 96.312C1391.05 94.4347 1391.91 91.8747 1391.91 88.632V52.792H1411.49V88.76C1411.49 94.2213 1410.25 99.0427 1407.78 103.224C1405.3 107.32 1401.89 110.563 1397.54 112.952C1393.19 115.256 1388.15 116.408 1382.44 116.408ZM1450.28 116.28C1444.4 116.28 1439.15 114.872 1434.54 112.056C1430.02 109.24 1426.43 105.4 1423.79 100.536C1421.23 95.672 1419.95 90.1253 1419.95 83.896C1419.95 77.6667 1421.23 72.12 1423.79 67.256C1426.43 62.392 1430.02 58.552 1434.54 55.736C1439.15 52.92 1444.4 51.512 1450.28 51.512C1454.55 51.512 1458.39 52.3227 1461.8 53.944C1465.3 55.5653 1468.16 57.8267 1470.38 60.728C1472.68 63.544 1473.96 66.7867 1474.22 70.456V96.696C1473.96 100.365 1472.73 103.693 1470.51 106.68C1468.29 109.581 1465.43 111.928 1461.93 113.72C1458.43 115.427 1454.55 116.28 1450.28 116.28ZM1453.74 98.616C1456.56 98.616 1458.99 98.0187 1461.04 96.824C1463.08 95.544 1464.7 93.7947 1465.9 91.576C1467.09 89.3573 1467.69 86.7973 1467.69 83.896C1467.69 80.9947 1467.09 78.4773 1465.9 76.344C1464.79 74.1253 1463.17 72.376 1461.04 71.096C1458.99 69.816 1456.6 69.176 1453.87 69.176C1451.14 69.176 1448.7 69.816 1446.57 71.096C1444.52 72.376 1442.86 74.1253 1441.58 76.344C1440.38 78.5627 1439.79 81.08 1439.79 83.896C1439.79 86.712 1440.38 89.2293 1441.58 91.448C1442.77 93.6667 1444.44 95.416 1446.57 96.696C1448.7 97.976 1451.09 98.616 1453.74 98.616ZM1486.12 115H1466.92V98.232L1469.87 83.128L1466.54 68.024V22.072H1486.12V115ZM1522.57 116.536C1518.9 116.536 1515.27 116.067 1511.69 115.128C1508.19 114.189 1504.9 112.867 1501.83 111.16C1498.85 109.368 1496.29 107.32 1494.15 105.016L1505.29 93.752C1507.34 95.9707 1509.77 97.72 1512.58 99C1515.4 100.195 1518.47 100.792 1521.8 100.792C1524.1 100.792 1525.85 100.451 1527.05 99.768C1528.33 99.0853 1528.97 98.1467 1528.97 96.952C1528.97 95.416 1528.2 94.264 1526.66 93.496C1525.21 92.6427 1523.34 91.9173 1521.03 91.32C1518.73 90.6373 1516.3 89.912 1513.74 89.144C1511.18 88.376 1508.74 87.3093 1506.44 85.944C1504.14 84.5787 1502.26 82.7013 1500.81 80.312C1499.36 77.8373 1498.63 74.7227 1498.63 70.968C1498.63 66.9573 1499.66 63.5013 1501.7 60.6C1503.75 57.6133 1506.65 55.2667 1510.41 53.56C1514.16 51.8533 1518.56 51 1523.59 51C1528.88 51 1533.75 51.9387 1538.18 53.816C1542.71 55.608 1546.38 58.296 1549.19 61.88L1538.06 73.144C1536.09 70.84 1533.87 69.2187 1531.4 68.28C1529.01 67.3413 1526.66 66.872 1524.36 66.872C1522.14 66.872 1520.48 67.2133 1519.37 67.896C1518.26 68.4933 1517.7 69.3893 1517.7 70.584C1517.7 71.864 1518.43 72.888 1519.88 73.656C1521.33 74.424 1523.21 75.1067 1525.51 75.704C1527.82 76.3013 1530.25 77.0267 1532.81 77.88C1535.37 78.7333 1537.8 79.8853 1540.1 81.336C1542.41 82.7867 1544.29 84.7493 1545.74 87.224C1547.19 89.6133 1547.91 92.7707 1547.91 96.696C1547.91 102.755 1545.61 107.576 1541 111.16C1536.48 114.744 1530.33 116.536 1522.57 116.536ZM1581.19 116.536C1577.52 116.536 1573.9 116.067 1570.31 115.128C1566.81 114.189 1563.53 112.867 1560.46 111.16C1557.47 109.368 1554.91 107.32 1552.78 105.016L1563.91 93.752C1565.96 95.9707 1568.39 97.72 1571.21 99C1574.03 100.195 1577.1 100.792 1580.43 100.792C1582.73 100.792 1584.48 100.451 1585.67 99.768C1586.95 99.0853 1587.59 98.1467 1587.59 96.952C1587.59 95.416 1586.83 94.264 1585.29 93.496C1583.84 92.6427 1581.96 91.9173 1579.66 91.32C1577.35 90.6373 1574.92 89.912 1572.36 89.144C1569.8 88.376 1567.37 87.3093 1565.07 85.944C1562.76 84.5787 1560.88 82.7013 1559.43 80.312C1557.98 77.8373 1557.26 74.7227 1557.26 70.968C1557.26 66.9573 1558.28 63.5013 1560.33 60.6C1562.38 57.6133 1565.28 55.2667 1569.03 53.56C1572.79 51.8533 1577.18 51 1582.22 51C1587.51 51 1592.37 51.9387 1596.81 53.816C1601.33 55.608 1605 58.296 1607.82 61.88L1596.68 73.144C1594.72 70.84 1592.5 69.2187 1590.03 68.28C1587.64 67.3413 1585.29 66.872 1582.99 66.872C1580.77 66.872 1579.1 67.2133 1577.99 67.896C1576.88 68.4933 1576.33 69.3893 1576.33 70.584C1576.33 71.864 1577.05 72.888 1578.51 73.656C1579.96 74.424 1581.83 75.1067 1584.14 75.704C1586.44 76.3013 1588.87 77.0267 1591.43 77.88C1593.99 78.7333 1596.43 79.8853 1598.73 81.336C1601.03 82.7867 1602.91 84.7493 1604.36 87.224C1605.81 89.6133 1606.54 92.7707 1606.54 96.696C1606.54 102.755 1604.23 107.576 1599.63 111.16C1595.1 114.744 1588.96 116.536 1581.19 116.536ZM1665.86 115L1636.8 24.632H1656.77L1678.02 94.136H1670.21L1690.95 24.632H1706.69L1727.43 94.136H1719.75L1740.87 24.632H1760.71L1731.65 115H1715.91L1695.04 45.496H1702.47L1681.6 115H1665.86ZM1791.74 116.408C1785.34 116.408 1779.54 115 1774.33 112.184C1769.21 109.283 1765.16 105.357 1762.17 100.408C1759.18 95.4587 1757.69 89.912 1757.69 83.768C1757.69 77.624 1759.18 72.12 1762.17 67.256C1765.16 62.392 1769.21 58.552 1774.33 55.736C1779.45 52.8347 1785.25 51.384 1791.74 51.384C1798.22 51.384 1804.03 52.792 1809.15 55.608C1814.27 58.424 1818.32 62.3067 1821.31 67.256C1824.29 72.12 1825.79 77.624 1825.79 83.768C1825.79 89.912 1824.29 95.4587 1821.31 100.408C1818.32 105.357 1814.27 109.283 1809.15 112.184C1804.03 115 1798.22 116.408 1791.74 116.408ZM1791.74 98.616C1794.56 98.616 1797.03 98.0187 1799.16 96.824C1801.3 95.544 1802.92 93.7947 1804.03 91.576C1805.22 89.272 1805.82 86.6693 1805.82 83.768C1805.82 80.8667 1805.22 78.3493 1804.03 76.216C1802.83 73.9973 1801.17 72.2907 1799.04 71.096C1796.99 69.816 1794.56 69.176 1791.74 69.176C1789.01 69.176 1786.58 69.816 1784.44 71.096C1782.31 72.2907 1780.65 73.9973 1779.45 76.216C1778.26 78.4347 1777.66 80.9947 1777.66 83.896C1777.66 86.712 1778.26 89.272 1779.45 91.576C1780.65 93.7947 1782.31 95.544 1784.44 96.824C1786.58 98.0187 1789.01 98.616 1791.74 98.616ZM1835.54 115V52.792H1855.12V115H1835.54ZM1855.12 80.824L1846.93 74.424C1848.55 67.1707 1851.28 61.5387 1855.12 57.528C1858.96 53.5173 1864.29 51.512 1871.12 51.512C1874.11 51.512 1876.71 51.9813 1878.93 52.92C1881.23 53.7733 1883.24 55.1387 1884.95 57.016L1873.3 71.736C1872.44 70.7973 1871.38 70.072 1870.1 69.56C1868.82 69.048 1867.37 68.792 1865.75 68.792C1862.5 68.792 1859.9 69.816 1857.94 71.864C1856.06 73.8267 1855.12 76.8133 1855.12 80.824ZM1929.97 115L1908.21 82.744L1929.84 52.792H1951.73L1925.62 86.456L1926.26 78.392L1953.01 115H1929.97ZM1890.16 115V22.072H1909.75V115H1890.16ZM1979.07 116.536C1975.4 116.536 1971.77 116.067 1968.19 115.128C1964.69 114.189 1961.4 112.867 1958.33 111.16C1955.35 109.368 1952.79 107.32 1950.65 105.016L1961.79 93.752C1963.84 95.9707 1966.27 97.72 1969.08 99C1971.9 100.195 1974.97 100.792 1978.3 100.792C1980.6 100.792 1982.35 100.451 1983.55 99.768C1984.83 99.0853 1985.47 98.1467 1985.47 96.952C1985.47 95.416 1984.7 94.264 1983.16 93.496C1981.71 92.6427 1979.84 91.9173 1977.53 91.32C1975.23 90.6373 1972.8 89.912 1970.24 89.144C1967.68 88.376 1965.24 87.3093 1962.94 85.944C1960.64 84.5787 1958.76 82.7013 1957.31 80.312C1955.86 77.8373 1955.13 74.7227 1955.13 70.968C1955.13 66.9573 1956.16 63.5013 1958.2 60.6C1960.25 57.6133 1963.15 55.2667 1966.91 53.56C1970.66 51.8533 1975.06 51 1980.09 51C1985.38 51 1990.25 51.9387 1994.68 53.816C1999.21 55.608 2002.88 58.296 2005.69 61.88L1994.56 73.144C1992.59 70.84 1990.37 69.2187 1987.9 68.28C1985.51 67.3413 1983.16 66.872 1980.86 66.872C1978.64 66.872 1976.98 67.2133 1975.87 67.896C1974.76 68.4933 1974.2 69.3893 1974.2 70.584C1974.2 71.864 1974.93 72.888 1976.38 73.656C1977.83 74.424 1979.71 75.1067 1982.01 75.704C1984.32 76.3013 1986.75 77.0267 1989.31 77.88C1991.87 78.7333 1994.3 79.8853 1996.6 81.336C1998.91 82.7867 2000.79 84.7493 2002.24 87.224C2003.69 89.6133 2004.41 92.7707 2004.41 96.696C2004.41 102.755 2002.11 107.576 1997.5 111.16C1992.98 114.744 1986.83 116.536 1979.07 116.536Z" fill="#A64CED"/>
</svg>
