<svg width="1440" height="136" viewBox="0 0 1440 136" fill="none" xmlns="http://www.w3.org/2000/svg">
<path d="M-518.296 115V24.632H-498.2V115H-518.296ZM-462.36 115V24.632H-442.136V115H-462.36ZM-506.264 77.24V59.832H-455.704V77.24H-506.264ZM-396.636 116.408C-403.036 116.408 -408.839 115 -414.044 112.184C-419.164 109.283 -423.217 105.357 -426.204 100.408C-429.191 95.4587 -430.684 89.912 -430.684 83.768C-430.684 77.624 -429.191 72.12 -426.204 67.256C-423.217 62.392 -419.164 58.552 -414.044 55.736C-408.924 52.8347 -403.121 51.384 -396.636 51.384C-390.151 51.384 -384.348 52.792 -379.228 55.608C-374.108 58.424 -370.055 62.3067 -367.068 67.256C-364.081 72.12 -362.588 77.624 -362.588 83.768C-362.588 89.912 -364.081 95.4587 -367.068 100.408C-370.055 105.357 -374.108 109.283 -379.228 112.184C-384.348 115 -390.151 116.408 -396.636 116.408ZM-396.636 98.616C-393.82 98.616 -391.345 98.0187 -389.212 96.824C-387.079 95.544 -385.457 93.7947 -384.348 91.576C-383.153 89.272 -382.556 86.6693 -382.556 83.768C-382.556 80.8667 -383.153 78.3493 -384.348 76.216C-385.543 73.9973 -387.207 72.2907 -389.34 71.096C-391.388 69.816 -393.82 69.176 -396.636 69.176C-399.367 69.176 -401.799 69.816 -403.932 71.096C-406.065 72.2907 -407.729 73.9973 -408.924 76.216C-410.119 78.4347 -410.716 80.9947 -410.716 83.896C-410.716 86.712 -410.119 89.272 -408.924 91.576C-407.729 93.7947 -406.065 95.544 -403.932 96.824C-401.799 98.0187 -399.367 98.616 -396.636 98.616ZM-338.856 115L-360.36 52.792H-341.16L-327.848 97.976L-333.48 98.104L-318.76 52.792H-302.888L-288.04 98.104L-293.8 97.976L-280.36 52.792H-261.16L-282.664 115H-298.664L-313.128 71.992H-308.264L-322.984 115H-338.856ZM-212.061 115V99.384H-190.813C-186.888 99.384 -183.816 98.232 -181.597 95.928C-179.378 93.624 -178.269 90.808 -178.269 87.48C-178.269 85.176 -178.781 83.128 -179.805 81.336C-180.829 79.544 -182.28 78.136 -184.157 77.112C-185.949 76.088 -188.168 75.576 -190.813 75.576H-212.061V60.344H-192.477C-189.149 60.344 -186.461 59.5333 -184.413 57.912C-182.365 56.2053 -181.341 53.6453 -181.341 50.232C-181.341 46.904 -182.365 44.4293 -184.413 42.808C-186.461 41.1013 -189.149 40.248 -192.477 40.248H-212.061V24.632H-188.637C-182.834 24.632 -177.928 25.6987 -173.917 27.832C-169.821 29.9653 -166.706 32.824 -164.573 36.408C-162.44 39.992 -161.373 43.96 -161.373 48.312C-161.373 53.8587 -163.165 58.552 -166.749 62.392C-170.333 66.232 -175.624 68.8773 -182.621 70.328L-182.109 63.544C-174.514 64.9947 -168.669 67.9387 -164.573 72.376C-160.392 76.8133 -158.301 82.2747 -158.301 88.76C-158.301 93.7093 -159.538 98.1893 -162.013 102.2C-164.402 106.125 -167.901 109.24 -172.509 111.544C-177.032 113.848 -182.493 115 -188.893 115H-212.061ZM-227.421 115V24.632H-207.581V115H-227.421ZM-119.565 116.408C-125.282 116.408 -130.36 115.256 -134.797 112.952C-139.149 110.563 -142.562 107.32 -145.037 103.224C-147.512 99.0427 -148.749 94.264 -148.749 88.888V52.792H-129.165V88.632C-129.165 90.7653 -128.824 92.6 -128.141 94.136C-127.373 95.672 -126.264 96.8667 -124.813 97.72C-123.362 98.5733 -121.613 99 -119.565 99C-116.664 99 -114.36 98.104 -112.653 96.312C-110.946 94.4347 -110.093 91.8747 -110.093 88.632V52.792H-90.509V88.76C-90.509 94.2213 -91.7463 99.0427 -94.221 103.224C-96.6957 107.32 -100.109 110.563 -104.461 112.952C-108.813 115.256 -113.848 116.408 -119.565 116.408ZM-51.717 116.28C-57.605 116.28 -62.853 114.872 -67.461 112.056C-71.9837 109.24 -75.5677 105.4 -78.213 100.536C-80.773 95.672 -82.053 90.1253 -82.053 83.896C-82.053 77.6667 -80.773 72.12 -78.213 67.256C-75.5677 62.392 -71.9837 58.552 -67.461 55.736C-62.853 52.92 -57.605 51.512 -51.717 51.512C-47.4503 51.512 -43.6103 52.3227 -40.197 53.944C-36.6983 55.5653 -33.8397 57.8267 -31.621 60.728C-29.317 63.544 -28.037 66.7867 -27.781 70.456V96.696C-28.037 100.365 -29.2743 103.693 -31.493 106.68C-33.7117 109.581 -36.5703 111.928 -40.069 113.72C-43.5677 115.427 -47.4503 116.28 -51.717 116.28ZM-48.261 98.616C-45.445 98.616 -43.013 98.0187 -40.965 96.824C-38.917 95.544 -37.2957 93.7947 -36.101 91.576C-34.9063 89.3573 -34.309 86.7973 -34.309 83.896C-34.309 80.9947 -34.9063 78.4773 -36.101 76.344C-37.2103 74.1253 -38.8317 72.376 -40.965 71.096C-43.013 69.816 -45.4023 69.176 -48.133 69.176C-50.8637 69.176 -53.2957 69.816 -55.429 71.096C-57.477 72.376 -59.141 74.1253 -60.421 76.344C-61.6157 78.5627 -62.213 81.08 -62.213 83.896C-62.213 86.712 -61.6157 89.2293 -60.421 91.448C-59.2263 93.6667 -57.5623 95.416 -55.429 96.696C-53.2957 97.976 -50.9063 98.616 -48.261 98.616ZM-15.877 115H-35.077V98.232L-32.133 83.128L-35.461 68.024V22.072H-15.877V115ZM20.568 116.536C16.8987 116.536 13.272 116.067 9.688 115.128C6.18933 114.189 2.904 112.867 -0.167999 111.16C-3.15467 109.368 -5.71467 107.32 -7.848 105.016L3.288 93.752C5.336 95.9707 7.768 97.72 10.584 99C13.4 100.195 16.472 100.792 19.8 100.792C22.104 100.792 23.8533 100.451 25.048 99.768C26.328 99.0853 26.968 98.1467 26.968 96.952C26.968 95.416 26.2 94.264 24.664 93.496C23.2133 92.6427 21.336 91.9173 19.032 91.32C16.728 90.6373 14.296 89.912 11.736 89.144C9.176 88.376 6.744 87.3093 4.44 85.944C2.136 84.5787 0.258667 82.7013 -1.192 80.312C-2.64267 77.8373 -3.368 74.7227 -3.368 70.968C-3.368 66.9573 -2.344 63.5013 -0.296 60.6C1.752 57.6133 4.65333 55.2667 8.408 53.56C12.1627 51.8533 16.5573 51 21.592 51C26.8827 51 31.7467 51.9387 36.184 53.816C40.7067 55.608 44.376 58.296 47.192 61.88L36.056 73.144C34.0933 70.84 31.8747 69.2187 29.4 68.28C27.0107 67.3413 24.664 66.872 22.36 66.872C20.1413 66.872 18.4773 67.2133 17.368 67.896C16.2587 68.4933 15.704 69.3893 15.704 70.584C15.704 71.864 16.4293 72.888 17.88 73.656C19.3307 74.424 21.208 75.1067 23.512 75.704C25.816 76.3013 28.248 77.0267 30.808 77.88C33.368 78.7333 35.8 79.8853 38.104 81.336C40.408 82.7867 42.2853 84.7493 43.736 87.224C45.1867 89.6133 45.912 92.7707 45.912 96.696C45.912 102.755 43.608 107.576 39 111.16C34.4773 114.744 28.3333 116.536 20.568 116.536ZM79.193 116.536C75.5237 116.536 71.897 116.067 68.313 115.128C64.8143 114.189 61.529 112.867 58.457 111.16C55.4703 109.368 52.9103 107.32 50.777 105.016L61.913 93.752C63.961 95.9707 66.393 97.72 69.209 99C72.025 100.195 75.097 100.792 78.425 100.792C80.729 100.792 82.4783 100.451 83.673 99.768C84.953 99.0853 85.593 98.1467 85.593 96.952C85.593 95.416 84.825 94.264 83.289 93.496C81.8383 92.6427 79.961 91.9173 77.657 91.32C75.353 90.6373 72.921 89.912 70.361 89.144C67.801 88.376 65.369 87.3093 63.065 85.944C60.761 84.5787 58.8837 82.7013 57.433 80.312C55.9823 77.8373 55.257 74.7227 55.257 70.968C55.257 66.9573 56.281 63.5013 58.329 60.6C60.377 57.6133 63.2783 55.2667 67.033 53.56C70.7877 51.8533 75.1823 51 80.217 51C85.5077 51 90.3717 51.9387 94.809 53.816C99.3317 55.608 103.001 58.296 105.817 61.88L94.681 73.144C92.7183 70.84 90.4997 69.2187 88.025 68.28C85.6357 67.3413 83.289 66.872 80.985 66.872C78.7663 66.872 77.1023 67.2133 75.993 67.896C74.8837 68.4933 74.329 69.3893 74.329 70.584C74.329 71.864 75.0543 72.888 76.505 73.656C77.9557 74.424 79.833 75.1067 82.137 75.704C84.441 76.3013 86.873 77.0267 89.433 77.88C91.993 78.7333 94.425 79.8853 96.729 81.336C99.033 82.7867 100.91 84.7493 102.361 87.224C103.812 89.6133 104.537 92.7707 104.537 96.696C104.537 102.755 102.233 107.576 97.625 111.16C93.1023 114.744 86.9583 116.536 79.193 116.536ZM163.857 115L134.801 24.632H154.769L176.017 94.136H168.209L188.945 24.632H204.689L225.425 94.136H217.745L238.865 24.632H258.705L229.649 115H213.905L193.041 45.496H200.465L179.601 115H163.857ZM289.739 116.408C283.339 116.408 277.536 115 272.331 112.184C267.211 109.283 263.158 105.357 260.171 100.408C257.184 95.4587 255.691 89.912 255.691 83.768C255.691 77.624 257.184 72.12 260.171 67.256C263.158 62.392 267.211 58.552 272.331 55.736C277.451 52.8347 283.254 51.384 289.739 51.384C296.224 51.384 302.027 52.792 307.147 55.608C312.267 58.424 316.32 62.3067 319.307 67.256C322.294 72.12 323.787 77.624 323.787 83.768C323.787 89.912 322.294 95.4587 319.307 100.408C316.32 105.357 312.267 109.283 307.147 112.184C302.027 115 296.224 116.408 289.739 116.408ZM289.739 98.616C292.555 98.616 295.03 98.0187 297.163 96.824C299.296 95.544 300.918 93.7947 302.027 91.576C303.222 89.272 303.819 86.6693 303.819 83.768C303.819 80.8667 303.222 78.3493 302.027 76.216C300.832 73.9973 299.168 72.2907 297.035 71.096C294.987 69.816 292.555 69.176 289.739 69.176C287.008 69.176 284.576 69.816 282.443 71.096C280.31 72.2907 278.646 73.9973 277.451 76.216C276.256 78.4347 275.659 80.9947 275.659 83.896C275.659 86.712 276.256 89.272 277.451 91.576C278.646 93.7947 280.31 95.544 282.443 96.824C284.576 98.0187 287.008 98.616 289.739 98.616ZM333.537 115V52.792H353.121V115H333.537ZM353.121 80.824L344.929 74.424C346.55 67.1707 349.281 61.5387 353.121 57.528C356.961 53.5173 362.294 51.512 369.121 51.512C372.108 51.512 374.71 51.9813 376.929 52.92C379.233 53.7733 381.238 55.1387 382.945 57.016L371.297 71.736C370.444 70.7973 369.377 70.072 368.097 69.56C366.817 69.048 365.366 68.792 363.745 68.792C360.502 68.792 357.9 69.816 355.937 71.864C354.06 73.8267 353.121 76.8133 353.121 80.824ZM427.97 115L406.21 82.744L427.842 52.792H449.73L423.618 86.456L424.258 78.392L451.01 115H427.97ZM388.162 115V22.072H407.746V115H388.162ZM477.068 116.536C473.399 116.536 469.772 116.067 466.188 115.128C462.689 114.189 459.404 112.867 456.332 111.16C453.345 109.368 450.785 107.32 448.652 105.016L459.788 93.752C461.836 95.9707 464.268 97.72 467.084 99C469.9 100.195 472.972 100.792 476.3 100.792C478.604 100.792 480.353 100.451 481.548 99.768C482.828 99.0853 483.468 98.1467 483.468 96.952C483.468 95.416 482.7 94.264 481.164 93.496C479.713 92.6427 477.836 91.9173 475.532 91.32C473.228 90.6373 470.796 89.912 468.236 89.144C465.676 88.376 463.244 87.3093 460.94 85.944C458.636 84.5787 456.759 82.7013 455.308 80.312C453.857 77.8373 453.132 74.7227 453.132 70.968C453.132 66.9573 454.156 63.5013 456.204 60.6C458.252 57.6133 461.153 55.2667 464.908 53.56C468.663 51.8533 473.057 51 478.092 51C483.383 51 488.247 51.9387 492.684 53.816C497.207 55.608 500.876 58.296 503.692 61.88L492.556 73.144C490.593 70.84 488.375 69.2187 485.9 68.28C483.511 67.3413 481.164 66.872 478.86 66.872C476.641 66.872 474.977 67.2133 473.868 67.896C472.759 68.4933 472.204 69.3893 472.204 70.584C472.204 71.864 472.929 72.888 474.38 73.656C475.831 74.424 477.708 75.1067 480.012 75.704C482.316 76.3013 484.748 77.0267 487.308 77.88C489.868 78.7333 492.3 79.8853 494.604 81.336C496.908 82.7867 498.785 84.7493 500.236 87.224C501.687 89.6133 502.412 92.7707 502.412 96.696C502.412 102.755 500.108 107.576 495.5 111.16C490.977 114.744 484.833 116.536 477.068 116.536Z" fill="#FFAA4C"/>
<mask id="path-2-outside-1_1_8318" maskUnits="userSpaceOnUse" x="534" y="21" width="1026" height="97" fill="black">
<rect fill="white" x="534" y="21" width="1026" height="97"/>
<path d="M535.704 115V24.632H555.8V115H535.704ZM591.64 115V24.632H611.864V115H591.64ZM547.736 77.24V59.832H598.296V77.24H547.736ZM657.364 116.408C650.964 116.408 645.161 115 639.956 112.184C634.836 109.283 630.783 105.357 627.796 100.408C624.809 95.4587 623.316 89.912 623.316 83.768C623.316 77.624 624.809 72.12 627.796 67.256C630.783 62.392 634.836 58.552 639.956 55.736C645.076 52.8347 650.879 51.384 657.364 51.384C663.849 51.384 669.652 52.792 674.772 55.608C679.892 58.424 683.945 62.3067 686.932 67.256C689.919 72.12 691.412 77.624 691.412 83.768C691.412 89.912 689.919 95.4587 686.932 100.408C683.945 105.357 679.892 109.283 674.772 112.184C669.652 115 663.849 116.408 657.364 116.408ZM657.364 98.616C660.18 98.616 662.655 98.0187 664.788 96.824C666.921 95.544 668.543 93.7947 669.652 91.576C670.847 89.272 671.444 86.6693 671.444 83.768C671.444 80.8667 670.847 78.3493 669.652 76.216C668.457 73.9973 666.793 72.2907 664.66 71.096C662.612 69.816 660.18 69.176 657.364 69.176C654.633 69.176 652.201 69.816 650.068 71.096C647.935 72.2907 646.271 73.9973 645.076 76.216C643.881 78.4347 643.284 80.9947 643.284 83.896C643.284 86.712 643.881 89.272 645.076 91.576C646.271 93.7947 647.935 95.544 650.068 96.824C652.201 98.0187 654.633 98.616 657.364 98.616ZM715.144 115L693.64 52.792H712.84L726.152 97.976L720.52 98.104L735.24 52.792H751.112L765.96 98.104L760.2 97.976L773.64 52.792H792.84L771.336 115H755.336L740.872 71.992H745.736L731.016 115H715.144ZM841.939 115V99.384H863.187C867.112 99.384 870.184 98.232 872.403 95.928C874.622 93.624 875.731 90.808 875.731 87.48C875.731 85.176 875.219 83.128 874.195 81.336C873.171 79.544 871.72 78.136 869.843 77.112C868.051 76.088 865.832 75.576 863.187 75.576H841.939V60.344H861.523C864.851 60.344 867.539 59.5333 869.587 57.912C871.635 56.2053 872.659 53.6453 872.659 50.232C872.659 46.904 871.635 44.4293 869.587 42.808C867.539 41.1013 864.851 40.248 861.523 40.248H841.939V24.632H865.363C871.166 24.632 876.072 25.6987 880.083 27.832C884.179 29.9653 887.294 32.824 889.427 36.408C891.56 39.992 892.627 43.96 892.627 48.312C892.627 53.8587 890.835 58.552 887.251 62.392C883.667 66.232 878.376 68.8773 871.379 70.328L871.891 63.544C879.486 64.9947 885.331 67.9387 889.427 72.376C893.608 76.8133 895.699 82.2747 895.699 88.76C895.699 93.7093 894.462 98.1893 891.987 102.2C889.598 106.125 886.099 109.24 881.491 111.544C876.968 113.848 871.507 115 865.107 115H841.939ZM826.579 115V24.632H846.419V115H826.579ZM934.435 116.408C928.718 116.408 923.64 115.256 919.203 112.952C914.851 110.563 911.438 107.32 908.963 103.224C906.488 99.0427 905.251 94.264 905.251 88.888V52.792H924.835V88.632C924.835 90.7653 925.176 92.6 925.859 94.136C926.627 95.672 927.736 96.8667 929.187 97.72C930.638 98.5733 932.387 99 934.435 99C937.336 99 939.64 98.104 941.347 96.312C943.054 94.4347 943.907 91.8747 943.907 88.632V52.792H963.491V88.76C963.491 94.2213 962.254 99.0427 959.779 103.224C957.304 107.32 953.891 110.563 949.539 112.952C945.187 115.256 940.152 116.408 934.435 116.408ZM1002.28 116.28C996.395 116.28 991.147 114.872 986.539 112.056C982.016 109.24 978.432 105.4 975.787 100.536C973.227 95.672 971.947 90.1253 971.947 83.896C971.947 77.6667 973.227 72.12 975.787 67.256C978.432 62.392 982.016 58.552 986.539 55.736C991.147 52.92 996.395 51.512 1002.28 51.512C1006.55 51.512 1010.39 52.3227 1013.8 53.944C1017.3 55.5653 1020.16 57.8267 1022.38 60.728C1024.68 63.544 1025.96 66.7867 1026.22 70.456V96.696C1025.96 100.365 1024.73 103.693 1022.51 106.68C1020.29 109.581 1017.43 111.928 1013.93 113.72C1010.43 115.427 1006.55 116.28 1002.28 116.28ZM1005.74 98.616C1008.56 98.616 1010.99 98.0187 1013.04 96.824C1015.08 95.544 1016.7 93.7947 1017.9 91.576C1019.09 89.3573 1019.69 86.7973 1019.69 83.896C1019.69 80.9947 1019.09 78.4773 1017.9 76.344C1016.79 74.1253 1015.17 72.376 1013.04 71.096C1010.99 69.816 1008.6 69.176 1005.87 69.176C1003.14 69.176 1000.7 69.816 998.571 71.096C996.523 72.376 994.859 74.1253 993.579 76.344C992.384 78.5627 991.787 81.08 991.787 83.896C991.787 86.712 992.384 89.2293 993.579 91.448C994.774 93.6667 996.438 95.416 998.571 96.696C1000.7 97.976 1003.09 98.616 1005.74 98.616ZM1038.12 115H1018.92V98.232L1021.87 83.128L1018.54 68.024V22.072H1038.12V115ZM1074.57 116.536C1070.9 116.536 1067.27 116.067 1063.69 115.128C1060.19 114.189 1056.9 112.867 1053.83 111.16C1050.85 109.368 1048.29 107.32 1046.15 105.016L1057.29 93.752C1059.34 95.9707 1061.77 97.72 1064.58 99C1067.4 100.195 1070.47 100.792 1073.8 100.792C1076.1 100.792 1077.85 100.451 1079.05 99.768C1080.33 99.0853 1080.97 98.1467 1080.97 96.952C1080.97 95.416 1080.2 94.264 1078.66 93.496C1077.21 92.6427 1075.34 91.9173 1073.03 91.32C1070.73 90.6373 1068.3 89.912 1065.74 89.144C1063.18 88.376 1060.74 87.3093 1058.44 85.944C1056.14 84.5787 1054.26 82.7013 1052.81 80.312C1051.36 77.8373 1050.63 74.7227 1050.63 70.968C1050.63 66.9573 1051.66 63.5013 1053.7 60.6C1055.75 57.6133 1058.65 55.2667 1062.41 53.56C1066.16 51.8533 1070.56 51 1075.59 51C1080.88 51 1085.75 51.9387 1090.18 53.816C1094.71 55.608 1098.38 58.296 1101.19 61.88L1090.06 73.144C1088.09 70.84 1085.87 69.2187 1083.4 68.28C1081.01 67.3413 1078.66 66.872 1076.36 66.872C1074.14 66.872 1072.48 67.2133 1071.37 67.896C1070.26 68.4933 1069.7 69.3893 1069.7 70.584C1069.7 71.864 1070.43 72.888 1071.88 73.656C1073.33 74.424 1075.21 75.1067 1077.51 75.704C1079.82 76.3013 1082.25 77.0267 1084.81 77.88C1087.37 78.7333 1089.8 79.8853 1092.1 81.336C1094.41 82.7867 1096.29 84.7493 1097.74 87.224C1099.19 89.6133 1099.91 92.7707 1099.91 96.696C1099.91 102.755 1097.61 107.576 1093 111.16C1088.48 114.744 1082.33 116.536 1074.57 116.536ZM1133.19 116.536C1129.52 116.536 1125.9 116.067 1122.31 115.128C1118.81 114.189 1115.53 112.867 1112.46 111.16C1109.47 109.368 1106.91 107.32 1104.78 105.016L1115.91 93.752C1117.96 95.9707 1120.39 97.72 1123.21 99C1126.03 100.195 1129.1 100.792 1132.43 100.792C1134.73 100.792 1136.48 100.451 1137.67 99.768C1138.95 99.0853 1139.59 98.1467 1139.59 96.952C1139.59 95.416 1138.83 94.264 1137.29 93.496C1135.84 92.6427 1133.96 91.9173 1131.66 91.32C1129.35 90.6373 1126.92 89.912 1124.36 89.144C1121.8 88.376 1119.37 87.3093 1117.07 85.944C1114.76 84.5787 1112.88 82.7013 1111.43 80.312C1109.98 77.8373 1109.26 74.7227 1109.26 70.968C1109.26 66.9573 1110.28 63.5013 1112.33 60.6C1114.38 57.6133 1117.28 55.2667 1121.03 53.56C1124.79 51.8533 1129.18 51 1134.22 51C1139.51 51 1144.37 51.9387 1148.81 53.816C1153.33 55.608 1157 58.296 1159.82 61.88L1148.68 73.144C1146.72 70.84 1144.5 69.2187 1142.03 68.28C1139.64 67.3413 1137.29 66.872 1134.99 66.872C1132.77 66.872 1131.1 67.2133 1129.99 67.896C1128.88 68.4933 1128.33 69.3893 1128.33 70.584C1128.33 71.864 1129.05 72.888 1130.51 73.656C1131.96 74.424 1133.83 75.1067 1136.14 75.704C1138.44 76.3013 1140.87 77.0267 1143.43 77.88C1145.99 78.7333 1148.43 79.8853 1150.73 81.336C1153.03 82.7867 1154.91 84.7493 1156.36 87.224C1157.81 89.6133 1158.54 92.7707 1158.54 96.696C1158.54 102.755 1156.23 107.576 1151.63 111.16C1147.1 114.744 1140.96 116.536 1133.19 116.536ZM1217.86 115L1188.8 24.632H1208.77L1230.02 94.136H1222.21L1242.95 24.632H1258.69L1279.43 94.136H1271.75L1292.87 24.632H1312.71L1283.65 115H1267.91L1247.04 45.496H1254.47L1233.6 115H1217.86ZM1343.74 116.408C1337.34 116.408 1331.54 115 1326.33 112.184C1321.21 109.283 1317.16 105.357 1314.17 100.408C1311.18 95.4587 1309.69 89.912 1309.69 83.768C1309.69 77.624 1311.18 72.12 1314.17 67.256C1317.16 62.392 1321.21 58.552 1326.33 55.736C1331.45 52.8347 1337.25 51.384 1343.74 51.384C1350.22 51.384 1356.03 52.792 1361.15 55.608C1366.27 58.424 1370.32 62.3067 1373.31 67.256C1376.29 72.12 1377.79 77.624 1377.79 83.768C1377.79 89.912 1376.29 95.4587 1373.31 100.408C1370.32 105.357 1366.27 109.283 1361.15 112.184C1356.03 115 1350.22 116.408 1343.74 116.408ZM1343.74 98.616C1346.56 98.616 1349.03 98.0187 1351.16 96.824C1353.3 95.544 1354.92 93.7947 1356.03 91.576C1357.22 89.272 1357.82 86.6693 1357.82 83.768C1357.82 80.8667 1357.22 78.3493 1356.03 76.216C1354.83 73.9973 1353.17 72.2907 1351.04 71.096C1348.99 69.816 1346.56 69.176 1343.74 69.176C1341.01 69.176 1338.58 69.816 1336.44 71.096C1334.31 72.2907 1332.65 73.9973 1331.45 76.216C1330.26 78.4347 1329.66 80.9947 1329.66 83.896C1329.66 86.712 1330.26 89.272 1331.45 91.576C1332.65 93.7947 1334.31 95.544 1336.44 96.824C1338.58 98.0187 1341.01 98.616 1343.74 98.616ZM1387.54 115V52.792H1407.12V115H1387.54ZM1407.12 80.824L1398.93 74.424C1400.55 67.1707 1403.28 61.5387 1407.12 57.528C1410.96 53.5173 1416.29 51.512 1423.12 51.512C1426.11 51.512 1428.71 51.9813 1430.93 52.92C1433.23 53.7733 1435.24 55.1387 1436.95 57.016L1425.3 71.736C1424.44 70.7973 1423.38 70.072 1422.1 69.56C1420.82 69.048 1419.37 68.792 1417.75 68.792C1414.5 68.792 1411.9 69.816 1409.94 71.864C1408.06 73.8267 1407.12 76.8133 1407.12 80.824ZM1481.97 115L1460.21 82.744L1481.84 52.792H1503.73L1477.62 86.456L1478.26 78.392L1505.01 115H1481.97ZM1442.16 115V22.072H1461.75V115H1442.16ZM1531.07 116.536C1527.4 116.536 1523.77 116.067 1520.19 115.128C1516.69 114.189 1513.4 112.867 1510.33 111.16C1507.35 109.368 1504.79 107.32 1502.65 105.016L1513.79 93.752C1515.84 95.9707 1518.27 97.72 1521.08 99C1523.9 100.195 1526.97 100.792 1530.3 100.792C1532.6 100.792 1534.35 100.451 1535.55 99.768C1536.83 99.0853 1537.47 98.1467 1537.47 96.952C1537.47 95.416 1536.7 94.264 1535.16 93.496C1533.71 92.6427 1531.84 91.9173 1529.53 91.32C1527.23 90.6373 1524.8 89.912 1522.24 89.144C1519.68 88.376 1517.24 87.3093 1514.94 85.944C1512.64 84.5787 1510.76 82.7013 1509.31 80.312C1507.86 77.8373 1507.13 74.7227 1507.13 70.968C1507.13 66.9573 1508.16 63.5013 1510.2 60.6C1512.25 57.6133 1515.15 55.2667 1518.91 53.56C1522.66 51.8533 1527.06 51 1532.09 51C1537.38 51 1542.25 51.9387 1546.68 53.816C1551.21 55.608 1554.88 58.296 1557.69 61.88L1546.56 73.144C1544.59 70.84 1542.37 69.2187 1539.9 68.28C1537.51 67.3413 1535.16 66.872 1532.86 66.872C1530.64 66.872 1528.98 67.2133 1527.87 67.896C1526.76 68.4933 1526.2 69.3893 1526.2 70.584C1526.2 71.864 1526.93 72.888 1528.38 73.656C1529.83 74.424 1531.71 75.1067 1534.01 75.704C1536.32 76.3013 1538.75 77.0267 1541.31 77.88C1543.87 78.7333 1546.3 79.8853 1548.6 81.336C1550.91 82.7867 1552.79 84.7493 1554.24 87.224C1555.69 89.6133 1556.41 92.7707 1556.41 96.696C1556.41 102.755 1554.11 107.576 1549.5 111.16C1544.98 114.744 1538.83 116.536 1531.07 116.536Z"/>
</mask>
<path d="M535.704 115H534.704V116H535.704V115ZM535.704 24.632V23.632H534.704V24.632H535.704ZM555.8 24.632H556.8V23.632H555.8V24.632ZM555.8 115V116H556.8V115H555.8ZM591.64 115H590.64V116H591.64V115ZM591.64 24.632V23.632H590.64V24.632H591.64ZM611.864 24.632H612.864V23.632H611.864V24.632ZM611.864 115V116H612.864V115H611.864ZM547.736 77.24H546.736V78.24H547.736V77.24ZM547.736 59.832V58.832H546.736V59.832H547.736ZM598.296 59.832H599.296V58.832H598.296V59.832ZM598.296 77.24V78.24H599.296V77.24H598.296ZM536.704 115V24.632H534.704V115H536.704ZM535.704 25.632H555.8V23.632H535.704V25.632ZM554.8 24.632V115H556.8V24.632H554.8ZM555.8 114H535.704V116H555.8V114ZM592.64 115V24.632H590.64V115H592.64ZM591.64 25.632H611.864V23.632H591.64V25.632ZM610.864 24.632V115H612.864V24.632H610.864ZM611.864 114H591.64V116H611.864V114ZM548.736 77.24V59.832H546.736V77.24H548.736ZM547.736 60.832H598.296V58.832H547.736V60.832ZM597.296 59.832V77.24H599.296V59.832H597.296ZM598.296 76.24H547.736V78.24H598.296V76.24ZM639.956 112.184L639.463 113.054L639.472 113.059L639.48 113.064L639.956 112.184ZM627.796 100.408L628.652 99.8913L627.796 100.408ZM627.796 67.256L626.944 66.7327L627.796 67.256ZM639.956 55.736L640.438 56.6123L640.449 56.606L639.956 55.736ZM686.932 67.256L686.076 67.7727L686.08 67.7793L686.932 67.256ZM686.932 100.408L687.788 100.925L686.932 100.408ZM674.772 112.184L675.254 113.06L675.265 113.054L674.772 112.184ZM664.788 96.824L665.277 97.6965L665.29 97.6892L665.302 97.6815L664.788 96.824ZM669.652 91.576L668.764 91.1157L668.761 91.1222L668.758 91.1288L669.652 91.576ZM669.652 76.216L668.772 76.6901L668.775 76.6974L668.779 76.7046L669.652 76.216ZM664.66 71.096L664.13 71.944L664.15 71.9567L664.171 71.9685L664.66 71.096ZM650.068 71.096L650.557 71.9685L650.57 71.9612L650.582 71.9535L650.068 71.096ZM645.076 76.216L645.956 76.6901L645.076 76.216ZM645.076 91.576L644.188 92.0363L644.192 92.0432L644.196 92.0501L645.076 91.576ZM650.068 96.824L649.554 97.6815L649.566 97.6892L649.579 97.6965L650.068 96.824ZM657.364 115.408C651.116 115.408 645.479 114.035 640.432 111.304L639.48 113.064C644.843 115.965 650.812 117.408 657.364 117.408V115.408ZM640.449 111.314C635.476 108.496 631.548 104.691 628.652 99.8913L626.94 100.925C630.017 106.024 634.196 110.07 639.463 113.054L640.449 111.314ZM628.652 99.8913C625.766 95.1078 624.316 89.7418 624.316 83.768H622.316C622.316 90.0822 623.853 95.8095 626.94 100.925L628.652 99.8913ZM624.316 83.768C624.316 77.7941 625.766 72.4738 628.648 67.7793L626.944 66.7327C623.853 71.7662 622.316 77.4539 622.316 83.768H624.316ZM628.648 67.7793C631.542 63.0667 635.466 59.3467 640.438 56.6122L639.474 54.8598C634.206 57.7573 630.023 61.7173 626.944 66.7327L628.648 67.7793ZM640.449 56.606C645.404 53.7984 651.033 52.384 657.364 52.384V50.384C650.724 50.384 644.748 51.871 639.463 54.866L640.449 56.606ZM657.364 52.384C663.7 52.384 669.333 53.7581 674.29 56.4842L675.254 54.7318C669.971 51.8259 663.999 50.384 657.364 50.384V52.384ZM674.29 56.4842C679.258 59.2164 683.181 62.9757 686.076 67.7727L687.788 66.7393C684.71 61.6376 680.526 57.6316 675.254 54.7318L674.29 56.4842ZM686.08 67.7793C688.962 72.4738 690.412 77.7941 690.412 83.768H692.412C692.412 77.4539 690.875 71.7662 687.784 66.7327L686.08 67.7793ZM690.412 83.768C690.412 89.7418 688.962 95.1078 686.076 99.8913L687.788 100.925C690.875 95.8095 692.412 90.0822 692.412 83.768H690.412ZM686.076 99.8913C683.18 104.691 679.252 108.496 674.279 111.314L675.265 113.054C680.532 110.07 684.711 106.024 687.788 100.925L686.076 99.8913ZM674.29 111.308C669.333 114.034 663.7 115.408 657.364 115.408V117.408C663.999 117.408 669.971 115.966 675.254 113.06L674.29 111.308ZM657.364 99.616C660.325 99.616 662.973 98.9867 665.277 97.6965L664.299 95.9515C662.337 97.0506 660.035 97.616 657.364 97.616V99.616ZM665.302 97.6815C667.598 96.3039 669.352 94.4125 670.546 92.0232L668.758 91.1288C667.734 93.1768 666.244 94.784 664.274 95.9665L665.302 97.6815ZM670.54 92.0363C671.817 89.574 672.444 86.8104 672.444 83.768H670.444C670.444 86.5283 669.877 88.97 668.764 91.1157L670.54 92.0363ZM672.444 83.768C672.444 80.7276 671.817 78.0356 670.525 75.7274L668.779 76.7046C669.876 78.663 670.444 81.0058 670.444 83.768H672.444ZM670.532 75.7419C669.251 73.3613 667.453 71.514 665.149 70.2235L664.171 71.9685C666.134 73.0674 667.664 74.6334 668.772 76.6901L670.532 75.7419ZM665.19 70.248C662.958 68.8531 660.336 68.176 657.364 68.176V70.176C660.024 70.176 662.266 70.7789 664.13 71.944L665.19 70.248ZM657.364 68.176C654.47 68.176 651.857 68.8563 649.554 70.2385L650.582 71.9535C652.545 70.7757 654.796 70.176 657.364 70.176V68.176ZM649.579 70.2235C647.275 71.514 645.477 73.3613 644.196 75.7419L645.956 76.6901C647.064 74.6334 648.594 73.0674 650.557 71.9685L649.579 70.2235ZM644.196 75.7419C642.911 78.127 642.284 80.8544 642.284 83.896H644.284C644.284 81.1349 644.851 78.7423 645.956 76.6901L644.196 75.7419ZM642.284 83.896C642.284 86.8583 642.914 89.5782 644.188 92.0363L645.964 91.1157C644.849 88.9658 644.284 86.5657 644.284 83.896H642.284ZM644.196 92.0501C645.474 94.425 647.264 96.3077 649.554 97.6815L650.582 95.9665C648.605 94.7803 647.067 93.1643 645.956 91.1019L644.196 92.0501ZM649.579 97.6965C651.879 98.9842 654.483 99.616 657.364 99.616V97.616C654.784 97.616 652.524 97.0531 650.557 95.9515L649.579 97.6965ZM715.144 115L714.199 115.327L714.432 116H715.144V115ZM693.64 52.792V51.792H692.236L692.695 53.1187L693.64 52.792ZM712.84 52.792L713.799 52.5094L713.588 51.792H712.84V52.792ZM726.152 97.976L726.175 98.9757L727.48 98.9461L727.111 97.6934L726.152 97.976ZM720.52 98.104L719.569 97.795L719.133 99.1358L720.543 99.1037L720.52 98.104ZM735.24 52.792V51.792H734.513L734.289 52.483L735.24 52.792ZM751.112 52.792L752.062 52.4806L751.837 51.792H751.112V52.792ZM765.96 98.104L765.938 99.1038L767.35 99.1351L766.91 97.7926L765.96 98.104ZM760.2 97.976L759.242 97.6909L758.868 98.9466L760.178 98.9758L760.2 97.976ZM773.64 52.792V51.792H772.894L772.682 52.5069L773.64 52.792ZM792.84 52.792L793.785 53.1187L794.244 51.792H792.84V52.792ZM771.336 115V116H772.048L772.281 115.327L771.336 115ZM755.336 115L754.388 115.319L754.617 116H755.336V115ZM740.872 71.992V70.992H739.481L739.924 72.3108L740.872 71.992ZM745.736 71.992L746.682 72.3158L747.135 70.992H745.736V71.992ZM731.016 115V116H731.731L731.962 115.324L731.016 115ZM716.089 114.673L694.585 52.4653L692.695 53.1187L714.199 115.327L716.089 114.673ZM693.64 53.792H712.84V51.792H693.64V53.792ZM711.881 53.0746L725.193 98.2586L727.111 97.6934L713.799 52.5094L711.881 53.0746ZM726.129 96.9763L720.497 97.1043L720.543 99.1037L726.175 98.9757L726.129 96.9763ZM721.471 98.413L736.191 53.101L734.289 52.483L719.569 97.795L721.471 98.413ZM735.24 53.792H751.112V51.792H735.24V53.792ZM750.162 53.1034L765.01 98.4154L766.91 97.7926L752.062 52.4806L750.162 53.1034ZM765.982 97.1042L760.222 96.9762L760.178 98.9758L765.938 99.1038L765.982 97.1042ZM761.159 98.2611L774.599 53.0771L772.682 52.5069L759.242 97.6909L761.159 98.2611ZM773.64 53.792H792.84V51.792H773.64V53.792ZM791.895 52.4653L770.391 114.673L772.281 115.327L793.785 53.1187L791.895 52.4653ZM771.336 114H755.336V116H771.336V114ZM756.284 114.681L741.82 71.6732L739.924 72.3108L754.388 115.319L756.284 114.681ZM740.872 72.992H745.736V70.992H740.872V72.992ZM744.79 71.6682L730.07 114.676L731.962 115.324L746.682 72.3158L744.79 71.6682ZM731.016 114H715.144V116H731.016V114ZM841.939 115H840.939V116H841.939V115ZM841.939 99.384V98.384H840.939V99.384H841.939ZM872.403 95.928L873.123 96.6216L872.403 95.928ZM869.843 77.112L869.347 77.9802L869.355 77.9852L869.364 77.9899L869.843 77.112ZM841.939 75.576H840.939V76.576H841.939V75.576ZM841.939 60.344V59.344H840.939V60.344H841.939ZM869.587 57.912L870.208 58.696L870.218 58.6883L870.227 58.6802L869.587 57.912ZM869.587 42.808L868.947 43.5762L868.956 43.5843L868.966 43.592L869.587 42.808ZM841.939 40.248H840.939V41.248H841.939V40.248ZM841.939 24.632V23.632H840.939V24.632H841.939ZM880.083 27.832L879.613 28.7149L879.621 28.7189L880.083 27.832ZM889.427 36.408L888.568 36.9195V36.9195L889.427 36.408ZM887.251 62.392L887.982 63.0743L887.251 62.392ZM871.379 70.328L870.382 70.2527L870.282 71.5767L871.582 71.3072L871.379 70.328ZM871.891 63.544L872.079 62.5618L870.978 62.3516L870.894 63.4687L871.891 63.544ZM889.427 72.376L888.692 73.0543L888.699 73.0618L889.427 72.376ZM891.987 102.2L891.136 101.675L891.133 101.68L891.987 102.2ZM881.491 111.544L881.044 110.65L881.037 110.653L881.491 111.544ZM826.579 115H825.579V116H826.579V115ZM826.579 24.632V23.632H825.579V24.632H826.579ZM846.419 24.632H847.419V23.632H846.419V24.632ZM846.419 115V116H847.419V115H846.419ZM842.939 115V99.384H840.939V115H842.939ZM841.939 100.384H863.187V98.384H841.939V100.384ZM863.187 100.384C867.318 100.384 870.675 99.1643 873.123 96.6216L871.683 95.2344C869.694 97.2997 866.907 98.384 863.187 98.384V100.384ZM873.123 96.6216C875.529 94.1231 876.731 91.0551 876.731 87.48H874.731C874.731 90.5609 873.714 93.1249 871.683 95.2344L873.123 96.6216ZM876.731 87.48C876.731 85.0227 876.183 82.8 875.063 80.8399L873.327 81.8321C874.255 83.456 874.731 85.3293 874.731 87.48H876.731ZM875.063 80.8399C873.944 78.881 872.356 77.3435 870.322 76.2341L869.364 77.9899C871.085 78.9285 872.398 80.207 873.327 81.8321L875.063 80.8399ZM870.339 76.2438C868.359 75.1124 865.958 74.576 863.187 74.576V76.576C865.706 76.576 867.743 77.0636 869.347 77.9802L870.339 76.2438ZM863.187 74.576H841.939V76.576H863.187V74.576ZM842.939 75.576V60.344H840.939V75.576H842.939ZM841.939 61.344H861.523V59.344H841.939V61.344ZM861.523 61.344C865.014 61.344 867.939 60.4917 870.208 58.696L868.966 57.128C867.139 58.5749 864.688 59.344 861.523 59.344V61.344ZM870.227 58.6802C872.564 56.7327 873.659 53.8523 873.659 50.232H871.659C871.659 53.4384 870.706 55.678 868.947 57.1438L870.227 58.6802ZM873.659 50.232C873.659 46.6898 872.559 43.8852 870.208 42.024L868.966 43.592C870.711 44.9734 871.659 47.1182 871.659 50.232H873.659ZM870.227 42.0398C867.958 40.1491 865.025 39.248 861.523 39.248V41.248C864.677 41.248 867.12 42.0536 868.947 43.5762L870.227 42.0398ZM861.523 39.248H841.939V41.248H861.523V39.248ZM842.939 40.248V24.632H840.939V40.248H842.939ZM841.939 25.632H865.363V23.632H841.939V25.632ZM865.363 25.632C871.046 25.632 875.782 26.6768 879.613 28.7149L880.553 26.9491C876.363 24.7205 871.285 23.632 865.363 23.632V25.632ZM879.621 28.7189C883.571 30.7759 886.539 33.5119 888.568 36.9195L890.286 35.8965C888.048 32.1361 884.787 29.1547 880.545 26.9451L879.621 28.7189ZM888.568 36.9195C890.605 40.3419 891.627 44.1319 891.627 48.312H893.627C893.627 43.7881 892.516 39.6421 890.286 35.8965L888.568 36.9195ZM891.627 48.312C891.627 53.621 889.921 58.0659 886.52 61.7097L887.982 63.0743C891.749 59.0381 893.627 54.0964 893.627 48.312H891.627ZM886.52 61.7097C883.12 65.3527 878.042 67.9253 871.176 69.3488L871.582 71.3072C878.71 69.8294 884.214 67.1113 887.982 63.0743L886.52 61.7097ZM872.376 70.4033L872.888 63.6193L870.894 63.4687L870.382 70.2527L872.376 70.4033ZM871.703 64.5262C879.147 65.9481 884.778 68.8134 888.692 73.0543L890.162 71.6977C885.884 67.0639 879.824 64.0413 872.079 62.5618L871.703 64.5262ZM888.699 73.0618C892.694 77.301 894.699 82.5118 894.699 88.76H896.699C896.699 82.0376 894.523 76.3257 890.155 71.6902L888.699 73.0618ZM894.699 88.76C894.699 93.5336 893.508 97.8302 891.136 101.675L892.838 102.725C895.415 98.5485 896.699 93.885 896.699 88.76H894.699ZM891.133 101.68C888.853 105.426 885.505 108.419 881.044 110.65L881.938 112.438C886.693 110.061 890.343 106.825 892.841 102.72L891.133 101.68ZM881.037 110.653C876.687 112.869 871.389 114 865.107 114V116C871.625 116 877.25 114.827 881.945 112.435L881.037 110.653ZM865.107 114H841.939V116H865.107V114ZM827.579 115V24.632H825.579V115H827.579ZM826.579 25.632H846.419V23.632H826.579V25.632ZM845.419 24.632V115H847.419V24.632H845.419ZM846.419 114H826.579V116H846.419V114ZM919.203 112.952L918.722 113.829L918.732 113.834L918.742 113.839L919.203 112.952ZM908.963 103.224L908.102 103.733L908.107 103.741L908.963 103.224ZM905.251 52.792V51.792H904.251V52.792H905.251ZM924.835 52.792H925.835V51.792H924.835V52.792ZM925.859 94.136L924.945 94.5421L924.954 94.5629L924.965 94.5832L925.859 94.136ZM929.187 97.72L929.694 96.8581L929.187 97.72ZM941.347 96.312L942.071 97.0017L942.079 96.9933L942.087 96.9847L941.347 96.312ZM943.907 52.792V51.792H942.907V52.792H943.907ZM963.491 52.792H964.491V51.792H963.491V52.792ZM959.779 103.224L960.635 103.741L960.64 103.733L959.779 103.224ZM949.539 112.952L950.007 113.836L950.014 113.832L950.02 113.829L949.539 112.952ZM934.435 115.408C928.855 115.408 923.94 114.285 919.664 112.065L918.742 113.839C923.341 116.227 928.58 117.408 934.435 117.408V115.408ZM919.684 112.075C915.481 109.768 912.199 106.646 909.819 102.707L908.107 103.741C910.676 107.994 914.221 111.358 918.722 113.829L919.684 112.075ZM909.824 102.715C907.45 98.7036 906.251 94.1044 906.251 88.888H904.251C904.251 94.4236 905.527 99.3817 908.102 103.733L909.824 102.715ZM906.251 88.888V52.792H904.251V88.888H906.251ZM905.251 53.792H924.835V51.792H905.251V53.792ZM923.835 52.792V88.632H925.835V52.792H923.835ZM923.835 88.632C923.835 90.8689 924.193 92.8488 924.945 94.5421L926.773 93.7299C926.16 92.3512 925.835 90.6618 925.835 88.632H923.835ZM924.965 94.5832C925.817 96.2882 927.059 97.6286 928.68 98.5819L929.694 96.8581C928.413 96.1048 927.437 95.0558 926.753 93.6888L924.965 94.5832ZM928.68 98.5819C930.314 99.5434 932.247 100 934.435 100V98C932.527 98 930.961 97.6033 929.694 96.8581L928.68 98.5819ZM934.435 100C937.559 100 940.143 99.0261 942.071 97.0017L940.623 95.6223C939.138 97.1819 937.114 98 934.435 98V100ZM942.087 96.9847C944.004 94.8764 944.907 92.0519 944.907 88.632H942.907C942.907 91.6974 942.104 93.9929 940.607 95.6393L942.087 96.9847ZM944.907 88.632V52.792H942.907V88.632H944.907ZM943.907 53.792H963.491V51.792H943.907V53.792ZM962.491 52.792V88.76H964.491V52.792H962.491ZM962.491 88.76C962.491 94.0649 961.291 98.706 958.918 102.715L960.64 103.733C963.216 99.3793 964.491 94.3778 964.491 88.76H962.491ZM958.923 102.707C956.543 106.646 953.261 109.768 949.058 112.075L950.02 113.829C954.521 111.358 958.066 107.994 960.635 103.741L958.923 102.707ZM949.071 112.068C944.885 114.284 940.016 115.408 934.435 115.408V117.408C940.289 117.408 945.489 116.228 950.007 113.836L949.071 112.068ZM986.539 112.056L986.01 112.905L986.018 112.909L986.539 112.056ZM975.787 100.536L974.902 101.002L974.909 101.014L975.787 100.536ZM975.787 67.256L974.908 66.7782L974.902 66.7903L975.787 67.256ZM986.539 55.736L986.018 54.8827L986.01 54.8871L986.539 55.736ZM1013.8 53.944L1013.37 54.8473L1013.38 54.8513L1013.8 53.944ZM1022.38 60.728L1021.58 61.3354L1021.59 61.3485L1021.61 61.3612L1022.38 60.728ZM1026.22 70.456H1027.22V70.4212L1027.22 70.3864L1026.22 70.456ZM1026.22 96.696L1027.22 96.7656L1027.22 96.7308V96.696H1026.22ZM1022.51 106.68L1023.3 107.288L1023.31 107.276L1022.51 106.68ZM1013.93 113.72L1014.37 114.619L1014.38 114.614L1014.39 114.61L1013.93 113.72ZM1013.04 96.824L1013.54 97.6878L1013.55 97.6801L1013.57 97.672L1013.04 96.824ZM1017.9 91.576L1017.02 91.1019L1017.9 91.576ZM1017.9 76.344L1017 76.7912L1017.02 76.8122L1017.03 76.8326L1017.9 76.344ZM1013.04 71.096L1012.51 71.944L1012.51 71.9488L1012.52 71.9535L1013.04 71.096ZM998.571 71.096L998.057 70.2385L998.049 70.2432L998.041 70.248L998.571 71.096ZM993.579 76.344L992.713 75.8443L992.705 75.857L992.699 75.8699L993.579 76.344ZM993.579 91.448L992.699 91.9221L993.579 91.448ZM1038.12 115V116H1039.12V115H1038.12ZM1018.92 115H1017.92V116H1018.92V115ZM1018.92 98.232L1017.94 98.0407L1017.92 98.1355V98.232H1018.92ZM1021.87 83.128L1022.85 83.3193L1022.89 83.1156L1022.84 82.9128L1021.87 83.128ZM1018.54 68.024H1017.54V68.1329L1017.56 68.2392L1018.54 68.024ZM1018.54 22.072V21.072H1017.54V22.072H1018.54ZM1038.12 22.072H1039.12V21.072H1038.12V22.072ZM1002.28 115.28C996.562 115.28 991.497 113.914 987.06 111.203L986.018 112.909C990.797 115.83 996.228 117.28 1002.28 117.28V115.28ZM987.068 111.207C982.698 108.486 979.232 104.777 976.665 100.058L974.909 101.014C977.633 106.023 981.335 109.994 986.01 112.905L987.068 111.207ZM976.672 100.07C974.197 95.368 972.947 89.9849 972.947 83.896H970.947C970.947 90.2658 972.257 95.976 974.902 101.002L976.672 100.07ZM972.947 83.896C972.947 77.8071 974.197 72.424 976.672 67.7217L974.902 66.7903C972.257 71.816 970.947 77.5262 970.947 83.896H972.947ZM976.665 67.7338C979.232 63.0154 982.698 59.3059 987.068 56.5849L986.01 54.8871C981.335 57.7981 977.633 61.7686 974.909 66.7782L976.665 67.7338ZM987.06 56.5893C991.497 53.8778 996.562 52.512 1002.28 52.512V50.512C996.228 50.512 990.797 51.9622 986.018 54.8827L987.06 56.5893ZM1002.28 52.512C1006.42 52.512 1010.11 53.2974 1013.37 54.8473L1014.23 53.0407C1010.67 51.3479 1006.68 50.512 1002.28 50.512V52.512ZM1013.38 54.8513C1016.74 56.4084 1019.47 58.5701 1021.58 61.3354L1023.17 60.1205C1020.85 57.0832 1017.86 54.7223 1014.22 53.0367L1013.38 54.8513ZM1021.61 61.3612C1023.78 64.0152 1024.98 67.0603 1025.22 70.5256L1027.22 70.3864C1026.95 66.513 1025.59 63.0728 1023.15 60.0948L1021.61 61.3612ZM1025.22 70.456V96.696H1027.22V70.456H1025.22ZM1025.22 96.6264C1024.98 100.103 1023.81 103.248 1021.7 106.084L1023.31 107.276C1025.64 104.138 1026.95 100.628 1027.22 96.7656L1025.22 96.6264ZM1021.71 106.073C1019.59 108.847 1016.85 111.101 1013.48 112.83L1014.39 114.61C1018.01 112.755 1020.99 110.316 1023.3 107.287L1021.71 106.073ZM1013.49 112.821C1010.14 114.455 1006.41 115.28 1002.28 115.28V117.28C1006.69 117.28 1010.72 116.398 1014.37 114.619L1013.49 112.821ZM1005.74 99.616C1008.7 99.616 1011.31 98.9871 1013.54 97.6878L1012.53 95.9602C1010.66 97.0502 1008.41 97.616 1005.74 97.616V99.616ZM1013.57 97.672C1015.77 96.2959 1017.51 94.4148 1018.78 92.0501L1017.02 91.1019C1015.9 93.1745 1014.4 94.7921 1012.51 95.976L1013.57 97.672ZM1018.78 92.0501C1020.06 89.665 1020.69 86.9376 1020.69 83.896H1018.69C1018.69 86.6571 1018.12 89.0497 1017.02 91.1019L1018.78 92.0501ZM1020.69 83.896C1020.69 80.8556 1020.06 78.1636 1018.77 75.8554L1017.03 76.8326C1018.12 78.791 1018.69 81.1338 1018.69 83.896H1020.69ZM1018.79 75.8968C1017.6 73.5075 1015.85 71.6161 1013.55 70.2385L1012.52 71.9535C1014.49 73.1359 1015.98 74.7432 1017 76.7912L1018.79 75.8968ZM1013.57 70.248C1011.34 68.8561 1008.76 68.176 1005.87 68.176V70.176C1008.44 70.176 1010.64 70.7759 1012.51 71.944L1013.57 70.248ZM1005.87 68.176C1002.97 68.176 1000.36 68.8563 998.057 70.2385L999.086 71.9535C1001.05 70.7757 1003.3 70.176 1005.87 70.176V68.176ZM998.041 70.248C995.846 71.6201 994.07 73.4926 992.713 75.8443L994.445 76.8437C995.648 74.7581 997.2 73.1319 999.101 71.944L998.041 70.248ZM992.699 75.8699C991.417 78.2507 990.787 80.9343 990.787 83.896H992.787C992.787 81.2257 993.352 78.8746 994.459 76.8181L992.699 75.8699ZM990.787 83.896C990.787 86.8577 991.417 89.5413 992.699 91.9221L994.459 90.9739C993.352 88.9174 992.787 86.5663 992.787 83.896H990.787ZM992.699 91.9221C993.977 94.297 995.767 96.1797 998.057 97.5535L999.086 95.8385C997.108 94.6523 995.57 93.0363 994.459 90.9739L992.699 91.9221ZM998.057 97.5535C1000.36 98.9327 1002.92 99.616 1005.74 99.616V97.616C1003.26 97.616 1001.05 97.0193 999.086 95.8385L998.057 97.5535ZM1038.12 114H1018.92V116H1038.12V114ZM1019.92 115V98.232H1017.92V115H1019.92ZM1019.9 98.4233L1022.85 83.3193L1020.89 82.9367L1017.94 98.0407L1019.9 98.4233ZM1022.84 82.9128L1019.52 67.8088L1017.56 68.2392L1020.89 83.3432L1022.84 82.9128ZM1019.54 68.024V22.072H1017.54V68.024H1019.54ZM1018.54 23.072H1038.12V21.072H1018.54V23.072ZM1037.12 22.072V115H1039.12V22.072H1037.12ZM1063.69 115.128L1063.43 116.094L1063.43 116.095L1063.69 115.128ZM1053.83 111.16L1053.32 112.017L1053.33 112.026L1053.35 112.034L1053.83 111.16ZM1046.15 105.016L1045.44 104.313L1044.77 104.993L1045.42 105.695L1046.15 105.016ZM1057.29 93.752L1058.02 93.0737L1057.31 92.3046L1056.58 93.0489L1057.29 93.752ZM1064.58 99L1064.17 99.9104L1064.18 99.9156L1064.19 99.9206L1064.58 99ZM1079.05 99.768L1078.58 98.8856L1078.56 98.8925L1078.55 98.8998L1079.05 99.768ZM1078.66 93.496L1078.16 94.3579L1078.19 94.3752L1078.22 94.3904L1078.66 93.496ZM1073.03 91.32L1072.75 92.2788L1072.76 92.2837L1072.78 92.288L1073.03 91.32ZM1058.44 85.944L1058.95 85.0837L1058.44 85.944ZM1052.81 80.312L1051.95 80.8177L1051.95 80.8244L1051.95 80.831L1052.81 80.312ZM1053.7 60.6L1054.52 61.1767L1054.53 61.1655L1053.7 60.6ZM1062.41 53.56L1061.99 52.6496L1062.41 53.56ZM1090.18 53.816L1089.79 54.737L1089.8 54.7414L1089.82 54.7457L1090.18 53.816ZM1101.19 61.88L1101.9 62.5831L1102.52 61.9558L1101.98 61.2622L1101.19 61.88ZM1090.06 73.144L1089.29 73.7925L1090 74.6218L1090.77 73.8471L1090.06 73.144ZM1083.4 68.28L1083.03 69.2108L1083.05 69.215L1083.4 68.28ZM1071.37 67.896L1071.84 68.7765L1071.87 68.7628L1071.89 68.7477L1071.37 67.896ZM1077.51 75.704L1077.26 76.672L1077.51 75.704ZM1084.81 77.88L1085.12 76.9313L1084.81 77.88ZM1092.1 81.336L1092.64 80.4898L1092.1 81.336ZM1097.74 87.224L1096.87 87.7297L1096.88 87.7364L1096.88 87.743L1097.74 87.224ZM1093 111.16L1092.39 110.371L1092.38 110.376L1093 111.16ZM1074.57 115.536C1070.98 115.536 1067.44 115.078 1063.94 114.161L1063.43 116.095C1067.1 117.055 1070.81 117.536 1074.57 117.536V115.536ZM1063.95 114.162C1060.52 113.244 1057.32 111.952 1054.32 110.286L1053.35 112.034C1056.49 113.782 1059.85 115.135 1063.43 116.094L1063.95 114.162ZM1054.35 110.303C1051.43 108.554 1048.95 106.564 1046.89 104.337L1045.42 105.695C1047.62 108.076 1050.26 110.182 1053.32 112.017L1054.35 110.303ZM1046.86 105.719L1058 94.4551L1056.58 93.0489L1045.44 104.313L1046.86 105.719ZM1056.55 94.4303C1058.69 96.7494 1061.24 98.5766 1064.17 99.9104L1065 98.0896C1062.3 96.8634 1059.98 95.192 1058.02 93.0737L1056.55 94.4303ZM1064.19 99.9206C1067.14 101.172 1070.35 101.792 1073.8 101.792V99.792C1070.59 99.792 1067.66 99.2172 1064.97 98.0794L1064.19 99.9206ZM1073.8 101.792C1076.17 101.792 1078.13 101.445 1079.54 100.636L1078.55 98.8998C1077.58 99.4561 1076.03 99.792 1073.8 99.792V101.792ZM1079.52 100.65C1081.04 99.8384 1081.97 98.6018 1081.97 96.952H1079.97C1079.97 97.6916 1079.61 98.3323 1078.58 98.8856L1079.52 100.65ZM1081.97 96.952C1081.97 96.009 1081.73 95.1393 1081.22 94.3813C1080.72 93.6296 1080 93.0449 1079.11 92.6016L1078.22 94.3904C1078.87 94.7151 1079.29 95.0904 1079.56 95.4907C1079.82 95.8847 1079.97 96.359 1079.97 96.952H1081.97ZM1079.17 92.6341C1077.61 91.7187 1075.64 90.9638 1073.28 90.352L1072.78 92.288C1075.03 92.8708 1076.81 93.5666 1078.16 94.3579L1079.17 92.6341ZM1073.32 90.3612C1071.01 89.6789 1068.58 88.9539 1066.02 88.1862L1065.45 90.1018C1068.01 90.8701 1070.44 91.5958 1072.75 92.2788L1073.32 90.3612ZM1066.02 88.1862C1063.54 87.4416 1061.18 86.4077 1058.95 85.0837L1057.93 86.8043C1060.3 88.211 1062.81 89.3104 1065.45 90.1018L1066.02 88.1862ZM1058.95 85.0837C1056.79 83.8058 1055.03 82.0483 1053.66 79.793L1051.95 80.831C1053.49 83.3543 1055.48 85.3515 1057.93 86.8043L1058.95 85.0837ZM1053.67 79.8063C1052.33 77.5254 1051.63 74.5984 1051.63 70.968H1049.63C1049.63 74.8469 1050.38 78.1493 1051.95 80.8177L1053.67 79.8063ZM1051.63 70.968C1051.63 67.1361 1052.61 63.8879 1054.52 61.1767L1052.89 60.0233C1050.7 63.1147 1049.63 66.7786 1049.63 70.968H1051.63ZM1054.53 61.1655C1056.46 58.349 1059.21 56.1123 1062.82 54.4704L1061.99 52.6496C1058.1 54.421 1055.04 56.8776 1052.88 60.0345L1054.53 61.1655ZM1062.82 54.4704C1066.42 52.8343 1070.67 52 1075.59 52V50C1070.45 50 1065.9 50.8723 1061.99 52.6496L1062.82 54.4704ZM1075.59 52C1080.76 52 1085.49 52.9167 1089.79 54.737L1090.57 52.895C1086 50.9606 1081 50 1075.59 50V52ZM1089.82 54.7457C1094.19 56.4771 1097.71 59.0623 1100.41 62.4978L1101.98 61.2622C1099.05 57.5297 1095.23 54.7389 1090.55 52.8863L1089.82 54.7457ZM1100.48 61.1769L1089.34 72.4409L1090.77 73.8471L1101.9 62.5831L1100.48 61.1769ZM1090.82 72.4955C1088.76 70.0819 1086.41 68.3515 1083.75 67.345L1083.05 69.215C1085.34 70.0858 1087.43 71.5981 1089.29 73.7925L1090.82 72.4955ZM1083.77 67.3493C1081.27 66.37 1078.8 65.872 1076.36 65.872V67.872C1078.53 67.872 1080.75 68.3126 1083.03 69.2107L1083.77 67.3493ZM1076.36 65.872C1074.07 65.872 1072.19 66.2183 1070.84 67.0443L1071.89 68.7477C1072.77 68.2084 1074.21 67.872 1076.36 67.872V65.872ZM1070.89 67.0155C1070.22 67.381 1069.66 67.866 1069.27 68.4896C1068.88 69.1161 1068.7 69.8262 1068.7 70.584H1070.7C1070.7 70.1471 1070.8 69.8119 1070.97 69.5424C1071.14 69.27 1071.41 69.0084 1071.84 68.7765L1070.89 67.0155ZM1068.7 70.584C1068.7 72.3429 1069.74 73.6559 1071.41 74.5398L1072.35 72.7722C1071.12 72.1201 1070.7 71.3851 1070.7 70.584H1068.7ZM1071.41 74.5398C1072.95 75.3565 1074.91 76.063 1077.26 76.672L1077.76 74.736C1075.5 74.1503 1073.71 73.4915 1072.35 72.7722L1071.41 74.5398ZM1077.26 76.672C1079.54 77.2629 1081.95 77.9816 1084.49 78.8287L1085.12 76.9313C1082.55 76.0717 1080.09 75.3397 1077.76 74.736L1077.26 76.672ZM1084.49 78.8287C1086.98 79.6564 1089.33 80.7739 1091.57 82.1822L1092.64 80.4898C1090.27 78.9968 1087.76 77.8102 1085.12 76.9313L1084.49 78.8287ZM1091.57 82.1822C1093.73 83.5429 1095.5 85.3857 1096.87 87.7297L1098.6 86.7183C1097.07 84.1129 1095.08 82.0304 1092.64 80.4898L1091.57 82.1822ZM1096.88 87.743C1098.21 89.9249 1098.91 92.8831 1098.91 96.696H1100.91C1100.91 92.6582 1100.17 89.3018 1098.59 86.705L1096.88 87.743ZM1098.91 96.696C1098.91 102.46 1096.74 106.984 1092.39 110.371L1093.61 111.949C1098.48 108.168 1100.91 103.05 1100.91 96.696H1098.91ZM1092.38 110.376C1088.09 113.779 1082.19 115.536 1074.57 115.536V117.536C1082.48 117.536 1088.87 115.709 1093.62 111.944L1092.38 110.376ZM1122.31 115.128L1122.05 116.094L1122.06 116.095L1122.31 115.128ZM1112.46 111.16L1111.94 112.017L1111.96 112.026L1111.97 112.034L1112.46 111.16ZM1104.78 105.016L1104.07 104.313L1103.39 104.993L1104.04 105.695L1104.78 105.016ZM1115.91 93.752L1116.65 93.0737L1115.94 92.3046L1115.2 93.0489L1115.91 93.752ZM1123.21 99L1122.8 99.9104L1122.81 99.9156L1122.82 99.9206L1123.21 99ZM1137.67 99.768L1137.2 98.8856L1137.19 98.8925L1137.18 98.8998L1137.67 99.768ZM1137.29 93.496L1136.78 94.3579L1136.81 94.3752L1136.84 94.3904L1137.29 93.496ZM1131.66 91.32L1131.37 92.2788L1131.39 92.2837L1131.41 92.288L1131.66 91.32ZM1117.07 85.944L1117.57 85.0837L1117.07 85.944ZM1111.43 80.312L1110.57 80.8177L1110.57 80.8244L1110.58 80.831L1111.43 80.312ZM1112.33 60.6L1113.15 61.1767L1113.15 61.1655L1112.33 60.6ZM1121.03 53.56L1120.62 52.6496L1121.03 53.56ZM1148.81 53.816L1148.42 54.737L1148.43 54.7414L1148.44 54.7457L1148.81 53.816ZM1159.82 61.88L1160.53 62.5831L1161.15 61.9558L1160.6 61.2622L1159.82 61.88ZM1148.68 73.144L1147.92 73.7925L1148.63 74.6218L1149.39 73.8471L1148.68 73.144ZM1142.03 68.28L1141.66 69.2108L1141.67 69.215L1142.03 68.28ZM1129.99 67.896L1130.47 68.7765L1130.49 68.7628L1130.52 68.7477L1129.99 67.896ZM1136.14 75.704L1135.89 76.672L1136.14 75.704ZM1143.43 77.88L1143.75 76.9313L1143.43 77.88ZM1150.73 81.336L1151.26 80.4898L1150.73 81.336ZM1156.36 87.224L1155.5 87.7297L1155.5 87.7364L1155.51 87.743L1156.36 87.224ZM1151.62 111.16L1151.01 110.371L1151 110.376L1151.62 111.16ZM1133.19 115.536C1129.61 115.536 1126.07 115.078 1122.57 114.161L1122.06 116.095C1125.73 117.055 1129.44 117.536 1133.19 117.536V115.536ZM1122.57 114.162C1119.15 113.244 1115.94 111.952 1112.94 110.286L1111.97 112.034C1115.12 113.782 1118.48 115.135 1122.05 116.094L1122.57 114.162ZM1112.97 110.303C1110.06 108.554 1107.57 106.564 1105.51 104.337L1104.04 105.695C1106.25 108.076 1108.88 110.182 1111.94 112.017L1112.97 110.303ZM1105.49 105.719L1116.62 94.4551L1115.2 93.0489L1104.07 104.313L1105.49 105.719ZM1115.18 94.4303C1117.32 96.7494 1119.86 98.5766 1122.8 99.9104L1123.62 98.0896C1120.93 96.8634 1118.6 95.192 1116.65 93.0737L1115.18 94.4303ZM1122.82 99.9206C1125.77 101.172 1128.97 101.792 1132.42 101.792V99.792C1129.22 99.792 1126.28 99.2172 1123.6 98.0794L1122.82 99.9206ZM1132.42 101.792C1134.8 101.792 1136.75 101.445 1138.17 100.636L1137.18 98.8998C1136.2 99.4561 1134.66 99.792 1132.42 99.792V101.792ZM1138.14 100.65C1139.67 99.8384 1140.59 98.6018 1140.59 96.952H1138.59C1138.59 97.6916 1138.24 98.3323 1137.2 98.8856L1138.14 100.65ZM1140.59 96.952C1140.59 96.009 1140.35 95.1393 1139.85 94.3813C1139.35 93.6296 1138.62 93.0449 1137.74 92.6016L1136.84 94.3904C1137.49 94.7151 1137.92 95.0904 1138.18 95.4907C1138.45 95.8847 1138.59 96.359 1138.59 96.952H1140.59ZM1137.8 92.6341C1136.24 91.7187 1134.27 90.9638 1131.91 90.352L1131.41 92.288C1133.65 92.8708 1135.44 93.5666 1136.78 94.3579L1137.8 92.6341ZM1131.94 90.3612C1129.64 89.6789 1127.21 88.9539 1124.65 88.1862L1124.07 90.1018C1126.63 90.8701 1129.07 91.5958 1131.37 92.2788L1131.94 90.3612ZM1124.65 88.1862C1122.17 87.4416 1119.81 86.4077 1117.57 85.0837L1116.56 86.8043C1118.93 88.211 1121.44 89.3104 1124.07 90.1018L1124.65 88.1862ZM1117.57 85.0837C1115.42 83.8058 1113.66 82.0483 1112.29 79.793L1110.58 80.831C1112.11 83.3543 1114.1 85.3515 1116.56 86.8043L1117.57 85.0837ZM1112.3 79.8063C1110.96 77.5254 1110.26 74.5984 1110.26 70.968H1108.26C1108.26 74.8469 1109.01 78.1493 1110.57 80.8177L1112.3 79.8063ZM1110.26 70.968C1110.26 67.1361 1111.23 63.8879 1113.15 61.1767L1111.51 60.0233C1109.33 63.1147 1108.26 66.7786 1108.26 70.968H1110.26ZM1113.15 61.1655C1115.09 58.349 1117.83 56.1123 1121.45 54.4704L1120.62 52.6496C1116.72 54.421 1113.67 56.8776 1111.5 60.0345L1113.15 61.1655ZM1121.45 54.4704C1125.05 52.8343 1129.29 52 1134.22 52V50C1129.07 50 1124.53 50.8723 1120.62 52.6496L1121.45 54.4704ZM1134.22 52C1139.39 52 1144.12 52.9167 1148.42 54.737L1149.2 52.895C1144.63 50.9606 1139.63 50 1134.22 50V52ZM1148.44 54.7457C1152.81 56.4771 1156.33 59.0623 1159.03 62.4978L1160.6 61.2622C1157.67 57.5297 1153.85 54.7389 1149.18 52.8863L1148.44 54.7457ZM1159.11 61.1769L1147.97 72.4409L1149.39 73.8471L1160.53 62.5831L1159.11 61.1769ZM1149.44 72.4955C1147.39 70.0819 1145.03 68.3515 1142.38 67.345L1141.67 69.215C1143.97 70.0858 1146.05 71.5981 1147.92 73.7925L1149.44 72.4955ZM1142.39 67.3493C1139.9 66.37 1137.43 65.872 1134.98 65.872V67.872C1137.15 67.872 1139.37 68.3126 1141.66 69.2107L1142.39 67.3493ZM1134.98 65.872C1132.7 65.872 1130.81 66.2183 1129.47 67.0443L1130.52 68.7477C1131.39 68.2084 1132.84 67.872 1134.98 67.872V65.872ZM1129.52 67.0155C1128.84 67.381 1128.28 67.866 1127.89 68.4896C1127.51 69.1161 1127.33 69.8262 1127.33 70.584H1129.33C1129.33 70.1471 1129.43 69.8119 1129.6 69.5424C1129.76 69.27 1130.04 69.0084 1130.47 68.7765L1129.52 67.0155ZM1127.33 70.584C1127.33 72.3429 1128.37 73.6559 1130.04 74.5398L1130.97 72.7722C1129.74 72.1201 1129.33 71.3851 1129.33 70.584H1127.33ZM1130.04 74.5398C1131.58 75.3565 1133.54 76.063 1135.89 76.672L1136.39 74.736C1134.13 74.1503 1132.33 73.4915 1130.97 72.7722L1130.04 74.5398ZM1135.89 76.672C1138.17 77.2629 1140.58 77.9816 1143.12 78.8287L1143.75 76.9313C1141.17 76.0717 1138.72 75.3397 1136.39 74.736L1135.89 76.672ZM1143.12 78.8287C1145.6 79.6564 1147.96 80.7739 1150.2 82.1822L1151.26 80.4898C1148.89 78.9968 1146.39 77.8102 1143.75 76.9313L1143.12 78.8287ZM1150.2 82.1822C1152.36 83.5429 1154.12 85.3857 1155.5 87.7297L1157.22 86.7183C1155.7 84.1129 1153.71 82.0304 1151.26 80.4898L1150.2 82.1822ZM1155.51 87.743C1156.83 89.9249 1157.54 92.8831 1157.54 96.696H1159.54C1159.54 92.6582 1158.79 89.3018 1157.22 86.705L1155.51 87.743ZM1157.54 96.696C1157.54 102.46 1155.36 106.984 1151.01 110.371L1152.24 111.949C1157.1 108.168 1159.54 103.05 1159.54 96.696H1157.54ZM1151 110.376C1146.71 113.779 1140.81 115.536 1133.19 115.536V117.536C1141.11 117.536 1147.49 115.709 1152.25 111.944L1151 110.376ZM1217.86 115L1216.91 115.306L1217.13 116H1217.86V115ZM1188.8 24.632V23.632H1187.43L1187.85 24.9381L1188.8 24.632ZM1208.77 24.632L1209.73 24.3396L1209.51 23.632H1208.77V24.632ZM1230.02 94.136V95.136H1231.37L1230.97 93.8436L1230.02 94.136ZM1222.21 94.136L1221.25 93.8501L1220.87 95.136H1222.21V94.136ZM1242.95 24.632V23.632H1242.2L1241.99 24.3461L1242.95 24.632ZM1258.69 24.632L1259.65 24.3461L1259.43 23.632H1258.69V24.632ZM1279.42 94.136V95.136H1280.77L1280.38 93.8501L1279.42 94.136ZM1271.74 94.136L1270.79 93.8453L1270.4 95.136H1271.74V94.136ZM1292.86 24.632V23.632H1292.12L1291.91 24.3413L1292.86 24.632ZM1312.71 24.632L1313.66 24.9381L1314.08 23.632H1312.71V24.632ZM1283.65 115V116H1284.38L1284.6 115.306L1283.65 115ZM1267.91 115L1266.95 115.288L1267.16 116H1267.91V115ZM1247.04 45.496V44.496H1245.7L1246.08 45.7835L1247.04 45.496ZM1254.47 45.496L1255.42 45.7835L1255.81 44.496H1254.47V45.496ZM1233.6 115V116H1234.34L1234.56 115.288L1233.6 115ZM1218.81 114.694L1189.75 24.3259L1187.85 24.9381L1216.91 115.306L1218.81 114.694ZM1188.8 25.632H1208.77V23.632H1188.8V25.632ZM1207.81 24.9243L1229.06 94.4284L1230.97 93.8436L1209.73 24.3396L1207.81 24.9243ZM1230.02 93.136H1222.21V95.136H1230.02V93.136ZM1223.17 94.4219L1243.9 24.9179L1241.99 24.3461L1221.25 93.8501L1223.17 94.4219ZM1242.95 25.632H1258.69V23.632H1242.95V25.632ZM1257.73 24.9179L1278.47 94.4219L1280.38 93.8501L1259.65 24.3461L1257.73 24.9179ZM1279.42 93.136H1271.74V95.136H1279.42V93.136ZM1272.7 94.4267L1293.82 24.9227L1291.91 24.3413L1270.79 93.8453L1272.7 94.4267ZM1292.86 25.632H1312.71V23.632H1292.86V25.632ZM1311.75 24.3259L1282.7 114.694L1284.6 115.306L1313.66 24.9381L1311.75 24.3259ZM1283.65 114H1267.91V116H1283.65V114ZM1268.86 114.712L1248 45.2085L1246.08 45.7835L1266.95 115.288L1268.86 114.712ZM1247.04 46.496H1254.47V44.496H1247.04V46.496ZM1253.51 45.2085L1232.64 114.712L1234.56 115.288L1255.42 45.7835L1253.51 45.2085ZM1233.6 114H1217.86V116H1233.6V114ZM1326.33 112.184L1325.84 113.054L1325.85 113.059L1325.86 113.064L1326.33 112.184ZM1314.17 100.408L1315.03 99.8913L1314.17 100.408ZM1314.17 67.256L1313.32 66.7327L1314.17 67.256ZM1326.33 55.736L1326.81 56.6123L1326.82 56.606L1326.33 55.736ZM1373.31 67.256L1372.45 67.7727L1372.45 67.7793L1373.31 67.256ZM1373.31 100.408L1374.16 100.925L1373.31 100.408ZM1361.15 112.184L1361.63 113.06L1361.64 113.054L1361.15 112.184ZM1351.16 96.824L1351.65 97.6965L1351.66 97.6892L1351.68 97.6815L1351.16 96.824ZM1356.03 91.576L1355.14 91.1157L1355.14 91.1222L1355.13 91.1288L1356.03 91.576ZM1356.03 76.216L1355.15 76.6901L1355.15 76.6974L1355.15 76.7046L1356.03 76.216ZM1351.04 71.096L1350.51 71.944L1350.53 71.9567L1350.55 71.9685L1351.04 71.096ZM1336.44 71.096L1336.93 71.9685L1336.94 71.9612L1336.96 71.9535L1336.44 71.096ZM1331.45 76.216L1332.33 76.6901L1331.45 76.216ZM1331.45 91.576L1330.56 92.0363L1330.57 92.0432L1330.57 92.0501L1331.45 91.576ZM1336.44 96.824L1335.93 97.6815L1335.94 97.6892L1335.95 97.6965L1336.44 96.824ZM1343.74 115.408C1337.49 115.408 1331.85 114.035 1326.81 111.304L1325.86 113.064C1331.22 115.965 1337.19 117.408 1343.74 117.408V115.408ZM1326.82 111.314C1321.85 108.496 1317.92 104.691 1315.03 99.8913L1313.31 100.925C1316.39 106.024 1320.57 110.07 1325.84 113.054L1326.82 111.314ZM1315.03 99.8913C1312.14 95.1078 1310.69 89.7418 1310.69 83.768H1308.69C1308.69 90.0822 1310.23 95.8095 1313.31 100.925L1315.03 99.8913ZM1310.69 83.768C1310.69 77.7941 1312.14 72.4738 1315.02 67.7793L1313.32 66.7327C1310.23 71.7662 1308.69 77.4539 1308.69 83.768H1310.69ZM1315.02 67.7793C1317.92 63.0667 1321.84 59.3467 1326.81 56.6122L1325.85 54.8598C1320.58 57.7573 1316.4 61.7173 1313.32 66.7327L1315.02 67.7793ZM1326.82 56.606C1331.78 53.7984 1337.41 52.384 1343.74 52.384V50.384C1337.1 50.384 1331.12 51.871 1325.84 54.866L1326.82 56.606ZM1343.74 52.384C1350.07 52.384 1355.71 53.7581 1360.67 56.4842L1361.63 54.7318C1356.35 51.8259 1350.37 50.384 1343.74 50.384V52.384ZM1360.67 56.4842C1365.63 59.2164 1369.56 62.9757 1372.45 67.7727L1374.16 66.7393C1371.08 61.6376 1366.9 57.6316 1361.63 54.7318L1360.67 56.4842ZM1372.45 67.7793C1375.34 72.4738 1376.79 77.7941 1376.79 83.768H1378.79C1378.79 77.4539 1377.25 71.7662 1374.16 66.7327L1372.45 67.7793ZM1376.79 83.768C1376.79 89.7418 1375.34 95.1078 1372.45 99.8913L1374.16 100.925C1377.25 95.8095 1378.79 90.0822 1378.79 83.768H1376.79ZM1372.45 99.8913C1369.55 104.691 1365.63 108.496 1360.65 111.314L1361.64 113.054C1366.91 110.07 1371.09 106.024 1374.16 100.925L1372.45 99.8913ZM1360.67 111.308C1355.71 114.034 1350.07 115.408 1343.74 115.408V117.408C1350.37 117.408 1356.35 115.966 1361.63 113.06L1360.67 111.308ZM1343.74 99.616C1346.7 99.616 1349.35 98.9867 1351.65 97.6965L1350.67 95.9515C1348.71 97.0506 1346.41 97.616 1343.74 97.616V99.616ZM1351.68 97.6815C1353.97 96.3039 1355.73 94.4125 1356.92 92.0232L1355.13 91.1288C1354.11 93.1768 1352.62 94.784 1350.65 95.9665L1351.68 97.6815ZM1356.91 92.0363C1358.19 89.574 1358.82 86.8104 1358.82 83.768H1356.82C1356.82 86.5283 1356.25 88.97 1355.14 91.1157L1356.91 92.0363ZM1358.82 83.768C1358.82 80.7276 1358.19 78.0356 1356.9 75.7274L1355.15 76.7046C1356.25 78.663 1356.82 81.0058 1356.82 83.768H1358.82ZM1356.91 75.7419C1355.63 73.3613 1353.83 71.514 1351.52 70.2235L1350.55 71.9685C1352.51 73.0674 1354.04 74.6334 1355.15 76.6901L1356.91 75.7419ZM1351.57 70.248C1349.33 68.8531 1346.71 68.176 1343.74 68.176V70.176C1346.4 70.176 1348.64 70.7789 1350.51 71.944L1351.57 70.248ZM1343.74 68.176C1340.85 68.176 1338.23 68.8563 1335.93 70.2385L1336.96 71.9535C1338.92 70.7757 1341.17 70.176 1343.74 70.176V68.176ZM1335.95 70.2235C1333.65 71.514 1331.85 73.3613 1330.57 75.7419L1332.33 76.6901C1333.44 74.6334 1334.97 73.0674 1336.93 71.9685L1335.95 70.2235ZM1330.57 75.7419C1329.29 78.127 1328.66 80.8544 1328.66 83.896H1330.66C1330.66 81.1349 1331.23 78.7423 1332.33 76.6901L1330.57 75.7419ZM1328.66 83.896C1328.66 86.8583 1329.29 89.5782 1330.56 92.0363L1332.34 91.1157C1331.22 88.9658 1330.66 86.5657 1330.66 83.896H1328.66ZM1330.57 92.0501C1331.85 94.425 1333.64 96.3077 1335.93 97.6815L1336.96 95.9665C1334.98 94.7803 1333.44 93.1643 1332.33 91.1019L1330.57 92.0501ZM1335.95 97.6965C1338.25 98.9842 1340.86 99.616 1343.74 99.616V97.616C1341.16 97.616 1338.9 97.0531 1336.93 95.9515L1335.95 97.6965ZM1387.54 115H1386.54V116H1387.54V115ZM1387.54 52.792V51.792H1386.54V52.792H1387.54ZM1407.12 52.792H1408.12V51.792H1407.12V52.792ZM1407.12 115V116H1408.12V115H1407.12ZM1407.12 80.824L1406.51 81.612L1408.12 82.8742V80.824H1407.12ZM1398.93 74.424L1397.95 74.2059L1397.82 74.8228L1398.31 75.212L1398.93 74.424ZM1407.12 57.528L1407.84 58.2196L1407.12 57.528ZM1430.93 52.92L1430.54 53.841L1430.56 53.8498L1430.58 53.8577L1430.93 52.92ZM1436.95 57.016L1437.73 57.6365L1438.26 56.9712L1437.68 56.3433L1436.95 57.016ZM1425.3 71.736L1424.56 72.4087L1425.35 73.2807L1426.08 72.3565L1425.3 71.736ZM1422.1 69.56L1421.73 70.4885L1422.1 69.56ZM1409.94 71.864L1409.22 71.1721L1409.21 71.1728L1409.94 71.864ZM1388.54 115V52.792H1386.54V115H1388.54ZM1387.54 53.792H1407.12V51.792H1387.54V53.792ZM1406.12 52.792V115H1408.12V52.792H1406.12ZM1407.12 114H1387.54V116H1407.12V114ZM1407.74 80.036L1399.54 73.636L1398.31 75.212L1406.51 81.612L1407.74 80.036ZM1399.9 74.6421C1401.5 67.5084 1404.17 62.0611 1407.84 58.2196L1406.4 56.8364C1402.4 61.0162 1399.6 66.833 1397.95 74.2059L1399.9 74.6421ZM1407.84 58.2196C1411.45 54.4495 1416.5 52.512 1423.12 52.512V50.512C1416.09 50.512 1410.47 52.5851 1406.4 56.8364L1407.84 58.2196ZM1423.12 52.512C1426 52.512 1428.47 52.9653 1430.54 53.841L1431.32 51.999C1428.95 50.9973 1426.21 50.512 1423.12 50.512V52.512ZM1430.58 53.8577C1432.73 54.6536 1434.6 55.9259 1436.21 57.6887L1437.68 56.3433C1435.87 54.3515 1433.74 52.8931 1431.28 51.9823L1430.58 53.8577ZM1436.16 56.3955L1424.51 71.1155L1426.08 72.3565L1437.73 57.6365L1436.16 56.3955ZM1426.04 71.0633C1425.07 70.0031 1423.88 69.1948 1422.47 68.6315L1421.73 70.4885C1422.88 70.9492 1423.81 71.5916 1424.56 72.4087L1426.04 71.0633ZM1422.47 68.6315C1421.05 68.0647 1419.47 67.792 1417.74 67.792V69.792C1419.26 69.792 1420.58 70.0313 1421.73 70.4885L1422.47 68.6315ZM1417.74 67.792C1414.27 67.792 1411.39 68.8985 1409.22 71.1721L1410.66 72.5559C1412.41 70.7335 1414.73 69.792 1417.74 69.792V67.792ZM1409.21 71.1728C1407.09 73.3938 1406.12 76.6771 1406.12 80.824H1408.12C1408.12 76.9496 1409.03 74.2595 1410.66 72.5552L1409.21 71.1728ZM1481.97 115L1481.14 115.559L1481.44 116H1481.97V115ZM1460.21 82.744L1459.4 82.1585L1458.99 82.7245L1459.38 83.3032L1460.21 82.744ZM1481.84 52.792V51.792H1481.33L1481.03 52.2065L1481.84 52.792ZM1503.73 52.792L1504.52 53.4049L1505.77 51.792H1503.73V52.792ZM1477.62 86.456L1476.62 86.3769L1476.36 89.7142L1478.41 87.0689L1477.62 86.456ZM1478.26 78.392L1479.07 77.802L1477.47 75.6249L1477.26 78.3129L1478.26 78.392ZM1505.01 115V116H1506.98L1505.82 114.41L1505.01 115ZM1442.16 115H1441.16V116H1442.16V115ZM1442.16 22.072V21.072H1441.16V22.072H1442.16ZM1461.75 22.072H1462.75V21.072H1461.75V22.072ZM1461.75 115V116H1462.75V115H1461.75ZM1482.8 114.441L1461.04 82.1848L1459.38 83.3032L1481.14 115.559L1482.8 114.441ZM1461.02 83.3295L1482.65 53.3775L1481.03 52.2065L1459.4 82.1585L1461.02 83.3295ZM1481.84 53.792H1503.73V51.792H1481.84V53.792ZM1502.94 52.1791L1476.83 85.8431L1478.41 87.0689L1504.52 53.4049L1502.94 52.1791ZM1478.61 86.5351L1479.25 78.4711L1477.26 78.3129L1476.62 86.3769L1478.61 86.5351ZM1477.45 78.982L1504.2 115.59L1505.82 114.41L1479.07 77.802L1477.45 78.982ZM1505.01 114H1481.97V116H1505.01V114ZM1443.16 115V22.072H1441.16V115H1443.16ZM1442.16 23.072H1461.75V21.072H1442.16V23.072ZM1460.75 22.072V115H1462.75V22.072H1460.75ZM1461.75 114H1442.16V116H1461.75V114ZM1520.19 115.128L1519.93 116.094L1519.93 116.095L1520.19 115.128ZM1510.33 111.16L1509.82 112.017L1509.83 112.026L1509.85 112.034L1510.33 111.16ZM1502.65 105.016L1501.94 104.313L1501.27 104.993L1501.92 105.695L1502.65 105.016ZM1513.79 93.752L1514.52 93.0737L1513.81 92.3046L1513.08 93.0489L1513.79 93.752ZM1521.08 99L1520.67 99.9104L1520.68 99.9156L1520.69 99.9206L1521.08 99ZM1535.55 99.768L1535.08 98.8856L1535.06 98.8925L1535.05 98.8998L1535.55 99.768ZM1535.16 93.496L1534.66 94.3579L1534.69 94.3752L1534.72 94.3904L1535.16 93.496ZM1529.53 91.32L1529.25 92.2788L1529.26 92.2837L1529.28 92.288L1529.53 91.32ZM1514.94 85.944L1515.45 85.0837L1514.94 85.944ZM1509.31 80.312L1508.45 80.8177L1508.45 80.8244L1508.45 80.831L1509.31 80.312ZM1510.2 60.6L1511.02 61.1767L1511.03 61.1655L1510.2 60.6ZM1518.91 53.56L1518.49 52.6496L1518.91 53.56ZM1546.68 53.816L1546.29 54.737L1546.3 54.7414L1546.32 54.7457L1546.68 53.816ZM1557.69 61.88L1558.4 62.5831L1559.02 61.9558L1558.48 61.2622L1557.69 61.88ZM1546.56 73.144L1545.79 73.7925L1546.5 74.6218L1547.27 73.8471L1546.56 73.144ZM1539.9 68.28L1539.53 69.2108L1539.55 69.215L1539.9 68.28ZM1527.87 67.896L1528.34 68.7765L1528.37 68.7628L1528.39 68.7477L1527.87 67.896ZM1534.01 75.704L1533.76 76.672L1534.01 75.704ZM1541.31 77.88L1541.62 76.9313L1541.31 77.88ZM1548.6 81.336L1549.14 80.4898L1548.6 81.336ZM1554.24 87.224L1553.37 87.7297L1553.38 87.7364L1553.38 87.743L1554.24 87.224ZM1549.5 111.16L1548.89 110.371L1548.88 110.376L1549.5 111.16ZM1531.07 115.536C1527.48 115.536 1523.94 115.078 1520.44 114.161L1519.93 116.095C1523.6 117.055 1527.31 117.536 1531.07 117.536V115.536ZM1520.45 114.162C1517.02 113.244 1513.82 111.952 1510.82 110.286L1509.85 112.034C1512.99 113.782 1516.35 115.135 1519.93 116.094L1520.45 114.162ZM1510.85 110.303C1507.93 108.554 1505.45 106.564 1503.39 104.337L1501.92 105.695C1504.12 108.076 1506.76 110.182 1509.82 112.017L1510.85 110.303ZM1503.36 105.719L1514.5 94.4551L1513.08 93.0489L1501.94 104.313L1503.36 105.719ZM1513.05 94.4303C1515.19 96.7494 1517.74 98.5766 1520.67 99.9104L1521.5 98.0896C1518.8 96.8634 1516.48 95.192 1514.52 93.0737L1513.05 94.4303ZM1520.69 99.9206C1523.64 101.172 1526.85 101.792 1530.3 101.792V99.792C1527.09 99.792 1524.16 99.2172 1521.47 98.0794L1520.69 99.9206ZM1530.3 101.792C1532.67 101.792 1534.63 101.445 1536.04 100.636L1535.05 98.8998C1534.08 99.4561 1532.53 99.792 1530.3 99.792V101.792ZM1536.02 100.65C1537.54 99.8384 1538.47 98.6018 1538.47 96.952H1536.47C1536.47 97.6916 1536.11 98.3323 1535.08 98.8856L1536.02 100.65ZM1538.47 96.952C1538.47 96.009 1538.23 95.1393 1537.72 94.3813C1537.22 93.6296 1536.5 93.0449 1535.61 92.6016L1534.72 94.3904C1535.37 94.7151 1535.79 95.0904 1536.06 95.4907C1536.32 95.8847 1536.47 96.359 1536.47 96.952H1538.47ZM1535.67 92.6341C1534.11 91.7187 1532.14 90.9638 1529.78 90.352L1529.28 92.288C1531.53 92.8708 1533.31 93.5666 1534.66 94.3579L1535.67 92.6341ZM1529.82 90.3612C1527.51 89.6789 1525.08 88.9539 1522.52 88.1862L1521.95 90.1018C1524.51 90.8701 1526.94 91.5958 1529.25 92.2788L1529.82 90.3612ZM1522.52 88.1862C1520.04 87.4416 1517.68 86.4077 1515.45 85.0837L1514.43 86.8043C1516.8 88.211 1519.31 89.3104 1521.95 90.1018L1522.52 88.1862ZM1515.45 85.0837C1513.29 83.8058 1511.53 82.0483 1510.16 79.793L1508.45 80.831C1509.99 83.3543 1511.98 85.3515 1514.43 86.8043L1515.45 85.0837ZM1510.17 79.8063C1508.83 77.5254 1508.13 74.5984 1508.13 70.968H1506.13C1506.13 74.8469 1506.88 78.1493 1508.45 80.8177L1510.17 79.8063ZM1508.13 70.968C1508.13 67.1361 1509.11 63.8879 1511.02 61.1767L1509.39 60.0233C1507.2 63.1147 1506.13 66.7786 1506.13 70.968H1508.13ZM1511.03 61.1655C1512.96 58.349 1515.71 56.1123 1519.32 54.4704L1518.49 52.6496C1514.6 54.421 1511.54 56.8776 1509.38 60.0345L1511.03 61.1655ZM1519.32 54.4704C1522.92 52.8343 1527.17 52 1532.09 52V50C1526.95 50 1522.4 50.8723 1518.49 52.6496L1519.32 54.4704ZM1532.09 52C1537.26 52 1541.99 52.9167 1546.29 54.737L1547.07 52.895C1542.5 50.9606 1537.5 50 1532.09 50V52ZM1546.32 54.7457C1550.69 56.4771 1554.21 59.0623 1556.91 62.4978L1558.48 61.2622C1555.55 57.5297 1551.73 54.7389 1547.05 52.8863L1546.32 54.7457ZM1556.98 61.1769L1545.84 72.4409L1547.27 73.8471L1558.4 62.5831L1556.98 61.1769ZM1547.32 72.4955C1545.26 70.0819 1542.91 68.3515 1540.25 67.345L1539.55 69.215C1541.84 70.0858 1543.93 71.5981 1545.79 73.7925L1547.32 72.4955ZM1540.27 67.3493C1537.77 66.37 1535.3 65.872 1532.86 65.872V67.872C1535.03 67.872 1537.25 68.3126 1539.53 69.2107L1540.27 67.3493ZM1532.86 65.872C1530.57 65.872 1528.69 66.2183 1527.34 67.0443L1528.39 68.7477C1529.27 68.2084 1530.71 67.872 1532.86 67.872V65.872ZM1527.39 67.0155C1526.72 67.381 1526.16 67.866 1525.77 68.4896C1525.38 69.1161 1525.2 69.8262 1525.2 70.584H1527.2C1527.2 70.1471 1527.3 69.8119 1527.47 69.5424C1527.64 69.27 1527.91 69.0084 1528.34 68.7765L1527.39 67.0155ZM1525.2 70.584C1525.2 72.3429 1526.24 73.6559 1527.91 74.5398L1528.85 72.7722C1527.62 72.1201 1527.2 71.3851 1527.2 70.584H1525.2ZM1527.91 74.5398C1529.45 75.3565 1531.41 76.063 1533.76 76.672L1534.26 74.736C1532 74.1503 1530.21 73.4915 1528.85 72.7722L1527.91 74.5398ZM1533.76 76.672C1536.04 77.2629 1538.45 77.9816 1540.99 78.8287L1541.62 76.9313C1539.05 76.0717 1536.59 75.3397 1534.26 74.736L1533.76 76.672ZM1540.99 78.8287C1543.48 79.6564 1545.83 80.7739 1548.07 82.1822L1549.14 80.4898C1546.77 78.9968 1544.26 77.8102 1541.62 76.9313L1540.99 78.8287ZM1548.07 82.1822C1550.23 83.5429 1552 85.3857 1553.37 87.7297L1555.1 86.7183C1553.57 84.1129 1551.58 82.0304 1549.14 80.4898L1548.07 82.1822ZM1553.38 87.743C1554.71 89.9249 1555.41 92.8831 1555.41 96.696H1557.41C1557.41 92.6582 1556.67 89.3018 1555.09 86.705L1553.38 87.743ZM1555.41 96.696C1555.41 102.46 1553.24 106.984 1548.89 110.371L1550.11 111.949C1554.98 108.168 1557.41 103.05 1557.41 96.696H1555.41ZM1548.88 110.376C1544.59 113.779 1538.69 115.536 1531.07 115.536V117.536C1538.98 117.536 1545.37 115.709 1550.12 111.944L1548.88 110.376Z" fill="#444444" mask="url(#path-2-outside-1_1_8318)"/>
</svg>
