<svg width="1440" height="136" viewBox="0 0 1440 136" fill="none" xmlns="http://www.w3.org/2000/svg">
<path d="M-261.296 115V24.632H-241.2V115H-261.296ZM-205.36 115V24.632H-185.136V115H-205.36ZM-249.264 77.24V59.832H-198.704V77.24H-249.264ZM-139.636 116.408C-146.036 116.408 -151.839 115 -157.044 112.184C-162.164 109.283 -166.217 105.357 -169.204 100.408C-172.191 95.4587 -173.684 89.912 -173.684 83.768C-173.684 77.624 -172.191 72.12 -169.204 67.256C-166.217 62.392 -162.164 58.552 -157.044 55.736C-151.924 52.8347 -146.121 51.384 -139.636 51.384C-133.151 51.384 -127.348 52.792 -122.228 55.608C-117.108 58.424 -113.055 62.3067 -110.068 67.256C-107.081 72.12 -105.588 77.624 -105.588 83.768C-105.588 89.912 -107.081 95.4587 -110.068 100.408C-113.055 105.357 -117.108 109.283 -122.228 112.184C-127.348 115 -133.151 116.408 -139.636 116.408ZM-139.636 98.616C-136.82 98.616 -134.345 98.0187 -132.212 96.824C-130.079 95.544 -128.457 93.7947 -127.348 91.576C-126.153 89.272 -125.556 86.6693 -125.556 83.768C-125.556 80.8667 -126.153 78.3493 -127.348 76.216C-128.543 73.9973 -130.207 72.2907 -132.34 71.096C-134.388 69.816 -136.82 69.176 -139.636 69.176C-142.367 69.176 -144.799 69.816 -146.932 71.096C-149.065 72.2907 -150.729 73.9973 -151.924 76.216C-153.119 78.4347 -153.716 80.9947 -153.716 83.896C-153.716 86.712 -153.119 89.272 -151.924 91.576C-150.729 93.7947 -149.065 95.544 -146.932 96.824C-144.799 98.0187 -142.367 98.616 -139.636 98.616ZM-81.856 115L-103.36 52.792H-84.16L-70.848 97.976L-76.48 98.104L-61.76 52.792H-45.888L-31.04 98.104L-36.8 97.976L-23.36 52.792H-4.16L-25.664 115H-41.664L-56.128 71.992H-51.264L-65.984 115H-81.856ZM44.939 115V99.384H66.187C70.1123 99.384 73.1843 98.232 75.403 95.928C77.6217 93.624 78.731 90.808 78.731 87.48C78.731 85.176 78.219 83.128 77.195 81.336C76.171 79.544 74.7203 78.136 72.843 77.112C71.051 76.088 68.8323 75.576 66.187 75.576H44.939V60.344H64.523C67.851 60.344 70.539 59.5333 72.587 57.912C74.635 56.2053 75.659 53.6453 75.659 50.232C75.659 46.904 74.635 44.4293 72.587 42.808C70.539 41.1013 67.851 40.248 64.523 40.248H44.939V24.632H68.363C74.1657 24.632 79.0723 25.6987 83.083 27.832C87.179 29.9653 90.2937 32.824 92.427 36.408C94.5603 39.992 95.627 43.96 95.627 48.312C95.627 53.8587 93.835 58.552 90.251 62.392C86.667 66.232 81.3763 68.8773 74.379 70.328L74.891 63.544C82.4857 64.9947 88.331 67.9387 92.427 72.376C96.6083 76.8133 98.699 82.2747 98.699 88.76C98.699 93.7093 97.4617 98.1893 94.987 102.2C92.5977 106.125 89.099 109.24 84.491 111.544C79.9683 113.848 74.507 115 68.107 115H44.939ZM29.579 115V24.632H49.419V115H29.579ZM137.435 116.408C131.718 116.408 126.64 115.256 122.203 112.952C117.851 110.563 114.438 107.32 111.963 103.224C109.488 99.0427 108.251 94.264 108.251 88.888V52.792H127.835V88.632C127.835 90.7653 128.176 92.6 128.859 94.136C129.627 95.672 130.736 96.8667 132.187 97.72C133.638 98.5733 135.387 99 137.435 99C140.336 99 142.64 98.104 144.347 96.312C146.054 94.4347 146.907 91.8747 146.907 88.632V52.792H166.491V88.76C166.491 94.2213 165.254 99.0427 162.779 103.224C160.304 107.32 156.891 110.563 152.539 112.952C148.187 115.256 143.152 116.408 137.435 116.408ZM205.283 116.28C199.395 116.28 194.147 114.872 189.539 112.056C185.016 109.24 181.432 105.4 178.787 100.536C176.227 95.672 174.947 90.1253 174.947 83.896C174.947 77.6667 176.227 72.12 178.787 67.256C181.432 62.392 185.016 58.552 189.539 55.736C194.147 52.92 199.395 51.512 205.283 51.512C209.55 51.512 213.39 52.3227 216.803 53.944C220.302 55.5653 223.16 57.8267 225.379 60.728C227.683 63.544 228.963 66.7867 229.219 70.456V96.696C228.963 100.365 227.726 103.693 225.507 106.68C223.288 109.581 220.43 111.928 216.931 113.72C213.432 115.427 209.55 116.28 205.283 116.28ZM208.739 98.616C211.555 98.616 213.987 98.0187 216.035 96.824C218.083 95.544 219.704 93.7947 220.899 91.576C222.094 89.3573 222.691 86.7973 222.691 83.896C222.691 80.9947 222.094 78.4773 220.899 76.344C219.79 74.1253 218.168 72.376 216.035 71.096C213.987 69.816 211.598 69.176 208.867 69.176C206.136 69.176 203.704 69.816 201.571 71.096C199.523 72.376 197.859 74.1253 196.579 76.344C195.384 78.5627 194.787 81.08 194.787 83.896C194.787 86.712 195.384 89.2293 196.579 91.448C197.774 93.6667 199.438 95.416 201.571 96.696C203.704 97.976 206.094 98.616 208.739 98.616ZM241.123 115H221.923V98.232L224.867 83.128L221.539 68.024V22.072H241.123V115ZM277.568 116.536C273.899 116.536 270.272 116.067 266.688 115.128C263.189 114.189 259.904 112.867 256.832 111.16C253.845 109.368 251.285 107.32 249.152 105.016L260.288 93.752C262.336 95.9707 264.768 97.72 267.584 99C270.4 100.195 273.472 100.792 276.8 100.792C279.104 100.792 280.853 100.451 282.048 99.768C283.328 99.0853 283.968 98.1467 283.968 96.952C283.968 95.416 283.2 94.264 281.664 93.496C280.213 92.6427 278.336 91.9173 276.032 91.32C273.728 90.6373 271.296 89.912 268.736 89.144C266.176 88.376 263.744 87.3093 261.44 85.944C259.136 84.5787 257.259 82.7013 255.808 80.312C254.357 77.8373 253.632 74.7227 253.632 70.968C253.632 66.9573 254.656 63.5013 256.704 60.6C258.752 57.6133 261.653 55.2667 265.408 53.56C269.163 51.8533 273.557 51 278.592 51C283.883 51 288.747 51.9387 293.184 53.816C297.707 55.608 301.376 58.296 304.192 61.88L293.056 73.144C291.093 70.84 288.875 69.2187 286.4 68.28C284.011 67.3413 281.664 66.872 279.36 66.872C277.141 66.872 275.477 67.2133 274.368 67.896C273.259 68.4933 272.704 69.3893 272.704 70.584C272.704 71.864 273.429 72.888 274.88 73.656C276.331 74.424 278.208 75.1067 280.512 75.704C282.816 76.3013 285.248 77.0267 287.808 77.88C290.368 78.7333 292.8 79.8853 295.104 81.336C297.408 82.7867 299.285 84.7493 300.736 87.224C302.187 89.6133 302.912 92.7707 302.912 96.696C302.912 102.755 300.608 107.576 296 111.16C291.477 114.744 285.333 116.536 277.568 116.536ZM336.193 116.536C332.524 116.536 328.897 116.067 325.313 115.128C321.814 114.189 318.529 112.867 315.457 111.16C312.47 109.368 309.91 107.32 307.777 105.016L318.913 93.752C320.961 95.9707 323.393 97.72 326.209 99C329.025 100.195 332.097 100.792 335.425 100.792C337.729 100.792 339.478 100.451 340.673 99.768C341.953 99.0853 342.593 98.1467 342.593 96.952C342.593 95.416 341.825 94.264 340.289 93.496C338.838 92.6427 336.961 91.9173 334.657 91.32C332.353 90.6373 329.921 89.912 327.361 89.144C324.801 88.376 322.369 87.3093 320.065 85.944C317.761 84.5787 315.884 82.7013 314.433 80.312C312.982 77.8373 312.257 74.7227 312.257 70.968C312.257 66.9573 313.281 63.5013 315.329 60.6C317.377 57.6133 320.278 55.2667 324.033 53.56C327.788 51.8533 332.182 51 337.217 51C342.508 51 347.372 51.9387 351.809 53.816C356.332 55.608 360.001 58.296 362.817 61.88L351.681 73.144C349.718 70.84 347.5 69.2187 345.025 68.28C342.636 67.3413 340.289 66.872 337.985 66.872C335.766 66.872 334.102 67.2133 332.993 67.896C331.884 68.4933 331.329 69.3893 331.329 70.584C331.329 71.864 332.054 72.888 333.505 73.656C334.956 74.424 336.833 75.1067 339.137 75.704C341.441 76.3013 343.873 77.0267 346.433 77.88C348.993 78.7333 351.425 79.8853 353.729 81.336C356.033 82.7867 357.91 84.7493 359.361 87.224C360.812 89.6133 361.537 92.7707 361.537 96.696C361.537 102.755 359.233 107.576 354.625 111.16C350.102 114.744 343.958 116.536 336.193 116.536ZM420.857 115L391.801 24.632H411.769L433.017 94.136H425.209L445.945 24.632H461.689L482.425 94.136H474.745L495.865 24.632H515.705L486.649 115H470.905L450.041 45.496H457.465L436.601 115H420.857ZM546.739 116.408C540.339 116.408 534.536 115 529.331 112.184C524.211 109.283 520.158 105.357 517.171 100.408C514.184 95.4587 512.691 89.912 512.691 83.768C512.691 77.624 514.184 72.12 517.171 67.256C520.158 62.392 524.211 58.552 529.331 55.736C534.451 52.8347 540.254 51.384 546.739 51.384C553.224 51.384 559.027 52.792 564.147 55.608C569.267 58.424 573.32 62.3067 576.307 67.256C579.294 72.12 580.787 77.624 580.787 83.768C580.787 89.912 579.294 95.4587 576.307 100.408C573.32 105.357 569.267 109.283 564.147 112.184C559.027 115 553.224 116.408 546.739 116.408ZM546.739 98.616C549.555 98.616 552.03 98.0187 554.163 96.824C556.296 95.544 557.918 93.7947 559.027 91.576C560.222 89.272 560.819 86.6693 560.819 83.768C560.819 80.8667 560.222 78.3493 559.027 76.216C557.832 73.9973 556.168 72.2907 554.035 71.096C551.987 69.816 549.555 69.176 546.739 69.176C544.008 69.176 541.576 69.816 539.443 71.096C537.31 72.2907 535.646 73.9973 534.451 76.216C533.256 78.4347 532.659 80.9947 532.659 83.896C532.659 86.712 533.256 89.272 534.451 91.576C535.646 93.7947 537.31 95.544 539.443 96.824C541.576 98.0187 544.008 98.616 546.739 98.616ZM590.537 115V52.792H610.121V115H590.537ZM610.121 80.824L601.929 74.424C603.55 67.1707 606.281 61.5387 610.121 57.528C613.961 53.5173 619.294 51.512 626.121 51.512C629.108 51.512 631.71 51.9813 633.929 52.92C636.233 53.7733 638.238 55.1387 639.945 57.016L628.297 71.736C627.444 70.7973 626.377 70.072 625.097 69.56C623.817 69.048 622.366 68.792 620.745 68.792C617.502 68.792 614.9 69.816 612.937 71.864C611.06 73.8267 610.121 76.8133 610.121 80.824ZM684.97 115L663.21 82.744L684.842 52.792H706.73L680.618 86.456L681.258 78.392L708.01 115H684.97ZM645.162 115V22.072H664.746V115H645.162ZM734.068 116.536C730.399 116.536 726.772 116.067 723.188 115.128C719.689 114.189 716.404 112.867 713.332 111.16C710.345 109.368 707.785 107.32 705.652 105.016L716.788 93.752C718.836 95.9707 721.268 97.72 724.084 99C726.9 100.195 729.972 100.792 733.3 100.792C735.604 100.792 737.353 100.451 738.548 99.768C739.828 99.0853 740.468 98.1467 740.468 96.952C740.468 95.416 739.7 94.264 738.164 93.496C736.713 92.6427 734.836 91.9173 732.532 91.32C730.228 90.6373 727.796 89.912 725.236 89.144C722.676 88.376 720.244 87.3093 717.94 85.944C715.636 84.5787 713.759 82.7013 712.308 80.312C710.857 77.8373 710.132 74.7227 710.132 70.968C710.132 66.9573 711.156 63.5013 713.204 60.6C715.252 57.6133 718.153 55.2667 721.908 53.56C725.663 51.8533 730.057 51 735.092 51C740.383 51 745.247 51.9387 749.684 53.816C754.207 55.608 757.876 58.296 760.692 61.88L749.556 73.144C747.593 70.84 745.375 69.2187 742.9 68.28C740.511 67.3413 738.164 66.872 735.86 66.872C733.641 66.872 731.977 67.2133 730.868 67.896C729.759 68.4933 729.204 69.3893 729.204 70.584C729.204 71.864 729.929 72.888 731.38 73.656C732.831 74.424 734.708 75.1067 737.012 75.704C739.316 76.3013 741.748 77.0267 744.308 77.88C746.868 78.7333 749.3 79.8853 751.604 81.336C753.908 82.7867 755.785 84.7493 757.236 87.224C758.687 89.6133 759.412 92.7707 759.412 96.696C759.412 102.755 757.108 107.576 752.5 111.16C747.977 114.744 741.833 116.536 734.068 116.536Z" fill="#2FDBBC"/>
<mask id="path-2-outside-1_1_8311" maskUnits="userSpaceOnUse" x="791" y="21" width="1026" height="97" fill="black">
<rect fill="white" x="791" y="21" width="1026" height="97"/>
<path d="M792.704 115V24.632H812.8V115H792.704ZM848.64 115V24.632H868.864V115H848.64ZM804.736 77.24V59.832H855.296V77.24H804.736ZM914.364 116.408C907.964 116.408 902.161 115 896.956 112.184C891.836 109.283 887.783 105.357 884.796 100.408C881.809 95.4587 880.316 89.912 880.316 83.768C880.316 77.624 881.809 72.12 884.796 67.256C887.783 62.392 891.836 58.552 896.956 55.736C902.076 52.8347 907.879 51.384 914.364 51.384C920.849 51.384 926.652 52.792 931.772 55.608C936.892 58.424 940.945 62.3067 943.932 67.256C946.919 72.12 948.412 77.624 948.412 83.768C948.412 89.912 946.919 95.4587 943.932 100.408C940.945 105.357 936.892 109.283 931.772 112.184C926.652 115 920.849 116.408 914.364 116.408ZM914.364 98.616C917.18 98.616 919.655 98.0187 921.788 96.824C923.921 95.544 925.543 93.7947 926.652 91.576C927.847 89.272 928.444 86.6693 928.444 83.768C928.444 80.8667 927.847 78.3493 926.652 76.216C925.457 73.9973 923.793 72.2907 921.66 71.096C919.612 69.816 917.18 69.176 914.364 69.176C911.633 69.176 909.201 69.816 907.068 71.096C904.935 72.2907 903.271 73.9973 902.076 76.216C900.881 78.4347 900.284 80.9947 900.284 83.896C900.284 86.712 900.881 89.272 902.076 91.576C903.271 93.7947 904.935 95.544 907.068 96.824C909.201 98.0187 911.633 98.616 914.364 98.616ZM972.144 115L950.64 52.792H969.84L983.152 97.976L977.52 98.104L992.24 52.792H1008.11L1022.96 98.104L1017.2 97.976L1030.64 52.792H1049.84L1028.34 115H1012.34L997.872 71.992H1002.74L988.016 115H972.144ZM1098.94 115V99.384H1120.19C1124.11 99.384 1127.18 98.232 1129.4 95.928C1131.62 93.624 1132.73 90.808 1132.73 87.48C1132.73 85.176 1132.22 83.128 1131.2 81.336C1130.17 79.544 1128.72 78.136 1126.84 77.112C1125.05 76.088 1122.83 75.576 1120.19 75.576H1098.94V60.344H1118.52C1121.85 60.344 1124.54 59.5333 1126.59 57.912C1128.64 56.2053 1129.66 53.6453 1129.66 50.232C1129.66 46.904 1128.64 44.4293 1126.59 42.808C1124.54 41.1013 1121.85 40.248 1118.52 40.248H1098.94V24.632H1122.36C1128.17 24.632 1133.07 25.6987 1137.08 27.832C1141.18 29.9653 1144.29 32.824 1146.43 36.408C1148.56 39.992 1149.63 43.96 1149.63 48.312C1149.63 53.8587 1147.84 58.552 1144.25 62.392C1140.67 66.232 1135.38 68.8773 1128.38 70.328L1128.89 63.544C1136.49 64.9947 1142.33 67.9387 1146.43 72.376C1150.61 76.8133 1152.7 82.2747 1152.7 88.76C1152.7 93.7093 1151.46 98.1893 1148.99 102.2C1146.6 106.125 1143.1 109.24 1138.49 111.544C1133.97 113.848 1128.51 115 1122.11 115H1098.94ZM1083.58 115V24.632H1103.42V115H1083.58ZM1191.44 116.408C1185.72 116.408 1180.64 115.256 1176.2 112.952C1171.85 110.563 1168.44 107.32 1165.96 103.224C1163.49 99.0427 1162.25 94.264 1162.25 88.888V52.792H1181.84V88.632C1181.84 90.7653 1182.18 92.6 1182.86 94.136C1183.63 95.672 1184.74 96.8667 1186.19 97.72C1187.64 98.5733 1189.39 99 1191.44 99C1194.34 99 1196.64 98.104 1198.35 96.312C1200.05 94.4347 1200.91 91.8747 1200.91 88.632V52.792H1220.49V88.76C1220.49 94.2213 1219.25 99.0427 1216.78 103.224C1214.3 107.32 1210.89 110.563 1206.54 112.952C1202.19 115.256 1197.15 116.408 1191.44 116.408ZM1259.28 116.28C1253.4 116.28 1248.15 114.872 1243.54 112.056C1239.02 109.24 1235.43 105.4 1232.79 100.536C1230.23 95.672 1228.95 90.1253 1228.95 83.896C1228.95 77.6667 1230.23 72.12 1232.79 67.256C1235.43 62.392 1239.02 58.552 1243.54 55.736C1248.15 52.92 1253.4 51.512 1259.28 51.512C1263.55 51.512 1267.39 52.3227 1270.8 53.944C1274.3 55.5653 1277.16 57.8267 1279.38 60.728C1281.68 63.544 1282.96 66.7867 1283.22 70.456V96.696C1282.96 100.365 1281.73 103.693 1279.51 106.68C1277.29 109.581 1274.43 111.928 1270.93 113.72C1267.43 115.427 1263.55 116.28 1259.28 116.28ZM1262.74 98.616C1265.56 98.616 1267.99 98.0187 1270.04 96.824C1272.08 95.544 1273.7 93.7947 1274.9 91.576C1276.09 89.3573 1276.69 86.7973 1276.69 83.896C1276.69 80.9947 1276.09 78.4773 1274.9 76.344C1273.79 74.1253 1272.17 72.376 1270.04 71.096C1267.99 69.816 1265.6 69.176 1262.87 69.176C1260.14 69.176 1257.7 69.816 1255.57 71.096C1253.52 72.376 1251.86 74.1253 1250.58 76.344C1249.38 78.5627 1248.79 81.08 1248.79 83.896C1248.79 86.712 1249.38 89.2293 1250.58 91.448C1251.77 93.6667 1253.44 95.416 1255.57 96.696C1257.7 97.976 1260.09 98.616 1262.74 98.616ZM1295.12 115H1275.92V98.232L1278.87 83.128L1275.54 68.024V22.072H1295.12V115ZM1331.57 116.536C1327.9 116.536 1324.27 116.067 1320.69 115.128C1317.19 114.189 1313.9 112.867 1310.83 111.16C1307.85 109.368 1305.29 107.32 1303.15 105.016L1314.29 93.752C1316.34 95.9707 1318.77 97.72 1321.58 99C1324.4 100.195 1327.47 100.792 1330.8 100.792C1333.1 100.792 1334.85 100.451 1336.05 99.768C1337.33 99.0853 1337.97 98.1467 1337.97 96.952C1337.97 95.416 1337.2 94.264 1335.66 93.496C1334.21 92.6427 1332.34 91.9173 1330.03 91.32C1327.73 90.6373 1325.3 89.912 1322.74 89.144C1320.18 88.376 1317.74 87.3093 1315.44 85.944C1313.14 84.5787 1311.26 82.7013 1309.81 80.312C1308.36 77.8373 1307.63 74.7227 1307.63 70.968C1307.63 66.9573 1308.66 63.5013 1310.7 60.6C1312.75 57.6133 1315.65 55.2667 1319.41 53.56C1323.16 51.8533 1327.56 51 1332.59 51C1337.88 51 1342.75 51.9387 1347.18 53.816C1351.71 55.608 1355.38 58.296 1358.19 61.88L1347.06 73.144C1345.09 70.84 1342.87 69.2187 1340.4 68.28C1338.01 67.3413 1335.66 66.872 1333.36 66.872C1331.14 66.872 1329.48 67.2133 1328.37 67.896C1327.26 68.4933 1326.7 69.3893 1326.7 70.584C1326.7 71.864 1327.43 72.888 1328.88 73.656C1330.33 74.424 1332.21 75.1067 1334.51 75.704C1336.82 76.3013 1339.25 77.0267 1341.81 77.88C1344.37 78.7333 1346.8 79.8853 1349.1 81.336C1351.41 82.7867 1353.29 84.7493 1354.74 87.224C1356.19 89.6133 1356.91 92.7707 1356.91 96.696C1356.91 102.755 1354.61 107.576 1350 111.16C1345.48 114.744 1339.33 116.536 1331.57 116.536ZM1390.19 116.536C1386.52 116.536 1382.9 116.067 1379.31 115.128C1375.81 114.189 1372.53 112.867 1369.46 111.16C1366.47 109.368 1363.91 107.32 1361.78 105.016L1372.91 93.752C1374.96 95.9707 1377.39 97.72 1380.21 99C1383.03 100.195 1386.1 100.792 1389.43 100.792C1391.73 100.792 1393.48 100.451 1394.67 99.768C1395.95 99.0853 1396.59 98.1467 1396.59 96.952C1396.59 95.416 1395.83 94.264 1394.29 93.496C1392.84 92.6427 1390.96 91.9173 1388.66 91.32C1386.35 90.6373 1383.92 89.912 1381.36 89.144C1378.8 88.376 1376.37 87.3093 1374.07 85.944C1371.76 84.5787 1369.88 82.7013 1368.43 80.312C1366.98 77.8373 1366.26 74.7227 1366.26 70.968C1366.26 66.9573 1367.28 63.5013 1369.33 60.6C1371.38 57.6133 1374.28 55.2667 1378.03 53.56C1381.79 51.8533 1386.18 51 1391.22 51C1396.51 51 1401.37 51.9387 1405.81 53.816C1410.33 55.608 1414 58.296 1416.82 61.88L1405.68 73.144C1403.72 70.84 1401.5 69.2187 1399.03 68.28C1396.64 67.3413 1394.29 66.872 1391.99 66.872C1389.77 66.872 1388.1 67.2133 1386.99 67.896C1385.88 68.4933 1385.33 69.3893 1385.33 70.584C1385.33 71.864 1386.05 72.888 1387.51 73.656C1388.96 74.424 1390.83 75.1067 1393.14 75.704C1395.44 76.3013 1397.87 77.0267 1400.43 77.88C1402.99 78.7333 1405.43 79.8853 1407.73 81.336C1410.03 82.7867 1411.91 84.7493 1413.36 87.224C1414.81 89.6133 1415.54 92.7707 1415.54 96.696C1415.54 102.755 1413.23 107.576 1408.63 111.16C1404.1 114.744 1397.96 116.536 1390.19 116.536ZM1474.86 115L1445.8 24.632H1465.77L1487.02 94.136H1479.21L1499.95 24.632H1515.69L1536.43 94.136H1528.75L1549.87 24.632H1569.71L1540.65 115H1524.91L1504.04 45.496H1511.47L1490.6 115H1474.86ZM1600.74 116.408C1594.34 116.408 1588.54 115 1583.33 112.184C1578.21 109.283 1574.16 105.357 1571.17 100.408C1568.18 95.4587 1566.69 89.912 1566.69 83.768C1566.69 77.624 1568.18 72.12 1571.17 67.256C1574.16 62.392 1578.21 58.552 1583.33 55.736C1588.45 52.8347 1594.25 51.384 1600.74 51.384C1607.22 51.384 1613.03 52.792 1618.15 55.608C1623.27 58.424 1627.32 62.3067 1630.31 67.256C1633.29 72.12 1634.79 77.624 1634.79 83.768C1634.79 89.912 1633.29 95.4587 1630.31 100.408C1627.32 105.357 1623.27 109.283 1618.15 112.184C1613.03 115 1607.22 116.408 1600.74 116.408ZM1600.74 98.616C1603.56 98.616 1606.03 98.0187 1608.16 96.824C1610.3 95.544 1611.92 93.7947 1613.03 91.576C1614.22 89.272 1614.82 86.6693 1614.82 83.768C1614.82 80.8667 1614.22 78.3493 1613.03 76.216C1611.83 73.9973 1610.17 72.2907 1608.04 71.096C1605.99 69.816 1603.56 69.176 1600.74 69.176C1598.01 69.176 1595.58 69.816 1593.44 71.096C1591.31 72.2907 1589.65 73.9973 1588.45 76.216C1587.26 78.4347 1586.66 80.9947 1586.66 83.896C1586.66 86.712 1587.26 89.272 1588.45 91.576C1589.65 93.7947 1591.31 95.544 1593.44 96.824C1595.58 98.0187 1598.01 98.616 1600.74 98.616ZM1644.54 115V52.792H1664.12V115H1644.54ZM1664.12 80.824L1655.93 74.424C1657.55 67.1707 1660.28 61.5387 1664.12 57.528C1667.96 53.5173 1673.29 51.512 1680.12 51.512C1683.11 51.512 1685.71 51.9813 1687.93 52.92C1690.23 53.7733 1692.24 55.1387 1693.95 57.016L1682.3 71.736C1681.44 70.7973 1680.38 70.072 1679.1 69.56C1677.82 69.048 1676.37 68.792 1674.75 68.792C1671.5 68.792 1668.9 69.816 1666.94 71.864C1665.06 73.8267 1664.12 76.8133 1664.12 80.824ZM1738.97 115L1717.21 82.744L1738.84 52.792H1760.73L1734.62 86.456L1735.26 78.392L1762.01 115H1738.97ZM1699.16 115V22.072H1718.75V115H1699.16ZM1788.07 116.536C1784.4 116.536 1780.77 116.067 1777.19 115.128C1773.69 114.189 1770.4 112.867 1767.33 111.16C1764.35 109.368 1761.79 107.32 1759.65 105.016L1770.79 93.752C1772.84 95.9707 1775.27 97.72 1778.08 99C1780.9 100.195 1783.97 100.792 1787.3 100.792C1789.6 100.792 1791.35 100.451 1792.55 99.768C1793.83 99.0853 1794.47 98.1467 1794.47 96.952C1794.47 95.416 1793.7 94.264 1792.16 93.496C1790.71 92.6427 1788.84 91.9173 1786.53 91.32C1784.23 90.6373 1781.8 89.912 1779.24 89.144C1776.68 88.376 1774.24 87.3093 1771.94 85.944C1769.64 84.5787 1767.76 82.7013 1766.31 80.312C1764.86 77.8373 1764.13 74.7227 1764.13 70.968C1764.13 66.9573 1765.16 63.5013 1767.2 60.6C1769.25 57.6133 1772.15 55.2667 1775.91 53.56C1779.66 51.8533 1784.06 51 1789.09 51C1794.38 51 1799.25 51.9387 1803.68 53.816C1808.21 55.608 1811.88 58.296 1814.69 61.88L1803.56 73.144C1801.59 70.84 1799.37 69.2187 1796.9 68.28C1794.51 67.3413 1792.16 66.872 1789.86 66.872C1787.64 66.872 1785.98 67.2133 1784.87 67.896C1783.76 68.4933 1783.2 69.3893 1783.2 70.584C1783.2 71.864 1783.93 72.888 1785.38 73.656C1786.83 74.424 1788.71 75.1067 1791.01 75.704C1793.32 76.3013 1795.75 77.0267 1798.31 77.88C1800.87 78.7333 1803.3 79.8853 1805.6 81.336C1807.91 82.7867 1809.79 84.7493 1811.24 87.224C1812.69 89.6133 1813.41 92.7707 1813.41 96.696C1813.41 102.755 1811.11 107.576 1806.5 111.16C1801.98 114.744 1795.83 116.536 1788.07 116.536Z"/>
</mask>
<path d="M792.704 115H791.704V116H792.704V115ZM792.704 24.632V23.632H791.704V24.632H792.704ZM812.8 24.632H813.8V23.632H812.8V24.632ZM812.8 115V116H813.8V115H812.8ZM848.64 115H847.64V116H848.64V115ZM848.64 24.632V23.632H847.64V24.632H848.64ZM868.864 24.632H869.864V23.632H868.864V24.632ZM868.864 115V116H869.864V115H868.864ZM804.736 77.24H803.736V78.24H804.736V77.24ZM804.736 59.832V58.832H803.736V59.832H804.736ZM855.296 59.832H856.296V58.832H855.296V59.832ZM855.296 77.24V78.24H856.296V77.24H855.296ZM793.704 115V24.632H791.704V115H793.704ZM792.704 25.632H812.8V23.632H792.704V25.632ZM811.8 24.632V115H813.8V24.632H811.8ZM812.8 114H792.704V116H812.8V114ZM849.64 115V24.632H847.64V115H849.64ZM848.64 25.632H868.864V23.632H848.64V25.632ZM867.864 24.632V115H869.864V24.632H867.864ZM868.864 114H848.64V116H868.864V114ZM805.736 77.24V59.832H803.736V77.24H805.736ZM804.736 60.832H855.296V58.832H804.736V60.832ZM854.296 59.832V77.24H856.296V59.832H854.296ZM855.296 76.24H804.736V78.24H855.296V76.24ZM896.956 112.184L896.463 113.054L896.472 113.059L896.48 113.064L896.956 112.184ZM884.796 100.408L885.652 99.8913L884.796 100.408ZM884.796 67.256L883.944 66.7327L884.796 67.256ZM896.956 55.736L897.438 56.6123L897.449 56.606L896.956 55.736ZM943.932 67.256L943.076 67.7727L943.08 67.7793L943.932 67.256ZM943.932 100.408L944.788 100.925L943.932 100.408ZM931.772 112.184L932.254 113.06L932.265 113.054L931.772 112.184ZM921.788 96.824L922.277 97.6965L922.29 97.6892L922.302 97.6815L921.788 96.824ZM926.652 91.576L925.764 91.1157L925.761 91.1222L925.758 91.1288L926.652 91.576ZM926.652 76.216L925.772 76.6901L925.775 76.6974L925.779 76.7046L926.652 76.216ZM921.66 71.096L921.13 71.944L921.15 71.9567L921.171 71.9685L921.66 71.096ZM907.068 71.096L907.557 71.9685L907.57 71.9612L907.582 71.9535L907.068 71.096ZM902.076 76.216L902.956 76.6901L902.076 76.216ZM902.076 91.576L901.188 92.0363L901.192 92.0432L901.196 92.0501L902.076 91.576ZM907.068 96.824L906.554 97.6815L906.566 97.6892L906.579 97.6965L907.068 96.824ZM914.364 115.408C908.116 115.408 902.479 114.035 897.432 111.304L896.48 113.064C901.843 115.965 907.812 117.408 914.364 117.408V115.408ZM897.449 111.314C892.476 108.496 888.548 104.691 885.652 99.8913L883.94 100.925C887.017 106.024 891.196 110.07 896.463 113.054L897.449 111.314ZM885.652 99.8913C882.766 95.1078 881.316 89.7418 881.316 83.768H879.316C879.316 90.0822 880.853 95.8095 883.94 100.925L885.652 99.8913ZM881.316 83.768C881.316 77.7941 882.766 72.4738 885.648 67.7793L883.944 66.7327C880.853 71.7662 879.316 77.4539 879.316 83.768H881.316ZM885.648 67.7793C888.542 63.0667 892.466 59.3467 897.438 56.6122L896.474 54.8598C891.206 57.7573 887.023 61.7173 883.944 66.7327L885.648 67.7793ZM897.449 56.606C902.404 53.7984 908.033 52.384 914.364 52.384V50.384C907.724 50.384 901.748 51.871 896.463 54.866L897.449 56.606ZM914.364 52.384C920.7 52.384 926.333 53.7581 931.29 56.4842L932.254 54.7318C926.971 51.8259 920.999 50.384 914.364 50.384V52.384ZM931.29 56.4842C936.258 59.2164 940.181 62.9757 943.076 67.7727L944.788 66.7393C941.71 61.6376 937.526 57.6316 932.254 54.7318L931.29 56.4842ZM943.08 67.7793C945.962 72.4738 947.412 77.7941 947.412 83.768H949.412C949.412 77.4539 947.875 71.7662 944.784 66.7327L943.08 67.7793ZM947.412 83.768C947.412 89.7418 945.962 95.1078 943.076 99.8913L944.788 100.925C947.875 95.8095 949.412 90.0822 949.412 83.768H947.412ZM943.076 99.8913C940.18 104.691 936.252 108.496 931.279 111.314L932.265 113.054C937.532 110.07 941.711 106.024 944.788 100.925L943.076 99.8913ZM931.29 111.308C926.333 114.034 920.7 115.408 914.364 115.408V117.408C920.999 117.408 926.971 115.966 932.254 113.06L931.29 111.308ZM914.364 99.616C917.325 99.616 919.973 98.9867 922.277 97.6965L921.299 95.9515C919.337 97.0506 917.035 97.616 914.364 97.616V99.616ZM922.302 97.6815C924.598 96.3039 926.352 94.4125 927.546 92.0232L925.758 91.1288C924.734 93.1768 923.244 94.784 921.274 95.9665L922.302 97.6815ZM927.54 92.0363C928.817 89.574 929.444 86.8104 929.444 83.768H927.444C927.444 86.5283 926.877 88.97 925.764 91.1157L927.54 92.0363ZM929.444 83.768C929.444 80.7276 928.817 78.0356 927.525 75.7274L925.779 76.7046C926.876 78.663 927.444 81.0058 927.444 83.768H929.444ZM927.532 75.7419C926.251 73.3613 924.453 71.514 922.149 70.2235L921.171 71.9685C923.134 73.0674 924.664 74.6334 925.772 76.6901L927.532 75.7419ZM922.19 70.248C919.958 68.8531 917.336 68.176 914.364 68.176V70.176C917.024 70.176 919.266 70.7789 921.13 71.944L922.19 70.248ZM914.364 68.176C911.47 68.176 908.857 68.8563 906.554 70.2385L907.582 71.9535C909.545 70.7757 911.796 70.176 914.364 70.176V68.176ZM906.579 70.2235C904.275 71.514 902.477 73.3613 901.196 75.7419L902.956 76.6901C904.064 74.6334 905.594 73.0674 907.557 71.9685L906.579 70.2235ZM901.196 75.7419C899.911 78.127 899.284 80.8544 899.284 83.896H901.284C901.284 81.1349 901.851 78.7423 902.956 76.6901L901.196 75.7419ZM899.284 83.896C899.284 86.8583 899.914 89.5782 901.188 92.0363L902.964 91.1157C901.849 88.9658 901.284 86.5657 901.284 83.896H899.284ZM901.196 92.0501C902.474 94.425 904.264 96.3077 906.554 97.6815L907.582 95.9665C905.605 94.7803 904.067 93.1643 902.956 91.1019L901.196 92.0501ZM906.579 97.6965C908.879 98.9842 911.483 99.616 914.364 99.616V97.616C911.784 97.616 909.524 97.0531 907.557 95.9515L906.579 97.6965ZM972.144 115L971.199 115.327L971.432 116H972.144V115ZM950.64 52.792V51.792H949.236L949.695 53.1187L950.64 52.792ZM969.84 52.792L970.799 52.5094L970.588 51.792H969.84V52.792ZM983.152 97.976L983.175 98.9757L984.48 98.9461L984.111 97.6934L983.152 97.976ZM977.52 98.104L976.569 97.795L976.133 99.1358L977.543 99.1037L977.52 98.104ZM992.24 52.792V51.792H991.513L991.289 52.483L992.24 52.792ZM1008.11 52.792L1009.06 52.4806L1008.84 51.792H1008.11V52.792ZM1022.96 98.104L1022.94 99.1038L1024.35 99.1351L1023.91 97.7926L1022.96 98.104ZM1017.2 97.976L1016.24 97.6909L1015.87 98.9466L1017.18 98.9758L1017.2 97.976ZM1030.64 52.792V51.792H1029.89L1029.68 52.5069L1030.64 52.792ZM1049.84 52.792L1050.79 53.1187L1051.24 51.792H1049.84V52.792ZM1028.34 115V116H1029.05L1029.28 115.327L1028.34 115ZM1012.34 115L1011.39 115.319L1011.62 116H1012.34V115ZM997.872 71.992V70.992H996.481L996.924 72.3108L997.872 71.992ZM1002.74 71.992L1003.68 72.3158L1004.14 70.992H1002.74V71.992ZM988.016 115V116H988.731L988.962 115.324L988.016 115ZM973.089 114.673L951.585 52.4653L949.695 53.1187L971.199 115.327L973.089 114.673ZM950.64 53.792H969.84V51.792H950.64V53.792ZM968.881 53.0746L982.193 98.2586L984.111 97.6934L970.799 52.5094L968.881 53.0746ZM983.129 96.9763L977.497 97.1043L977.543 99.1037L983.175 98.9757L983.129 96.9763ZM978.471 98.413L993.191 53.101L991.289 52.483L976.569 97.795L978.471 98.413ZM992.24 53.792H1008.11V51.792H992.24V53.792ZM1007.16 53.1034L1022.01 98.4154L1023.91 97.7926L1009.06 52.4806L1007.16 53.1034ZM1022.98 97.1042L1017.22 96.9762L1017.18 98.9758L1022.94 99.1038L1022.98 97.1042ZM1018.16 98.2611L1031.6 53.0771L1029.68 52.5069L1016.24 97.6909L1018.16 98.2611ZM1030.64 53.792H1049.84V51.792H1030.64V53.792ZM1048.89 52.4653L1027.39 114.673L1029.28 115.327L1050.79 53.1187L1048.89 52.4653ZM1028.34 114H1012.34V116H1028.34V114ZM1013.28 114.681L998.82 71.6732L996.924 72.3108L1011.39 115.319L1013.28 114.681ZM997.872 72.992H1002.74V70.992H997.872V72.992ZM1001.79 71.6682L987.07 114.676L988.962 115.324L1003.68 72.3158L1001.79 71.6682ZM988.016 114H972.144V116H988.016V114ZM1098.94 115H1097.94V116H1098.94V115ZM1098.94 99.384V98.384H1097.94V99.384H1098.94ZM1129.4 95.928L1130.12 96.6216L1129.4 95.928ZM1126.84 77.112L1126.35 77.9802L1126.36 77.9852L1126.36 77.9899L1126.84 77.112ZM1098.94 75.576H1097.94V76.576H1098.94V75.576ZM1098.94 60.344V59.344H1097.94V60.344H1098.94ZM1126.59 57.912L1127.21 58.696L1127.22 58.6883L1127.23 58.6802L1126.59 57.912ZM1126.59 42.808L1125.95 43.5762L1125.96 43.5843L1125.97 43.592L1126.59 42.808ZM1098.94 40.248H1097.94V41.248H1098.94V40.248ZM1098.94 24.632V23.632H1097.94V24.632H1098.94ZM1137.08 27.832L1136.61 28.7149L1136.62 28.7189L1137.08 27.832ZM1146.43 36.408L1145.57 36.9195V36.9195L1146.43 36.408ZM1144.25 62.392L1144.98 63.0743L1144.25 62.392ZM1128.38 70.328L1127.38 70.2527L1127.28 71.5767L1128.58 71.3072L1128.38 70.328ZM1128.89 63.544L1129.08 62.5618L1127.98 62.3516L1127.89 63.4687L1128.89 63.544ZM1146.43 72.376L1145.69 73.0543L1145.7 73.0618L1146.43 72.376ZM1148.99 102.2L1148.14 101.675L1148.13 101.68L1148.99 102.2ZM1138.49 111.544L1138.04 110.65L1138.04 110.653L1138.49 111.544ZM1083.58 115H1082.58V116H1083.58V115ZM1083.58 24.632V23.632H1082.58V24.632H1083.58ZM1103.42 24.632H1104.42V23.632H1103.42V24.632ZM1103.42 115V116H1104.42V115H1103.42ZM1099.94 115V99.384H1097.94V115H1099.94ZM1098.94 100.384H1120.19V98.384H1098.94V100.384ZM1120.19 100.384C1124.32 100.384 1127.67 99.1643 1130.12 96.6216L1128.68 95.2344C1126.69 97.2997 1123.91 98.384 1120.19 98.384V100.384ZM1130.12 96.6216C1132.53 94.1231 1133.73 91.0551 1133.73 87.48H1131.73C1131.73 90.5609 1130.71 93.1249 1128.68 95.2344L1130.12 96.6216ZM1133.73 87.48C1133.73 85.0227 1133.18 82.8 1132.06 80.8399L1130.33 81.8321C1131.25 83.456 1131.73 85.3293 1131.73 87.48H1133.73ZM1132.06 80.8399C1130.94 78.881 1129.36 77.3435 1127.32 76.2341L1126.36 77.9899C1128.08 78.9285 1129.4 80.207 1130.33 81.8321L1132.06 80.8399ZM1127.34 76.2438C1125.36 75.1124 1122.96 74.576 1120.19 74.576V76.576C1122.71 76.576 1124.74 77.0636 1126.35 77.9802L1127.34 76.2438ZM1120.19 74.576H1098.94V76.576H1120.19V74.576ZM1099.94 75.576V60.344H1097.94V75.576H1099.94ZM1098.94 61.344H1118.52V59.344H1098.94V61.344ZM1118.52 61.344C1122.01 61.344 1124.94 60.4917 1127.21 58.696L1125.97 57.128C1124.14 58.5749 1121.69 59.344 1118.52 59.344V61.344ZM1127.23 58.6802C1129.56 56.7327 1130.66 53.8523 1130.66 50.232H1128.66C1128.66 53.4384 1127.71 55.678 1125.95 57.1438L1127.23 58.6802ZM1130.66 50.232C1130.66 46.6898 1129.56 43.8852 1127.21 42.024L1125.97 43.592C1127.71 44.9734 1128.66 47.1182 1128.66 50.232H1130.66ZM1127.23 42.0398C1124.96 40.1491 1122.03 39.248 1118.52 39.248V41.248C1121.68 41.248 1124.12 42.0536 1125.95 43.5762L1127.23 42.0398ZM1118.52 39.248H1098.94V41.248H1118.52V39.248ZM1099.94 40.248V24.632H1097.94V40.248H1099.94ZM1098.94 25.632H1122.36V23.632H1098.94V25.632ZM1122.36 25.632C1128.05 25.632 1132.78 26.6768 1136.61 28.7149L1137.55 26.9491C1133.36 24.7205 1128.29 23.632 1122.36 23.632V25.632ZM1136.62 28.7189C1140.57 30.7759 1143.54 33.5119 1145.57 36.9195L1147.29 35.8965C1145.05 32.1361 1141.79 29.1547 1137.54 26.9451L1136.62 28.7189ZM1145.57 36.9195C1147.6 40.3419 1148.63 44.1319 1148.63 48.312H1150.63C1150.63 43.7881 1149.52 39.6421 1147.29 35.8965L1145.57 36.9195ZM1148.63 48.312C1148.63 53.621 1146.92 58.0659 1143.52 61.7097L1144.98 63.0743C1148.75 59.0381 1150.63 54.0964 1150.63 48.312H1148.63ZM1143.52 61.7097C1140.12 65.3527 1135.04 67.9253 1128.18 69.3488L1128.58 71.3072C1135.71 69.8294 1141.21 67.1113 1144.98 63.0743L1143.52 61.7097ZM1129.38 70.4033L1129.89 63.6193L1127.89 63.4687L1127.38 70.2527L1129.38 70.4033ZM1128.7 64.5262C1136.15 65.9481 1141.78 68.8134 1145.69 73.0543L1147.16 71.6977C1142.88 67.0639 1136.82 64.0413 1129.08 62.5618L1128.7 64.5262ZM1145.7 73.0618C1149.69 77.301 1151.7 82.5118 1151.7 88.76H1153.7C1153.7 82.0376 1151.52 76.3257 1147.15 71.6902L1145.7 73.0618ZM1151.7 88.76C1151.7 93.5336 1150.51 97.8302 1148.14 101.675L1149.84 102.725C1152.42 98.5485 1153.7 93.885 1153.7 88.76H1151.7ZM1148.13 101.68C1145.85 105.426 1142.5 108.419 1138.04 110.65L1138.94 112.438C1143.69 110.061 1147.34 106.825 1149.84 102.72L1148.13 101.68ZM1138.04 110.653C1133.69 112.869 1128.39 114 1122.11 114V116C1128.62 116 1134.25 114.827 1138.94 112.435L1138.04 110.653ZM1122.11 114H1098.94V116H1122.11V114ZM1084.58 115V24.632H1082.58V115H1084.58ZM1083.58 25.632H1103.42V23.632H1083.58V25.632ZM1102.42 24.632V115H1104.42V24.632H1102.42ZM1103.42 114H1083.58V116H1103.42V114ZM1176.2 112.952L1175.72 113.829L1175.73 113.834L1175.74 113.839L1176.2 112.952ZM1165.96 103.224L1165.1 103.733L1165.11 103.741L1165.96 103.224ZM1162.25 52.792V51.792H1161.25V52.792H1162.25ZM1181.83 52.792H1182.83V51.792H1181.83V52.792ZM1182.86 94.136L1181.95 94.5421L1181.95 94.5629L1181.96 94.5832L1182.86 94.136ZM1186.19 97.72L1186.69 96.8581L1186.19 97.72ZM1198.35 96.312L1199.07 97.0017L1199.08 96.9933L1199.09 96.9847L1198.35 96.312ZM1200.91 52.792V51.792H1199.91V52.792H1200.91ZM1220.49 52.792H1221.49V51.792H1220.49V52.792ZM1216.78 103.224L1217.63 103.741L1217.64 103.733L1216.78 103.224ZM1206.54 112.952L1207.01 113.836L1207.01 113.832L1207.02 113.829L1206.54 112.952ZM1191.43 115.408C1185.85 115.408 1180.94 114.285 1176.66 112.065L1175.74 113.839C1180.34 116.227 1185.58 117.408 1191.43 117.408V115.408ZM1176.68 112.075C1172.48 109.768 1169.2 106.646 1166.82 102.707L1165.11 103.741C1167.68 107.994 1171.22 111.358 1175.72 113.829L1176.68 112.075ZM1166.82 102.715C1164.45 98.7036 1163.25 94.1044 1163.25 88.888H1161.25C1161.25 94.4236 1162.53 99.3817 1165.1 103.733L1166.82 102.715ZM1163.25 88.888V52.792H1161.25V88.888H1163.25ZM1162.25 53.792H1181.83V51.792H1162.25V53.792ZM1180.83 52.792V88.632H1182.83V52.792H1180.83ZM1180.83 88.632C1180.83 90.8689 1181.19 92.8488 1181.95 94.5421L1183.77 93.7299C1183.16 92.3512 1182.83 90.6618 1182.83 88.632H1180.83ZM1181.96 94.5832C1182.82 96.2882 1184.06 97.6286 1185.68 98.5819L1186.69 96.8581C1185.41 96.1048 1184.44 95.0558 1183.75 93.6888L1181.96 94.5832ZM1185.68 98.5819C1187.31 99.5434 1189.25 100 1191.43 100V98C1189.53 98 1187.96 97.6033 1186.69 96.8581L1185.68 98.5819ZM1191.43 100C1194.56 100 1197.14 99.0261 1199.07 97.0017L1197.62 95.6223C1196.14 97.1819 1194.11 98 1191.43 98V100ZM1199.09 96.9847C1201 94.8764 1201.91 92.0519 1201.91 88.632H1199.91C1199.91 91.6974 1199.1 93.9929 1197.61 95.6393L1199.09 96.9847ZM1201.91 88.632V52.792H1199.91V88.632H1201.91ZM1200.91 53.792H1220.49V51.792H1200.91V53.792ZM1219.49 52.792V88.76H1221.49V52.792H1219.49ZM1219.49 88.76C1219.49 94.0649 1218.29 98.706 1215.92 102.715L1217.64 103.733C1220.22 99.3793 1221.49 94.3778 1221.49 88.76H1219.49ZM1215.92 102.707C1213.54 106.646 1210.26 109.768 1206.06 112.075L1207.02 113.829C1211.52 111.358 1215.07 107.994 1217.63 103.741L1215.92 102.707ZM1206.07 112.068C1201.88 114.284 1197.02 115.408 1191.43 115.408V117.408C1197.29 117.408 1202.49 116.228 1207.01 113.836L1206.07 112.068ZM1243.54 112.056L1243.01 112.905L1243.02 112.909L1243.54 112.056ZM1232.79 100.536L1231.9 101.002L1231.91 101.014L1232.79 100.536ZM1232.79 67.256L1231.91 66.7782L1231.9 66.7903L1232.79 67.256ZM1243.54 55.736L1243.02 54.8827L1243.01 54.8871L1243.54 55.736ZM1270.8 53.944L1270.37 54.8473L1270.38 54.8513L1270.8 53.944ZM1279.38 60.728L1278.58 61.3354L1278.59 61.3485L1278.61 61.3612L1279.38 60.728ZM1283.22 70.456H1284.22V70.4212L1284.22 70.3864L1283.22 70.456ZM1283.22 96.696L1284.22 96.7656L1284.22 96.7308V96.696H1283.22ZM1279.51 106.68L1280.3 107.288L1280.31 107.276L1279.51 106.68ZM1270.93 113.72L1271.37 114.619L1271.38 114.614L1271.39 114.61L1270.93 113.72ZM1270.04 96.824L1270.54 97.6878L1270.55 97.6801L1270.57 97.672L1270.04 96.824ZM1274.9 91.576L1274.02 91.1019L1274.9 91.576ZM1274.9 76.344L1274 76.7912L1274.02 76.8122L1274.03 76.8326L1274.9 76.344ZM1270.04 71.096L1269.51 71.944L1269.51 71.9488L1269.52 71.9535L1270.04 71.096ZM1255.57 71.096L1255.06 70.2385L1255.05 70.2432L1255.04 70.248L1255.57 71.096ZM1250.58 76.344L1249.71 75.8443L1249.71 75.857L1249.7 75.8699L1250.58 76.344ZM1250.58 91.448L1249.7 91.9221L1250.58 91.448ZM1295.12 115V116H1296.12V115H1295.12ZM1275.92 115H1274.92V116H1275.92V115ZM1275.92 98.232L1274.94 98.0407L1274.92 98.1355V98.232H1275.92ZM1278.87 83.128L1279.85 83.3193L1279.89 83.1156L1279.84 82.9128L1278.87 83.128ZM1275.54 68.024H1274.54V68.1329L1274.56 68.2392L1275.54 68.024ZM1275.54 22.072V21.072H1274.54V22.072H1275.54ZM1295.12 22.072H1296.12V21.072H1295.12V22.072ZM1259.28 115.28C1253.56 115.28 1248.5 113.914 1244.06 111.203L1243.02 112.909C1247.8 115.83 1253.23 117.28 1259.28 117.28V115.28ZM1244.07 111.207C1239.7 108.486 1236.23 104.777 1233.67 100.058L1231.91 101.014C1234.63 106.023 1238.34 109.994 1243.01 112.905L1244.07 111.207ZM1233.67 100.07C1231.2 95.368 1229.95 89.9849 1229.95 83.896H1227.95C1227.95 90.2658 1229.26 95.976 1231.9 101.002L1233.67 100.07ZM1229.95 83.896C1229.95 77.8071 1231.2 72.424 1233.67 67.7217L1231.9 66.7903C1229.26 71.816 1227.95 77.5262 1227.95 83.896H1229.95ZM1233.67 67.7338C1236.23 63.0154 1239.7 59.3059 1244.07 56.5849L1243.01 54.8871C1238.34 57.7981 1234.63 61.7686 1231.91 66.7782L1233.67 67.7338ZM1244.06 56.5893C1248.5 53.8778 1253.56 52.512 1259.28 52.512V50.512C1253.23 50.512 1247.8 51.9622 1243.02 54.8827L1244.06 56.5893ZM1259.28 52.512C1263.42 52.512 1267.11 53.2974 1270.37 54.8473L1271.23 53.0407C1267.67 51.3479 1263.68 50.512 1259.28 50.512V52.512ZM1270.38 54.8513C1273.74 56.4084 1276.47 58.5701 1278.58 61.3354L1280.17 60.1205C1277.85 57.0832 1274.86 54.7223 1271.22 53.0367L1270.38 54.8513ZM1278.61 61.3612C1280.78 64.0152 1281.98 67.0603 1282.22 70.5256L1284.22 70.3864C1283.95 66.513 1282.59 63.0728 1280.15 60.0948L1278.61 61.3612ZM1282.22 70.456V96.696H1284.22V70.456H1282.22ZM1282.22 96.6264C1281.98 100.103 1280.81 103.248 1278.7 106.084L1280.31 107.276C1282.64 104.138 1283.95 100.628 1284.22 96.7656L1282.22 96.6264ZM1278.71 106.073C1276.59 108.847 1273.85 111.101 1270.48 112.83L1271.39 114.61C1275.01 112.755 1277.99 110.316 1280.3 107.287L1278.71 106.073ZM1270.49 112.821C1267.14 114.455 1263.41 115.28 1259.28 115.28V117.28C1263.69 117.28 1267.72 116.398 1271.37 114.619L1270.49 112.821ZM1262.74 99.616C1265.7 99.616 1268.31 98.9871 1270.54 97.6878L1269.53 95.9602C1267.66 97.0502 1265.41 97.616 1262.74 97.616V99.616ZM1270.57 97.672C1272.77 96.2959 1274.51 94.4148 1275.78 92.0501L1274.02 91.1019C1272.9 93.1745 1271.4 94.7921 1269.51 95.976L1270.57 97.672ZM1275.78 92.0501C1277.06 89.665 1277.69 86.9376 1277.69 83.896H1275.69C1275.69 86.6571 1275.12 89.0497 1274.02 91.1019L1275.78 92.0501ZM1277.69 83.896C1277.69 80.8556 1277.06 78.1636 1275.77 75.8554L1274.03 76.8326C1275.12 78.791 1275.69 81.1338 1275.69 83.896H1277.69ZM1275.79 75.8968C1274.6 73.5075 1272.85 71.6161 1270.55 70.2385L1269.52 71.9535C1271.49 73.1359 1272.98 74.7432 1274 76.7912L1275.79 75.8968ZM1270.57 70.248C1268.34 68.8561 1265.76 68.176 1262.87 68.176V70.176C1265.44 70.176 1267.64 70.7759 1269.51 71.944L1270.57 70.248ZM1262.87 68.176C1259.97 68.176 1257.36 68.8563 1255.06 70.2385L1256.09 71.9535C1258.05 70.7757 1260.3 70.176 1262.87 70.176V68.176ZM1255.04 70.248C1252.85 71.6201 1251.07 73.4926 1249.71 75.8443L1251.45 76.8437C1252.65 74.7581 1254.2 73.1319 1256.1 71.944L1255.04 70.248ZM1249.7 75.8699C1248.42 78.2507 1247.79 80.9343 1247.79 83.896H1249.79C1249.79 81.2257 1250.35 78.8746 1251.46 76.8181L1249.7 75.8699ZM1247.79 83.896C1247.79 86.8577 1248.42 89.5413 1249.7 91.9221L1251.46 90.9739C1250.35 88.9174 1249.79 86.5663 1249.79 83.896H1247.79ZM1249.7 91.9221C1250.98 94.297 1252.77 96.1797 1255.06 97.5535L1256.09 95.8385C1254.11 94.6523 1252.57 93.0363 1251.46 90.9739L1249.7 91.9221ZM1255.06 97.5535C1257.36 98.9327 1259.92 99.616 1262.74 99.616V97.616C1260.26 97.616 1258.05 97.0193 1256.09 95.8385L1255.06 97.5535ZM1295.12 114H1275.92V116H1295.12V114ZM1276.92 115V98.232H1274.92V115H1276.92ZM1276.9 98.4233L1279.85 83.3193L1277.89 82.9367L1274.94 98.0407L1276.9 98.4233ZM1279.84 82.9128L1276.52 67.8088L1274.56 68.2392L1277.89 83.3432L1279.84 82.9128ZM1276.54 68.024V22.072H1274.54V68.024H1276.54ZM1275.54 23.072H1295.12V21.072H1275.54V23.072ZM1294.12 22.072V115H1296.12V22.072H1294.12ZM1320.69 115.128L1320.43 116.094L1320.43 116.095L1320.69 115.128ZM1310.83 111.16L1310.32 112.017L1310.33 112.026L1310.35 112.034L1310.83 111.16ZM1303.15 105.016L1302.44 104.313L1301.77 104.993L1302.42 105.695L1303.15 105.016ZM1314.29 93.752L1315.02 93.0737L1314.31 92.3046L1313.58 93.0489L1314.29 93.752ZM1321.58 99L1321.17 99.9104L1321.18 99.9156L1321.19 99.9206L1321.58 99ZM1336.05 99.768L1335.58 98.8856L1335.56 98.8925L1335.55 98.8998L1336.05 99.768ZM1335.66 93.496L1335.16 94.3579L1335.19 94.3752L1335.22 94.3904L1335.66 93.496ZM1330.03 91.32L1329.75 92.2788L1329.76 92.2837L1329.78 92.288L1330.03 91.32ZM1315.44 85.944L1315.95 85.0837L1315.44 85.944ZM1309.81 80.312L1308.95 80.8177L1308.95 80.8244L1308.95 80.831L1309.81 80.312ZM1310.7 60.6L1311.52 61.1767L1311.53 61.1655L1310.7 60.6ZM1319.41 53.56L1318.99 52.6496L1319.41 53.56ZM1347.18 53.816L1346.79 54.737L1346.8 54.7414L1346.82 54.7457L1347.18 53.816ZM1358.19 61.88L1358.9 62.5831L1359.52 61.9558L1358.98 61.2622L1358.19 61.88ZM1347.06 73.144L1346.29 73.7925L1347 74.6218L1347.77 73.8471L1347.06 73.144ZM1340.4 68.28L1340.03 69.2108L1340.05 69.215L1340.4 68.28ZM1328.37 67.896L1328.84 68.7765L1328.87 68.7628L1328.89 68.7477L1328.37 67.896ZM1334.51 75.704L1334.26 76.672L1334.51 75.704ZM1341.81 77.88L1342.12 76.9313L1341.81 77.88ZM1349.1 81.336L1349.64 80.4898L1349.1 81.336ZM1354.74 87.224L1353.87 87.7297L1353.88 87.7364L1353.88 87.743L1354.74 87.224ZM1350 111.16L1349.39 110.371L1349.38 110.376L1350 111.16ZM1331.57 115.536C1327.98 115.536 1324.44 115.078 1320.94 114.161L1320.43 116.095C1324.1 117.055 1327.81 117.536 1331.57 117.536V115.536ZM1320.95 114.162C1317.52 113.244 1314.32 111.952 1311.32 110.286L1310.35 112.034C1313.49 113.782 1316.85 115.135 1320.43 116.094L1320.95 114.162ZM1311.35 110.303C1308.43 108.554 1305.95 106.564 1303.89 104.337L1302.42 105.695C1304.62 108.076 1307.26 110.182 1310.32 112.017L1311.35 110.303ZM1303.86 105.719L1315 94.4551L1313.58 93.0489L1302.44 104.313L1303.86 105.719ZM1313.55 94.4303C1315.69 96.7494 1318.24 98.5766 1321.17 99.9104L1322 98.0896C1319.3 96.8634 1316.98 95.192 1315.02 93.0737L1313.55 94.4303ZM1321.19 99.9206C1324.14 101.172 1327.35 101.792 1330.8 101.792V99.792C1327.59 99.792 1324.66 99.2172 1321.97 98.0794L1321.19 99.9206ZM1330.8 101.792C1333.17 101.792 1335.13 101.445 1336.54 100.636L1335.55 98.8998C1334.58 99.4561 1333.03 99.792 1330.8 99.792V101.792ZM1336.52 100.65C1338.04 99.8384 1338.97 98.6018 1338.97 96.952H1336.97C1336.97 97.6916 1336.61 98.3323 1335.58 98.8856L1336.52 100.65ZM1338.97 96.952C1338.97 96.009 1338.73 95.1393 1338.22 94.3813C1337.72 93.6296 1337 93.0449 1336.11 92.6016L1335.22 94.3904C1335.87 94.7151 1336.29 95.0904 1336.56 95.4907C1336.82 95.8847 1336.97 96.359 1336.97 96.952H1338.97ZM1336.17 92.6341C1334.61 91.7187 1332.64 90.9638 1330.28 90.352L1329.78 92.288C1332.03 92.8708 1333.81 93.5666 1335.16 94.3579L1336.17 92.6341ZM1330.32 90.3612C1328.01 89.6789 1325.58 88.9539 1323.02 88.1862L1322.45 90.1018C1325.01 90.8701 1327.44 91.5958 1329.75 92.2788L1330.32 90.3612ZM1323.02 88.1862C1320.54 87.4416 1318.18 86.4077 1315.95 85.0837L1314.93 86.8043C1317.3 88.211 1319.81 89.3104 1322.45 90.1018L1323.02 88.1862ZM1315.95 85.0837C1313.79 83.8058 1312.03 82.0483 1310.66 79.793L1308.95 80.831C1310.49 83.3543 1312.48 85.3515 1314.93 86.8043L1315.95 85.0837ZM1310.67 79.8063C1309.33 77.5254 1308.63 74.5984 1308.63 70.968H1306.63C1306.63 74.8469 1307.38 78.1493 1308.95 80.8177L1310.67 79.8063ZM1308.63 70.968C1308.63 67.1361 1309.61 63.8879 1311.52 61.1767L1309.89 60.0233C1307.7 63.1147 1306.63 66.7786 1306.63 70.968H1308.63ZM1311.53 61.1655C1313.46 58.349 1316.21 56.1123 1319.82 54.4704L1318.99 52.6496C1315.1 54.421 1312.04 56.8776 1309.88 60.0345L1311.53 61.1655ZM1319.82 54.4704C1323.42 52.8343 1327.67 52 1332.59 52V50C1327.45 50 1322.9 50.8723 1318.99 52.6496L1319.82 54.4704ZM1332.59 52C1337.76 52 1342.49 52.9167 1346.79 54.737L1347.57 52.895C1343 50.9606 1338 50 1332.59 50V52ZM1346.82 54.7457C1351.19 56.4771 1354.71 59.0623 1357.41 62.4978L1358.98 61.2622C1356.05 57.5297 1352.23 54.7389 1347.55 52.8863L1346.82 54.7457ZM1357.48 61.1769L1346.34 72.4409L1347.77 73.8471L1358.9 62.5831L1357.48 61.1769ZM1347.82 72.4955C1345.76 70.0819 1343.41 68.3515 1340.75 67.345L1340.05 69.215C1342.34 70.0858 1344.43 71.5981 1346.29 73.7925L1347.82 72.4955ZM1340.77 67.3493C1338.27 66.37 1335.8 65.872 1333.36 65.872V67.872C1335.53 67.872 1337.75 68.3126 1340.03 69.2107L1340.77 67.3493ZM1333.36 65.872C1331.07 65.872 1329.19 66.2183 1327.84 67.0443L1328.89 68.7477C1329.77 68.2084 1331.21 67.872 1333.36 67.872V65.872ZM1327.89 67.0155C1327.22 67.381 1326.66 67.866 1326.27 68.4896C1325.88 69.1161 1325.7 69.8262 1325.7 70.584H1327.7C1327.7 70.1471 1327.8 69.8119 1327.97 69.5424C1328.14 69.27 1328.41 69.0084 1328.84 68.7765L1327.89 67.0155ZM1325.7 70.584C1325.7 72.3429 1326.74 73.6559 1328.41 74.5398L1329.35 72.7722C1328.12 72.1201 1327.7 71.3851 1327.7 70.584H1325.7ZM1328.41 74.5398C1329.95 75.3565 1331.91 76.063 1334.26 76.672L1334.76 74.736C1332.5 74.1503 1330.71 73.4915 1329.35 72.7722L1328.41 74.5398ZM1334.26 76.672C1336.54 77.2629 1338.95 77.9816 1341.49 78.8287L1342.12 76.9313C1339.55 76.0717 1337.09 75.3397 1334.76 74.736L1334.26 76.672ZM1341.49 78.8287C1343.98 79.6564 1346.33 80.7739 1348.57 82.1822L1349.64 80.4898C1347.27 78.9968 1344.76 77.8102 1342.12 76.9313L1341.49 78.8287ZM1348.57 82.1822C1350.73 83.5429 1352.5 85.3857 1353.87 87.7297L1355.6 86.7183C1354.07 84.1129 1352.08 82.0304 1349.64 80.4898L1348.57 82.1822ZM1353.88 87.743C1355.21 89.9249 1355.91 92.8831 1355.91 96.696H1357.91C1357.91 92.6582 1357.17 89.3018 1355.59 86.705L1353.88 87.743ZM1355.91 96.696C1355.91 102.46 1353.74 106.984 1349.39 110.371L1350.61 111.949C1355.48 108.168 1357.91 103.05 1357.91 96.696H1355.91ZM1349.38 110.376C1345.09 113.779 1339.19 115.536 1331.57 115.536V117.536C1339.48 117.536 1345.87 115.709 1350.62 111.944L1349.38 110.376ZM1379.31 115.128L1379.05 116.094L1379.06 116.095L1379.31 115.128ZM1369.46 111.16L1368.94 112.017L1368.96 112.026L1368.97 112.034L1369.46 111.16ZM1361.78 105.016L1361.07 104.313L1360.39 104.993L1361.04 105.695L1361.78 105.016ZM1372.91 93.752L1373.65 93.0737L1372.94 92.3046L1372.2 93.0489L1372.91 93.752ZM1380.21 99L1379.8 99.9104L1379.81 99.9156L1379.82 99.9206L1380.21 99ZM1394.67 99.768L1394.2 98.8856L1394.19 98.8925L1394.18 98.8998L1394.67 99.768ZM1394.29 93.496L1393.78 94.3579L1393.81 94.3752L1393.84 94.3904L1394.29 93.496ZM1388.66 91.32L1388.37 92.2788L1388.39 92.2837L1388.41 92.288L1388.66 91.32ZM1374.07 85.944L1374.57 85.0837L1374.07 85.944ZM1368.43 80.312L1367.57 80.8177L1367.57 80.8244L1367.58 80.831L1368.43 80.312ZM1369.33 60.6L1370.15 61.1767L1370.15 61.1655L1369.33 60.6ZM1378.03 53.56L1377.62 52.6496L1378.03 53.56ZM1405.81 53.816L1405.42 54.737L1405.43 54.7414L1405.44 54.7457L1405.81 53.816ZM1416.82 61.88L1417.53 62.5831L1418.15 61.9558L1417.6 61.2622L1416.82 61.88ZM1405.68 73.144L1404.92 73.7925L1405.63 74.6218L1406.39 73.8471L1405.68 73.144ZM1399.03 68.28L1398.66 69.2108L1398.67 69.215L1399.03 68.28ZM1386.99 67.896L1387.47 68.7765L1387.49 68.7628L1387.52 68.7477L1386.99 67.896ZM1393.14 75.704L1392.89 76.672L1393.14 75.704ZM1400.43 77.88L1400.75 76.9313L1400.43 77.88ZM1407.73 81.336L1408.26 80.4898L1407.73 81.336ZM1413.36 87.224L1412.5 87.7297L1412.5 87.7364L1412.51 87.743L1413.36 87.224ZM1408.62 111.16L1408.01 110.371L1408 110.376L1408.62 111.16ZM1390.19 115.536C1386.61 115.536 1383.07 115.078 1379.57 114.161L1379.06 116.095C1382.73 117.055 1386.44 117.536 1390.19 117.536V115.536ZM1379.57 114.162C1376.15 113.244 1372.94 111.952 1369.94 110.286L1368.97 112.034C1372.12 113.782 1375.48 115.135 1379.05 116.094L1379.57 114.162ZM1369.97 110.303C1367.06 108.554 1364.57 106.564 1362.51 104.337L1361.04 105.695C1363.25 108.076 1365.88 110.182 1368.94 112.017L1369.97 110.303ZM1362.49 105.719L1373.62 94.4551L1372.2 93.0489L1361.07 104.313L1362.49 105.719ZM1372.18 94.4303C1374.32 96.7494 1376.86 98.5766 1379.8 99.9104L1380.62 98.0896C1377.93 96.8634 1375.6 95.192 1373.65 93.0737L1372.18 94.4303ZM1379.82 99.9206C1382.77 101.172 1385.97 101.792 1389.42 101.792V99.792C1386.22 99.792 1383.28 99.2172 1380.6 98.0794L1379.82 99.9206ZM1389.42 101.792C1391.8 101.792 1393.75 101.445 1395.17 100.636L1394.18 98.8998C1393.2 99.4561 1391.66 99.792 1389.42 99.792V101.792ZM1395.14 100.65C1396.67 99.8384 1397.59 98.6018 1397.59 96.952H1395.59C1395.59 97.6916 1395.24 98.3323 1394.2 98.8856L1395.14 100.65ZM1397.59 96.952C1397.59 96.009 1397.35 95.1393 1396.85 94.3813C1396.35 93.6296 1395.62 93.0449 1394.74 92.6016L1393.84 94.3904C1394.49 94.7151 1394.92 95.0904 1395.18 95.4907C1395.45 95.8847 1395.59 96.359 1395.59 96.952H1397.59ZM1394.8 92.6341C1393.24 91.7187 1391.27 90.9638 1388.91 90.352L1388.41 92.288C1390.65 92.8708 1392.44 93.5666 1393.78 94.3579L1394.8 92.6341ZM1388.94 90.3612C1386.64 89.6789 1384.21 88.9539 1381.65 88.1862L1381.07 90.1018C1383.63 90.8701 1386.07 91.5958 1388.37 92.2788L1388.94 90.3612ZM1381.65 88.1862C1379.17 87.4416 1376.81 86.4077 1374.57 85.0837L1373.56 86.8043C1375.93 88.211 1378.44 89.3104 1381.07 90.1018L1381.65 88.1862ZM1374.57 85.0837C1372.42 83.8058 1370.66 82.0483 1369.29 79.793L1367.58 80.831C1369.11 83.3543 1371.1 85.3515 1373.56 86.8043L1374.57 85.0837ZM1369.3 79.8063C1367.96 77.5254 1367.26 74.5984 1367.26 70.968H1365.26C1365.26 74.8469 1366.01 78.1493 1367.57 80.8177L1369.3 79.8063ZM1367.26 70.968C1367.26 67.1361 1368.23 63.8879 1370.15 61.1767L1368.51 60.0233C1366.33 63.1147 1365.26 66.7786 1365.26 70.968H1367.26ZM1370.15 61.1655C1372.09 58.349 1374.83 56.1123 1378.45 54.4704L1377.62 52.6496C1373.72 54.421 1370.67 56.8776 1368.5 60.0345L1370.15 61.1655ZM1378.45 54.4704C1382.05 52.8343 1386.29 52 1391.22 52V50C1386.07 50 1381.53 50.8723 1377.62 52.6496L1378.45 54.4704ZM1391.22 52C1396.39 52 1401.12 52.9167 1405.42 54.737L1406.2 52.895C1401.63 50.9606 1396.63 50 1391.22 50V52ZM1405.44 54.7457C1409.81 56.4771 1413.33 59.0623 1416.03 62.4978L1417.6 61.2622C1414.67 57.5297 1410.85 54.7389 1406.18 52.8863L1405.44 54.7457ZM1416.11 61.1769L1404.97 72.4409L1406.39 73.8471L1417.53 62.5831L1416.11 61.1769ZM1406.44 72.4955C1404.39 70.0819 1402.03 68.3515 1399.38 67.345L1398.67 69.215C1400.97 70.0858 1403.05 71.5981 1404.92 73.7925L1406.44 72.4955ZM1399.39 67.3493C1396.9 66.37 1394.43 65.872 1391.98 65.872V67.872C1394.15 67.872 1396.37 68.3126 1398.66 69.2107L1399.39 67.3493ZM1391.98 65.872C1389.7 65.872 1387.81 66.2183 1386.47 67.0443L1387.52 68.7477C1388.39 68.2084 1389.84 67.872 1391.98 67.872V65.872ZM1386.52 67.0155C1385.84 67.381 1385.28 67.866 1384.89 68.4896C1384.51 69.1161 1384.33 69.8262 1384.33 70.584H1386.33C1386.33 70.1471 1386.43 69.8119 1386.6 69.5424C1386.76 69.27 1387.04 69.0084 1387.47 68.7765L1386.52 67.0155ZM1384.33 70.584C1384.33 72.3429 1385.37 73.6559 1387.04 74.5398L1387.97 72.7722C1386.74 72.1201 1386.33 71.3851 1386.33 70.584H1384.33ZM1387.04 74.5398C1388.58 75.3565 1390.54 76.063 1392.89 76.672L1393.39 74.736C1391.13 74.1503 1389.33 73.4915 1387.97 72.7722L1387.04 74.5398ZM1392.89 76.672C1395.17 77.2629 1397.58 77.9816 1400.12 78.8287L1400.75 76.9313C1398.17 76.0717 1395.72 75.3397 1393.39 74.736L1392.89 76.672ZM1400.12 78.8287C1402.6 79.6564 1404.96 80.7739 1407.2 82.1822L1408.26 80.4898C1405.89 78.9968 1403.39 77.8102 1400.75 76.9313L1400.12 78.8287ZM1407.2 82.1822C1409.36 83.5429 1411.12 85.3857 1412.5 87.7297L1414.22 86.7183C1412.7 84.1129 1410.71 82.0304 1408.26 80.4898L1407.2 82.1822ZM1412.51 87.743C1413.83 89.9249 1414.54 92.8831 1414.54 96.696H1416.54C1416.54 92.6582 1415.79 89.3018 1414.22 86.705L1412.51 87.743ZM1414.54 96.696C1414.54 102.46 1412.36 106.984 1408.01 110.371L1409.24 111.949C1414.1 108.168 1416.54 103.05 1416.54 96.696H1414.54ZM1408 110.376C1403.71 113.779 1397.81 115.536 1390.19 115.536V117.536C1398.11 117.536 1404.49 115.709 1409.25 111.944L1408 110.376ZM1474.86 115L1473.91 115.306L1474.13 116H1474.86V115ZM1445.8 24.632V23.632H1444.43L1444.85 24.9381L1445.8 24.632ZM1465.77 24.632L1466.73 24.3396L1466.51 23.632H1465.77V24.632ZM1487.02 94.136V95.136H1488.37L1487.97 93.8436L1487.02 94.136ZM1479.21 94.136L1478.25 93.8501L1477.87 95.136H1479.21V94.136ZM1499.95 24.632V23.632H1499.2L1498.99 24.3461L1499.95 24.632ZM1515.69 24.632L1516.65 24.3461L1516.43 23.632H1515.69V24.632ZM1536.42 94.136V95.136H1537.77L1537.38 93.8501L1536.42 94.136ZM1528.74 94.136L1527.79 93.8453L1527.4 95.136H1528.74V94.136ZM1549.86 24.632V23.632H1549.12L1548.91 24.3413L1549.86 24.632ZM1569.71 24.632L1570.66 24.9381L1571.08 23.632H1569.71V24.632ZM1540.65 115V116H1541.38L1541.6 115.306L1540.65 115ZM1524.91 115L1523.95 115.288L1524.16 116H1524.91V115ZM1504.04 45.496V44.496H1502.7L1503.08 45.7835L1504.04 45.496ZM1511.47 45.496L1512.42 45.7835L1512.81 44.496H1511.47V45.496ZM1490.6 115V116H1491.34L1491.56 115.288L1490.6 115ZM1475.81 114.694L1446.75 24.3259L1444.85 24.9381L1473.91 115.306L1475.81 114.694ZM1445.8 25.632H1465.77V23.632H1445.8V25.632ZM1464.81 24.9243L1486.06 94.4284L1487.97 93.8436L1466.73 24.3396L1464.81 24.9243ZM1487.02 93.136H1479.21V95.136H1487.02V93.136ZM1480.17 94.4219L1500.9 24.9179L1498.99 24.3461L1478.25 93.8501L1480.17 94.4219ZM1499.95 25.632H1515.69V23.632H1499.95V25.632ZM1514.73 24.9179L1535.47 94.4219L1537.38 93.8501L1516.65 24.3461L1514.73 24.9179ZM1536.42 93.136H1528.74V95.136H1536.42V93.136ZM1529.7 94.4267L1550.82 24.9227L1548.91 24.3413L1527.79 93.8453L1529.7 94.4267ZM1549.86 25.632H1569.71V23.632H1549.86V25.632ZM1568.75 24.3259L1539.7 114.694L1541.6 115.306L1570.66 24.9381L1568.75 24.3259ZM1540.65 114H1524.91V116H1540.65V114ZM1525.86 114.712L1505 45.2085L1503.08 45.7835L1523.95 115.288L1525.86 114.712ZM1504.04 46.496H1511.47V44.496H1504.04V46.496ZM1510.51 45.2085L1489.64 114.712L1491.56 115.288L1512.42 45.7835L1510.51 45.2085ZM1490.6 114H1474.86V116H1490.6V114ZM1583.33 112.184L1582.84 113.054L1582.85 113.059L1582.86 113.064L1583.33 112.184ZM1571.17 100.408L1572.03 99.8913L1571.17 100.408ZM1571.17 67.256L1570.32 66.7327L1571.17 67.256ZM1583.33 55.736L1583.81 56.6123L1583.82 56.606L1583.33 55.736ZM1630.31 67.256L1629.45 67.7727L1629.45 67.7793L1630.31 67.256ZM1630.31 100.408L1631.16 100.925L1630.31 100.408ZM1618.15 112.184L1618.63 113.06L1618.64 113.054L1618.15 112.184ZM1608.16 96.824L1608.65 97.6965L1608.66 97.6892L1608.68 97.6815L1608.16 96.824ZM1613.03 91.576L1612.14 91.1157L1612.14 91.1222L1612.13 91.1288L1613.03 91.576ZM1613.03 76.216L1612.15 76.6901L1612.15 76.6974L1612.15 76.7046L1613.03 76.216ZM1608.04 71.096L1607.51 71.944L1607.53 71.9567L1607.55 71.9685L1608.04 71.096ZM1593.44 71.096L1593.93 71.9685L1593.94 71.9612L1593.96 71.9535L1593.44 71.096ZM1588.45 76.216L1589.33 76.6901L1588.45 76.216ZM1588.45 91.576L1587.56 92.0363L1587.57 92.0432L1587.57 92.0501L1588.45 91.576ZM1593.44 96.824L1592.93 97.6815L1592.94 97.6892L1592.95 97.6965L1593.44 96.824ZM1600.74 115.408C1594.49 115.408 1588.85 114.035 1583.81 111.304L1582.86 113.064C1588.22 115.965 1594.19 117.408 1600.74 117.408V115.408ZM1583.82 111.314C1578.85 108.496 1574.92 104.691 1572.03 99.8913L1570.31 100.925C1573.39 106.024 1577.57 110.07 1582.84 113.054L1583.82 111.314ZM1572.03 99.8913C1569.14 95.1078 1567.69 89.7418 1567.69 83.768H1565.69C1565.69 90.0822 1567.23 95.8095 1570.31 100.925L1572.03 99.8913ZM1567.69 83.768C1567.69 77.7941 1569.14 72.4738 1572.02 67.7793L1570.32 66.7327C1567.23 71.7662 1565.69 77.4539 1565.69 83.768H1567.69ZM1572.02 67.7793C1574.92 63.0667 1578.84 59.3467 1583.81 56.6122L1582.85 54.8598C1577.58 57.7573 1573.4 61.7173 1570.32 66.7327L1572.02 67.7793ZM1583.82 56.606C1588.78 53.7984 1594.41 52.384 1600.74 52.384V50.384C1594.1 50.384 1588.12 51.871 1582.84 54.866L1583.82 56.606ZM1600.74 52.384C1607.07 52.384 1612.71 53.7581 1617.67 56.4842L1618.63 54.7318C1613.35 51.8259 1607.37 50.384 1600.74 50.384V52.384ZM1617.67 56.4842C1622.63 59.2164 1626.56 62.9757 1629.45 67.7727L1631.16 66.7393C1628.08 61.6376 1623.9 57.6316 1618.63 54.7318L1617.67 56.4842ZM1629.45 67.7793C1632.34 72.4738 1633.79 77.7941 1633.79 83.768H1635.79C1635.79 77.4539 1634.25 71.7662 1631.16 66.7327L1629.45 67.7793ZM1633.79 83.768C1633.79 89.7418 1632.34 95.1078 1629.45 99.8913L1631.16 100.925C1634.25 95.8095 1635.79 90.0822 1635.79 83.768H1633.79ZM1629.45 99.8913C1626.55 104.691 1622.63 108.496 1617.65 111.314L1618.64 113.054C1623.91 110.07 1628.09 106.024 1631.16 100.925L1629.45 99.8913ZM1617.67 111.308C1612.71 114.034 1607.07 115.408 1600.74 115.408V117.408C1607.37 117.408 1613.35 115.966 1618.63 113.06L1617.67 111.308ZM1600.74 99.616C1603.7 99.616 1606.35 98.9867 1608.65 97.6965L1607.67 95.9515C1605.71 97.0506 1603.41 97.616 1600.74 97.616V99.616ZM1608.68 97.6815C1610.97 96.3039 1612.73 94.4125 1613.92 92.0232L1612.13 91.1288C1611.11 93.1768 1609.62 94.784 1607.65 95.9665L1608.68 97.6815ZM1613.91 92.0363C1615.19 89.574 1615.82 86.8104 1615.82 83.768H1613.82C1613.82 86.5283 1613.25 88.97 1612.14 91.1157L1613.91 92.0363ZM1615.82 83.768C1615.82 80.7276 1615.19 78.0356 1613.9 75.7274L1612.15 76.7046C1613.25 78.663 1613.82 81.0058 1613.82 83.768H1615.82ZM1613.91 75.7419C1612.63 73.3613 1610.83 71.514 1608.52 70.2235L1607.55 71.9685C1609.51 73.0674 1611.04 74.6334 1612.15 76.6901L1613.91 75.7419ZM1608.57 70.248C1606.33 68.8531 1603.71 68.176 1600.74 68.176V70.176C1603.4 70.176 1605.64 70.7789 1607.51 71.944L1608.57 70.248ZM1600.74 68.176C1597.85 68.176 1595.23 68.8563 1592.93 70.2385L1593.96 71.9535C1595.92 70.7757 1598.17 70.176 1600.74 70.176V68.176ZM1592.95 70.2235C1590.65 71.514 1588.85 73.3613 1587.57 75.7419L1589.33 76.6901C1590.44 74.6334 1591.97 73.0674 1593.93 71.9685L1592.95 70.2235ZM1587.57 75.7419C1586.29 78.127 1585.66 80.8544 1585.66 83.896H1587.66C1587.66 81.1349 1588.23 78.7423 1589.33 76.6901L1587.57 75.7419ZM1585.66 83.896C1585.66 86.8583 1586.29 89.5782 1587.56 92.0363L1589.34 91.1157C1588.22 88.9658 1587.66 86.5657 1587.66 83.896H1585.66ZM1587.57 92.0501C1588.85 94.425 1590.64 96.3077 1592.93 97.6815L1593.96 95.9665C1591.98 94.7803 1590.44 93.1643 1589.33 91.1019L1587.57 92.0501ZM1592.95 97.6965C1595.25 98.9842 1597.86 99.616 1600.74 99.616V97.616C1598.16 97.616 1595.9 97.0531 1593.93 95.9515L1592.95 97.6965ZM1644.54 115H1643.54V116H1644.54V115ZM1644.54 52.792V51.792H1643.54V52.792H1644.54ZM1664.12 52.792H1665.12V51.792H1664.12V52.792ZM1664.12 115V116H1665.12V115H1664.12ZM1664.12 80.824L1663.51 81.612L1665.12 82.8742V80.824H1664.12ZM1655.93 74.424L1654.95 74.2059L1654.82 74.8228L1655.31 75.212L1655.93 74.424ZM1664.12 57.528L1664.84 58.2196L1664.12 57.528ZM1687.93 52.92L1687.54 53.841L1687.56 53.8498L1687.58 53.8577L1687.93 52.92ZM1693.95 57.016L1694.73 57.6365L1695.26 56.9712L1694.68 56.3433L1693.95 57.016ZM1682.3 71.736L1681.56 72.4087L1682.35 73.2807L1683.08 72.3565L1682.3 71.736ZM1679.1 69.56L1678.73 70.4885L1679.1 69.56ZM1666.94 71.864L1666.22 71.1721L1666.21 71.1728L1666.94 71.864ZM1645.54 115V52.792H1643.54V115H1645.54ZM1644.54 53.792H1664.12V51.792H1644.54V53.792ZM1663.12 52.792V115H1665.12V52.792H1663.12ZM1664.12 114H1644.54V116H1664.12V114ZM1664.74 80.036L1656.54 73.636L1655.31 75.212L1663.51 81.612L1664.74 80.036ZM1656.9 74.6421C1658.5 67.5084 1661.17 62.0611 1664.84 58.2196L1663.4 56.8364C1659.4 61.0162 1656.6 66.833 1654.95 74.2059L1656.9 74.6421ZM1664.84 58.2196C1668.45 54.4495 1673.5 52.512 1680.12 52.512V50.512C1673.09 50.512 1667.47 52.5851 1663.4 56.8364L1664.84 58.2196ZM1680.12 52.512C1683 52.512 1685.47 52.9653 1687.54 53.841L1688.32 51.999C1685.95 50.9973 1683.21 50.512 1680.12 50.512V52.512ZM1687.58 53.8577C1689.73 54.6536 1691.6 55.9259 1693.21 57.6887L1694.68 56.3433C1692.87 54.3515 1690.74 52.8931 1688.28 51.9823L1687.58 53.8577ZM1693.16 56.3955L1681.51 71.1155L1683.08 72.3565L1694.73 57.6365L1693.16 56.3955ZM1683.04 71.0633C1682.07 70.0031 1680.88 69.1948 1679.47 68.6315L1678.73 70.4885C1679.88 70.9492 1680.81 71.5916 1681.56 72.4087L1683.04 71.0633ZM1679.47 68.6315C1678.05 68.0647 1676.47 67.792 1674.74 67.792V69.792C1676.26 69.792 1677.58 70.0313 1678.73 70.4885L1679.47 68.6315ZM1674.74 67.792C1671.27 67.792 1668.39 68.8985 1666.22 71.1721L1667.66 72.5559C1669.41 70.7335 1671.73 69.792 1674.74 69.792V67.792ZM1666.21 71.1728C1664.09 73.3938 1663.12 76.6771 1663.12 80.824H1665.12C1665.12 76.9496 1666.03 74.2595 1667.66 72.5552L1666.21 71.1728ZM1738.97 115L1738.14 115.559L1738.44 116H1738.97V115ZM1717.21 82.744L1716.4 82.1585L1715.99 82.7245L1716.38 83.3032L1717.21 82.744ZM1738.84 52.792V51.792H1738.33L1738.03 52.2065L1738.84 52.792ZM1760.73 52.792L1761.52 53.4049L1762.77 51.792H1760.73V52.792ZM1734.62 86.456L1733.62 86.3769L1733.36 89.7142L1735.41 87.0689L1734.62 86.456ZM1735.26 78.392L1736.07 77.802L1734.47 75.6249L1734.26 78.3129L1735.26 78.392ZM1762.01 115V116H1763.98L1762.82 114.41L1762.01 115ZM1699.16 115H1698.16V116H1699.16V115ZM1699.16 22.072V21.072H1698.16V22.072H1699.16ZM1718.75 22.072H1719.75V21.072H1718.75V22.072ZM1718.75 115V116H1719.75V115H1718.75ZM1739.8 114.441L1718.04 82.1848L1716.38 83.3032L1738.14 115.559L1739.8 114.441ZM1718.02 83.3295L1739.65 53.3775L1738.03 52.2065L1716.4 82.1585L1718.02 83.3295ZM1738.84 53.792H1760.73V51.792H1738.84V53.792ZM1759.94 52.1791L1733.83 85.8431L1735.41 87.0689L1761.52 53.4049L1759.94 52.1791ZM1735.61 86.5351L1736.25 78.4711L1734.26 78.3129L1733.62 86.3769L1735.61 86.5351ZM1734.45 78.982L1761.2 115.59L1762.82 114.41L1736.07 77.802L1734.45 78.982ZM1762.01 114H1738.97V116H1762.01V114ZM1700.16 115V22.072H1698.16V115H1700.16ZM1699.16 23.072H1718.75V21.072H1699.16V23.072ZM1717.75 22.072V115H1719.75V22.072H1717.75ZM1718.75 114H1699.16V116H1718.75V114ZM1777.19 115.128L1776.93 116.094L1776.93 116.095L1777.19 115.128ZM1767.33 111.16L1766.82 112.017L1766.83 112.026L1766.85 112.034L1767.33 111.16ZM1759.65 105.016L1758.94 104.313L1758.27 104.993L1758.92 105.695L1759.65 105.016ZM1770.79 93.752L1771.52 93.0737L1770.81 92.3046L1770.08 93.0489L1770.79 93.752ZM1778.08 99L1777.67 99.9104L1777.68 99.9156L1777.69 99.9206L1778.08 99ZM1792.55 99.768L1792.08 98.8856L1792.06 98.8925L1792.05 98.8998L1792.55 99.768ZM1792.16 93.496L1791.66 94.3579L1791.69 94.3752L1791.72 94.3904L1792.16 93.496ZM1786.53 91.32L1786.25 92.2788L1786.26 92.2837L1786.28 92.288L1786.53 91.32ZM1771.94 85.944L1772.45 85.0837L1771.94 85.944ZM1766.31 80.312L1765.45 80.8177L1765.45 80.8244L1765.45 80.831L1766.31 80.312ZM1767.2 60.6L1768.02 61.1767L1768.03 61.1655L1767.2 60.6ZM1775.91 53.56L1775.49 52.6496L1775.91 53.56ZM1803.68 53.816L1803.29 54.737L1803.3 54.7414L1803.32 54.7457L1803.68 53.816ZM1814.69 61.88L1815.4 62.5831L1816.02 61.9558L1815.48 61.2622L1814.69 61.88ZM1803.56 73.144L1802.79 73.7925L1803.5 74.6218L1804.27 73.8471L1803.56 73.144ZM1796.9 68.28L1796.53 69.2108L1796.55 69.215L1796.9 68.28ZM1784.87 67.896L1785.34 68.7765L1785.37 68.7628L1785.39 68.7477L1784.87 67.896ZM1791.01 75.704L1790.76 76.672L1791.01 75.704ZM1798.31 77.88L1798.62 76.9313L1798.31 77.88ZM1805.6 81.336L1806.14 80.4898L1805.6 81.336ZM1811.24 87.224L1810.37 87.7297L1810.38 87.7364L1810.38 87.743L1811.24 87.224ZM1806.5 111.16L1805.89 110.371L1805.88 110.376L1806.5 111.16ZM1788.07 115.536C1784.48 115.536 1780.94 115.078 1777.44 114.161L1776.93 116.095C1780.6 117.055 1784.31 117.536 1788.07 117.536V115.536ZM1777.45 114.162C1774.02 113.244 1770.82 111.952 1767.82 110.286L1766.85 112.034C1769.99 113.782 1773.35 115.135 1776.93 116.094L1777.45 114.162ZM1767.85 110.303C1764.93 108.554 1762.45 106.564 1760.39 104.337L1758.92 105.695C1761.12 108.076 1763.76 110.182 1766.82 112.017L1767.85 110.303ZM1760.36 105.719L1771.5 94.4551L1770.08 93.0489L1758.94 104.313L1760.36 105.719ZM1770.05 94.4303C1772.19 96.7494 1774.74 98.5766 1777.67 99.9104L1778.5 98.0896C1775.8 96.8634 1773.48 95.192 1771.52 93.0737L1770.05 94.4303ZM1777.69 99.9206C1780.64 101.172 1783.85 101.792 1787.3 101.792V99.792C1784.09 99.792 1781.16 99.2172 1778.47 98.0794L1777.69 99.9206ZM1787.3 101.792C1789.67 101.792 1791.63 101.445 1793.04 100.636L1792.05 98.8998C1791.08 99.4561 1789.53 99.792 1787.3 99.792V101.792ZM1793.02 100.65C1794.54 99.8384 1795.47 98.6018 1795.47 96.952H1793.47C1793.47 97.6916 1793.11 98.3323 1792.08 98.8856L1793.02 100.65ZM1795.47 96.952C1795.47 96.009 1795.23 95.1393 1794.72 94.3813C1794.22 93.6296 1793.5 93.0449 1792.61 92.6016L1791.72 94.3904C1792.37 94.7151 1792.79 95.0904 1793.06 95.4907C1793.32 95.8847 1793.47 96.359 1793.47 96.952H1795.47ZM1792.67 92.6341C1791.11 91.7187 1789.14 90.9638 1786.78 90.352L1786.28 92.288C1788.53 92.8708 1790.31 93.5666 1791.66 94.3579L1792.67 92.6341ZM1786.82 90.3612C1784.51 89.6789 1782.08 88.9539 1779.52 88.1862L1778.95 90.1018C1781.51 90.8701 1783.94 91.5958 1786.25 92.2788L1786.82 90.3612ZM1779.52 88.1862C1777.04 87.4416 1774.68 86.4077 1772.45 85.0837L1771.43 86.8043C1773.8 88.211 1776.31 89.3104 1778.95 90.1018L1779.52 88.1862ZM1772.45 85.0837C1770.29 83.8058 1768.53 82.0483 1767.16 79.793L1765.45 80.831C1766.99 83.3543 1768.98 85.3515 1771.43 86.8043L1772.45 85.0837ZM1767.17 79.8063C1765.83 77.5254 1765.13 74.5984 1765.13 70.968H1763.13C1763.13 74.8469 1763.88 78.1493 1765.45 80.8177L1767.17 79.8063ZM1765.13 70.968C1765.13 67.1361 1766.11 63.8879 1768.02 61.1767L1766.39 60.0233C1764.2 63.1147 1763.13 66.7786 1763.13 70.968H1765.13ZM1768.03 61.1655C1769.96 58.349 1772.71 56.1123 1776.32 54.4704L1775.49 52.6496C1771.6 54.421 1768.54 56.8776 1766.38 60.0345L1768.03 61.1655ZM1776.32 54.4704C1779.92 52.8343 1784.17 52 1789.09 52V50C1783.95 50 1779.4 50.8723 1775.49 52.6496L1776.32 54.4704ZM1789.09 52C1794.26 52 1798.99 52.9167 1803.29 54.737L1804.07 52.895C1799.5 50.9606 1794.5 50 1789.09 50V52ZM1803.32 54.7457C1807.69 56.4771 1811.21 59.0623 1813.91 62.4978L1815.48 61.2622C1812.55 57.5297 1808.73 54.7389 1804.05 52.8863L1803.32 54.7457ZM1813.98 61.1769L1802.84 72.4409L1804.27 73.8471L1815.4 62.5831L1813.98 61.1769ZM1804.32 72.4955C1802.26 70.0819 1799.91 68.3515 1797.25 67.345L1796.55 69.215C1798.84 70.0858 1800.93 71.5981 1802.79 73.7925L1804.32 72.4955ZM1797.27 67.3493C1794.77 66.37 1792.3 65.872 1789.86 65.872V67.872C1792.03 67.872 1794.25 68.3126 1796.53 69.2107L1797.27 67.3493ZM1789.86 65.872C1787.57 65.872 1785.69 66.2183 1784.34 67.0443L1785.39 68.7477C1786.27 68.2084 1787.71 67.872 1789.86 67.872V65.872ZM1784.39 67.0155C1783.72 67.381 1783.16 67.866 1782.77 68.4896C1782.38 69.1161 1782.2 69.8262 1782.2 70.584H1784.2C1784.2 70.1471 1784.3 69.8119 1784.47 69.5424C1784.64 69.27 1784.91 69.0084 1785.34 68.7765L1784.39 67.0155ZM1782.2 70.584C1782.2 72.3429 1783.24 73.6559 1784.91 74.5398L1785.85 72.7722C1784.62 72.1201 1784.2 71.3851 1784.2 70.584H1782.2ZM1784.91 74.5398C1786.45 75.3565 1788.41 76.063 1790.76 76.672L1791.26 74.736C1789 74.1503 1787.21 73.4915 1785.85 72.7722L1784.91 74.5398ZM1790.76 76.672C1793.04 77.2629 1795.45 77.9816 1797.99 78.8287L1798.62 76.9313C1796.05 76.0717 1793.59 75.3397 1791.26 74.736L1790.76 76.672ZM1797.99 78.8287C1800.48 79.6564 1802.83 80.7739 1805.07 82.1822L1806.14 80.4898C1803.77 78.9968 1801.26 77.8102 1798.62 76.9313L1797.99 78.8287ZM1805.07 82.1822C1807.23 83.5429 1809 85.3857 1810.37 87.7297L1812.1 86.7183C1810.57 84.1129 1808.58 82.0304 1806.14 80.4898L1805.07 82.1822ZM1810.38 87.743C1811.71 89.9249 1812.41 92.8831 1812.41 96.696H1814.41C1814.41 92.6582 1813.67 89.3018 1812.09 86.705L1810.38 87.743ZM1812.41 96.696C1812.41 102.46 1810.24 106.984 1805.89 110.371L1807.11 111.949C1811.98 108.168 1814.41 103.05 1814.41 96.696H1812.41ZM1805.88 110.376C1801.59 113.779 1795.69 115.536 1788.07 115.536V117.536C1795.98 117.536 1802.37 115.709 1807.12 111.944L1805.88 110.376Z" fill="#444444" mask="url(#path-2-outside-1_1_8311)"/>
</svg>
